Tilt-Warp-Model.ufo
<glyph name="exclam" format="2">
  <advance width="291"/>
  <unicode hex="0021"/>
  <outline>
    <contour>
      <point x="146" y="-16" type="curve" smooth="yes"/>
      <point x="203" y="-16"/>
      <point x="251" y="31"/>
      <point x="251" y="88" type="curve" smooth="yes"/>
      <point x="251" y="144"/>
      <point x="203" y="191"/>
      <point x="146" y="191" type="curve" smooth="yes"/>
      <point x="87" y="191"/>
      <point x="40" y="144"/>
      <point x="40" y="88" type="curve" smooth="yes"/>
      <point x="40" y="31"/>
      <point x="87" y="-16"/>
    </contour>
    <contour>
      <point x="63" y="265" type="line"/>
      <point x="228" y="265" type="line"/>
      <point x="228" y="750" type="line"/>
      <point x="63" y="750" type="line"/>
    </contour>
  </outline>
</glyph>
<glyph name="dollar" format="2">
  <advance width="500"/>
  <unicode hex="0024"/>
  <outline>
    <contour>
      <point x="475" y="223" type="curve" smooth="yes"/>
      <point x="475" y="421"/>
      <point x="207" y="393"/>
      <point x="207" y="455" type="curve" smooth="yes"/>
      <point x="207" y="502"/>
      <point x="339" y="498"/>
      <point x="446" y="440" type="curve"/>
      <point x="446" y="604" type="line"/>
      <point x="183" y="667"/>
      <point x="39" y="604"/>
      <point x="39" y="454" type="curve" smooth="yes"/>
      <point x="39" y="261"/>
      <point x="309" y="287"/>
      <point x="309" y="225" type="curve" smooth="yes"/>
      <point x="309" y="171"/>
      <point x="155" y="185"/>
      <point x="48" y="239" type="curve"/>
      <point x="48" y="75" type="line"/>
      <point x="321" y="12"/>
      <point x="475" y="57"/>
    </contour>
    <contour>
      <point x="184" y="550" type="line"/>
      <point x="329" y="550" type="line"/>
      <point x="329.0" y="730.0" type="line"/>
      <point x="184.0" y="730.0" type="line"/>
    </contour>
    <contour>
      <point x="184" y="-50" type="line"/>
      <point x="329" y="-50" type="line"/>
      <point x="329" y="100" type="line"/>
      <point x="184" y="100" type="line"/>
    </contour>
  </outline>
</glyph>
<glyph name="ampersand" format="2">
  <advance width="634"/>
  <unicode hex="0026"/>
  <outline>
    <contour>
      <point x="435" y="402" type="line"/>
      <point x="168" y="417"/>
      <point x="40" y="318"/>
      <point x="40" y="180" type="curve" smooth="yes"/>
      <point x="40" y="57"/>
      <point x="145" y="-17"/>
      <point x="291" y="-17" type="curve" smooth="yes"/>
      <point x="447" y="-17"/>
      <point x="554" y="66"/>
      <point x="554" y="201" type="curve" smooth="yes"/>
      <point x="554" y="509" type="line"/>
      <point x="389" y="479" type="line"/>
      <point x="389" y="215" type="line" smooth="yes"/>
      <point x="389" y="165"/>
      <point x="353" y="137"/>
      <point x="297" y="137" type="curve" smooth="yes"/>
      <point x="245" y="137"/>
      <point x="215" y="166"/>
      <point x="215" y="205" type="curve" smooth="yes"/>
      <point x="215" y="264"/>
      <point x="281" y="273"/>
      <point x="395" y="273" type="curve" smooth="yes"/>
      <point x="616" y="273" type="line"/>
      <point x="616" y="421" type="line"/>
      <point x="394" y="421" type="line" smooth="yes"/>
      <point x="290" y="421"/>
      <point x="231" y="434"/>
      <point x="231" y="475" type="curve" smooth="yes"/>
      <point x="231" y="538"/>
      <point x="359" y="544"/>
      <point x="471" y="511" type="curve"/>
      <point x="471" y="674" type="line"/>
      <point x="271" y="724"/>
      <point x="59" y="669"/>
      <point x="59" y="492" type="curve" smooth="yes"/>
      <point x="59" y="363"/>
      <point x="163" y="272"/>
      <point x="421" y="287" type="curve"/>
    </contour>
  </outline>
</glyph>
<glyph name="parenleft" format="2">
  <advance width="462"/>
  <unicode hex="0028"/>
  <outline>
    <contour>
      <point x="31.0" y="305.0" type="curve" smooth="yes"/>
      <point x="31" y="614.0"/>
      <point x="222" y="776"/>
      <point x="431" y="801" type="curve"/>
      <point x="431" y="650" type="line"/>
      <point x="292" y="616"/>
      <point x="197" y="522"/>
      <point x="197" y="305" type="curve" smooth="yes"/>
      <point x="197.0" y="88.0"/>
      <point x="292.0" y="-6.0"/>
      <point x="431.0" y="-40.0" type="curve"/>
      <point x="431.0" y="-191.0" type="line"/>
      <point x="222.0" y="-166.0"/>
      <point x="31.0" y="-4.0"/>
    </contour>
  </outline>
</glyph>
<glyph name="parenright" format="2">
  <advance width="462"/>
  <unicode hex="0029"/>
  <outline>
    <contour>
      <point x="431.0" y="305.0" type="curve" smooth="yes"/>
      <point x="431.0" y="-4.0"/>
      <point x="240" y="-166"/>
      <point x="31" y="-191" type="curve"/>
      <point x="31" y="-40" type="line"/>
      <point x="170" y="-6"/>
      <point x="265" y="88"/>
      <point x="265" y="305" type="curve" smooth="yes"/>
      <point x="265.0" y="522.0"/>
      <point x="170.0" y="616.0"/>
      <point x="31.0" y="650.0" type="curve"/>
      <point x="31.0" y="801.0" type="line"/>
      <point x="240.0" y="776.0"/>
      <point x="431.0" y="614.0"/>
    </contour>
  </outline>
</glyph>
<glyph name="asterisk" format="2">
  <advance width="614"/>
  <unicode hex="002A"/>
  <outline>
    <contour>
      <point x="472.0" y="249.0" type="line"/>
      <point x="544.0" y="373.0" type="line"/>
      <point x="295.0" y="507.0" type="line"/>
      <point x="118.0" y="619.0" type="line"/>
      <point x="46.0" y="495.0" type="line"/>
      <point x="295.0" y="361.0" type="line"/>
    </contour>
    <contour>
      <point x="118.0" y="249.0" type="line"/>
      <point x="295.0" y="361.0" type="line"/>
      <point x="544.0" y="495.0" type="line"/>
      <point x="472.0" y="619.0" type="line"/>
      <point x="295.0" y="507.0" type="line"/>
      <point x="46.0" y="373.0" type="line"/>
    </contour>
    <contour>
      <point x="224.0" y="188.0" type="line"/>
      <point x="366.0" y="188.0" type="line"/>
      <point x="366.0" y="680.0" type="line"/>
      <point x="224.0" y="680.0" type="line"/>
    </contour>
  </outline>
</glyph>
<glyph name="plus" format="2">
  <advance width="540"/>
  <unicode hex="002B"/>
  <outline>
    <contour>
      <point x="40" y="231" type="line"/>
      <point x="500" y="231" type="line"/>
      <point x="500" y="386" type="line"/>
      <point x="40" y="386" type="line"/>
    </contour>
    <contour>
      <point x="350.0" y="74.0" type="line"/>
      <point x="350.0" y="544.0" type="line"/>
      <point x="191.0" y="544.0" type="line"/>
      <point x="191.0" y="74.0" type="line"/>
    </contour>
  </outline>
</glyph>
<glyph name="comma" format="2">
  <advance width="297"/>
  <unicode hex="002C"/>
  <outline>
    <contour>
      <point x="47.0" y="191.0" type="curve"/>
      <point x="228.0" y="191.0" type="line"/>
      <point x="250.0" y="100.0"/>
      <point x="242.0" y="12.0"/>
      <point x="189.0" y="-91.0" type="curve"/>
      <point x="49.0" y="-91.0" type="line"/>
      <point x="84.0" y="18.0"/>
      <point x="83.0" y="102.0"/>
    </contour>
  </outline>
</glyph>
<glyph name="hyphen" format="2">
  <advance width="340"/>
  <unicode hex="002D"/>
  <outline>
    <contour>
      <point x="35" y="231" type="line"/>
      <point x="305" y="231" type="line"/>
      <point x="305" y="386" type="line"/>
      <point x="35" y="386" type="line"/>
    </contour>
  </outline>
</glyph>
<glyph name="period" format="2">
  <advance width="271"/>
  <unicode hex="002E"/>
  <outline>
    <contour>
      <point x="136" y="-16" type="curve" smooth="yes"/>
      <point x="193" y="-16"/>
      <point x="241" y="31"/>
      <point x="241" y="88" type="curve" smooth="yes"/>
      <point x="241" y="144"/>
      <point x="193" y="191"/>
      <point x="136" y="191" type="curve" smooth="yes"/>
      <point x="77" y="191"/>
      <point x="30" y="144"/>
      <point x="30" y="88" type="curve" smooth="yes"/>
      <point x="30" y="31"/>
      <point x="77" y="-16"/>
    </contour>
  </outline>
</glyph>
<glyph name="slash" format="2">
  <advance width="510"/>
  <unicode hex="002F"/>
  <outline>
    <contour>
      <point x="10" y="-160" type="line"/>
      <point x="185" y="-160" type="line"/>
      <point x="485" y="750" type="line"/>
      <point x="310" y="750" type="line"/>
    </contour>
  </outline>
</glyph>
<glyph name="zero" format="2">
  <advance width="646"/>
  <unicode hex="0030"/>
  <outline>
    <contour>
      <point x="323" y="149" type="curve" smooth="yes"/>
      <point x="402" y="149"/>
      <point x="448" y="226"/>
      <point x="448" y="341" type="curve" smooth="yes"/>
      <point x="448" y="455"/>
      <point x="402" y="531"/>
      <point x="323" y="531" type="curve" smooth="yes"/>
      <point x="244" y="531"/>
      <point x="198" y="456"/>
      <point x="198" y="341" type="curve" smooth="yes"/>
      <point x="198" y="226"/>
      <point x="244" y="149"/>
    </contour>
    <contour>
      <point x="323" y="-16" type="curve" smooth="yes"/>
      <point x="146" y="-16"/>
      <point x="25" y="137"/>
      <point x="25" y="341" type="curve" smooth="yes"/>
      <point x="25" y="544"/>
      <point x="146" y="696"/>
      <point x="323" y="696" type="curve" smooth="yes"/>
      <point x="499" y="696"/>
      <point x="621" y="544"/>
      <point x="621" y="341" type="curve" smooth="yes"/>
      <point x="621" y="137"/>
      <point x="499" y="-16"/>
    </contour>
  </outline>
</glyph>
<glyph name="one" format="2">
  <advance width="382"/>
  <unicode hex="0031"/>
  <outline>
    <contour>
      <point x="317" y="531" type="line"/>
      <point x="25" y="421" type="line"/>
      <point x="25" y="593" type="line"/>
      <point x="317" y="703" type="line"/>
      <point x="317" y="0" type="line"/>
      <point x="142" y="0" type="line"/>
      <point x="142" y="540" type="line"/>
    </contour>
  </outline>
</glyph>
<glyph name="two" format="2">
  <advance width="529"/>
  <unicode hex="0032"/>
  <outline>
    <contour>
      <point x="50" y="0" type="line"/>
      <point x="484" y="0" type="line"/>
      <point x="484" y="163" type="line"/>
      <point x="50" y="163" type="line"/>
    </contour>
    <contour>
      <point x="238" y="134" type="line"/>
      <point x="379" y="275" type="line" smooth="yes"/>
      <point x="451.0" y="347.0"/>
      <point x="495" y="409"/>
      <point x="495.0" y="492" type="curve" smooth="yes"/>
      <point x="495" y="656"/>
      <point x="310" y="741"/>
      <point x="59" y="663" type="curve"/>
      <point x="59" y="502" type="line"/>
      <point x="240" y="554"/>
      <point x="324" y="521"/>
      <point x="324.0" y="472" type="curve" smooth="yes"/>
      <point x="324" y="446"/>
      <point x="305.0" y="418.0"/>
      <point x="237" y="350" type="curve" smooth="yes"/>
      <point x="50" y="163" type="line"/>
    </contour>
  </outline>
</glyph>
<glyph name="three" format="2">
  <advance width="518"/>
  <unicode hex="0033"/>
  <outline>
    <contour>
      <point x="90" y="273" type="line"/>
      <point x="260" y="281"/>
      <point x="331" y="258"/>
      <point x="331" y="207" type="curve" smooth="yes"/>
      <point x="331" y="142"/>
      <point x="201" y="124"/>
      <point x="50" y="190" type="curve"/>
      <point x="50" y="17" type="line"/>
      <point x="268" y="-62"/>
      <point x="498" y="14"/>
      <point x="498" y="207" type="curve" smooth="yes"/>
      <point x="498" y="374"/>
      <point x="331" y="442"/>
      <point x="90" y="389" type="curve"/>
    </contour>
    <contour>
      <point x="54" y="524" type="line"/>
      <point x="469" y="524" type="line"/>
      <point x="469" y="680" type="line"/>
      <point x="54" y="680" type="line"/>
    </contour>
    <contour>
      <point x="207" y="304" type="line"/>
      <point x="469" y="524" type="line"/>
      <point x="454" y="678" type="line"/>
      <point x="90" y="389" type="line"/>
    </contour>
  </outline>
</glyph>
<glyph name="four" format="2">
  <advance width="573"/>
  <unicode hex="0034"/>
  <outline>
    <contour>
      <point x="25" y="283" type="line"/>
      <point x="130" y="142" type="line"/>
      <point x="376" y="680" type="line"/>
      <point x="219" y="680" type="line"/>
    </contour>
    <contour>
      <point x="302" y="0" type="line"/>
      <point x="473" y="0" type="line"/>
      <point x="473" y="680" type="line"/>
      <point x="302" y="680" type="line"/>
    </contour>
    <contour>
      <point x="25" y="135" type="line"/>
      <point x="568" y="135" type="line"/>
      <point x="568" y="283" type="line"/>
      <point x="25" y="283" type="line"/>
    </contour>
  </outline>
</glyph>
<glyph name="five" format="2">
  <advance width="519"/>
  <unicode hex="0035"/>
  <outline>
    <contour>
      <point x="149" y="517" type="line"/>
      <point x="149" y="680" type="line"/>
      <point x="460" y="680" type="line"/>
      <point x="460" y="517" type="line"/>
    </contour>
    <contour>
      <point x="85" y="411" type="line"/>
      <point x="327" y="464"/>
      <point x="499" y="395"/>
      <point x="499" y="219" type="curve" smooth="yes"/>
      <point x="499" y="16"/>
      <point x="264" y="-62"/>
      <point x="45" y="17" type="curve"/>
      <point x="45" y="179" type="line"/>
      <point x="201" y="127"/>
      <point x="332" y="140"/>
      <point x="332" y="224" type="curve" smooth="yes"/>
      <point x="332" y="307"/>
      <point x="207" y="315"/>
      <point x="53" y="280" type="curve"/>
      <point x="89" y="680" type="line"/>
      <point x="254" y="680" type="line"/>
      <point x="218" y="380" type="line"/>
    </contour>
  </outline>
</glyph>
<glyph name="six" format="2">
  <advance width="562"/>
  <unicode hex="0036"/>
  <outline>
    <contour>
      <point x="483" y="492" type="curve"/>
      <point x="483" y="665" type="line"/>
      <point x="216" y="750"/>
      <point x="25" y="643"/>
      <point x="25" y="321" type="curve" smooth="yes"/>
      <point x="25" y="93"/>
      <point x="135" y="-13"/>
      <point x="287" y="-13" type="curve" smooth="yes"/>
      <point x="441" y="-13"/>
      <point x="537" y="93"/>
      <point x="537" y="232" type="curve" smooth="yes"/>
      <point x="537" y="439"/>
      <point x="324" y="492"/>
      <point x="200" y="420" type="curve"/>
      <point x="195" y="536"/>
      <point x="334" y="575"/>
    </contour>
    <contour>
      <point x="286" y="138" type="curve" smooth="yes"/>
      <point x="236" y="138"/>
      <point x="202" y="175"/>
      <point x="202" y="228" type="curve" smooth="yes"/>
      <point x="202" y="278"/>
      <point x="236" y="312"/>
      <point x="286" y="312" type="curve" smooth="yes"/>
      <point x="336" y="312"/>
      <point x="371" y="277"/>
      <point x="371" y="225" type="curve" smooth="yes"/>
      <point x="371" y="174"/>
      <point x="336" y="138"/>
    </contour>
  </outline>
</glyph>
<glyph name="eight" format="2">
  <advance width="560"/>
  <unicode hex="0038"/>
  <outline>
    <contour>
      <point x="281" y="134" type="curve" smooth="yes"/>
      <point x="327.7471264367816" y="134.0"/>
      <point x="364.0" y="165.0"/>
      <point x="364" y="208" type="curve" smooth="yes"/>
      <point x="364.0" y="253.0"/>
      <point x="327.7471264367816" y="283.0"/>
      <point x="281" y="283" type="curve" smooth="yes"/>
      <point x="233.24719101123594" y="283.0"/>
      <point x="196.0" y="253.0"/>
      <point x="196" y="208" type="curve" smooth="yes"/>
      <point x="196.0" y="165.0"/>
      <point x="233.24719101123594" y="134.0"/>
    </contour>
    <contour>
      <point x="281" y="-16" type="curve" smooth="yes"/>
      <point x="135.85258964143426" y="-16.0"/>
      <point x="28.0" y="70.00000000000001"/>
      <point x="28" y="198" type="curve" smooth="yes"/>
      <point x="28.0" y="330.0"/>
      <point x="136.86055776892428" y="395.0"/>
      <point x="281" y="395" type="curve" smooth="yes"/>
      <point x="424.140562248996" y="395.0"/>
      <point x="532.0" y="330.0"/>
      <point x="532" y="198" type="curve" smooth="yes"/>
      <point x="532.0" y="70.00000000000001"/>
      <point x="424.140562248996" y="-16.0"/>
    </contour>
    <contour>
      <point x="281" y="421" type="curve" smooth="yes"/>
      <point x="324.2" y="421.0"/>
      <point x="353.0" y="448.0"/>
      <point x="353" y="485" type="curve" smooth="yes"/>
      <point x="353.0" y="521.0"/>
      <point x="324.2" y="546.0"/>
      <point x="281" y="546" type="curve" smooth="yes"/>
      <point x="236.7922077922078" y="546.0"/>
      <point x="207.0" y="521.0"/>
      <point x="207" y="485" type="curve" smooth="yes"/>
      <point x="207.0" y="448.0"/>
      <point x="237.75324675324674" y="421.0"/>
    </contour>
    <contour>
      <point x="281" y="309" type="curve" smooth="yes"/>
      <point x="147.70886075949366" y="309.0"/>
      <point x="47.0" y="368.0"/>
      <point x="47" y="490" type="curve" smooth="yes"/>
      <point x="47.0" y="610.0"/>
      <point x="147.00829875518673" y="696.0"/>
      <point x="281" y="696" type="curve" smooth="yes"/>
      <point x="413.98744769874475" y="696.0"/>
      <point x="513.0" y="610.0"/>
      <point x="513" y="490" type="curve" smooth="yes"/>
      <point x="513.0" y="368.0"/>
      <point x="414.2765957446809" y="309.0"/>
    </contour>
  </outline>
</glyph>
<glyph name="nine" format="2">
  <advance width="566"/>
  <unicode hex="0039"/>
  <outline>
    <contour>
      <point x="76.0" y="181.0" type="curve"/>
      <point x="76.0" y="16.0" type="line"/>
      <point x="352.0" y="-72.0"/>
      <point x="541.0" y="38.0"/>
      <point x="541.0" y="362.0" type="curve" smooth="yes"/>
      <point x="541" y="587"/>
      <point x="432" y="694"/>
      <point x="278" y="694" type="curve" smooth="yes"/>
      <point x="121" y="694"/>
      <point x="25.0" y="584.0"/>
      <point x="25.0" y="439.0" type="curve" smooth="yes"/>
      <point x="25.0" y="232.0"/>
      <point x="228.0" y="177.0"/>
      <point x="365.0" y="251.0" type="curve"/>
      <point x="357.0" y="171.0"/>
      <point x="287.0" y="105.0"/>
    </contour>
    <contour>
      <point x="281.0" y="530.0" type="curve" smooth="yes"/>
      <point x="331" y="530.0"/>
      <point x="365.0" y="494"/>
      <point x="365.0" y="443.0" type="curve" smooth="yes"/>
      <point x="365.0" y="395"/>
      <point x="331" y="362.0"/>
      <point x="281.0" y="362.0" type="curve" smooth="yes"/>
      <point x="231" y="362.0"/>
      <point x="196.0" y="396.0"/>
      <point x="196.0" y="446.0" type="curve" smooth="yes"/>
      <point x="196.0" y="495.0"/>
      <point x="231" y="530.0"/>
    </contour>
  </outline>
</glyph>
<glyph name="colon" format="2">
  <advance width="291"/>
  <unicode hex="003A"/>
  <outline>
    <contour>
      <point x="146" y="-16" type="curve" smooth="yes"/>
      <point x="203" y="-16"/>
      <point x="251" y="31"/>
      <point x="251" y="88" type="curve" smooth="yes"/>
      <point x="251" y="144"/>
      <point x="203" y="191"/>
      <point x="146" y="191" type="curve" smooth="yes"/>
      <point x="87" y="191"/>
      <point x="40" y="144"/>
      <point x="40" y="88" type="curve" smooth="yes"/>
      <point x="40" y="31"/>
      <point x="87" y="-16"/>
    </contour>
    <contour>
      <point x="146" y="349" type="curve" smooth="yes"/>
      <point x="203" y="349"/>
      <point x="251" y="396"/>
      <point x="251" y="453" type="curve" smooth="yes"/>
      <point x="251" y="509"/>
      <point x="203" y="556"/>
      <point x="146" y="556" type="curve" smooth="yes"/>
      <point x="87" y="556"/>
      <point x="40" y="509"/>
      <point x="40" y="453" type="curve" smooth="yes"/>
      <point x="40" y="396"/>
      <point x="87" y="349"/>
    </contour>
  </outline>
</glyph>
<glyph name="semicolon" format="2">
  <advance width="291"/>
  <unicode hex="003B"/>
  <outline>
    <contour>
      <point x="146" y="349" type="curve" smooth="yes"/>
      <point x="203" y="349"/>
      <point x="251" y="396"/>
      <point x="251" y="453" type="curve" smooth="yes"/>
      <point x="251" y="509"/>
      <point x="203" y="556"/>
      <point x="146" y="556" type="curve" smooth="yes"/>
      <point x="87" y="556"/>
      <point x="40" y="509"/>
      <point x="40" y="453" type="curve" smooth="yes"/>
      <point x="40" y="396"/>
      <point x="87" y="349"/>
    </contour>
    <contour>
      <point x="52.0" y="191.0" type="curve"/>
      <point x="233.0" y="191.0" type="line"/>
      <point x="255.0" y="100.0"/>
      <point x="247.0" y="12.0"/>
      <point x="194.0" y="-91.0" type="curve"/>
      <point x="54.0" y="-91.0" type="line"/>
      <point x="89.0" y="18.0"/>
      <point x="88.0" y="102.0"/>
    </contour>
  </outline>
</glyph>
<glyph name="equal" format="2">
  <advance width="490"/>
  <unicode hex="003D"/>
  <outline>
    <contour>
      <point x="40" y="351" type="line"/>
      <point x="450" y="351" type="line"/>
      <point x="450" y="506" type="line"/>
      <point x="40" y="506" type="line"/>
    </contour>
    <contour>
      <point x="40" y="111" type="line"/>
      <point x="450" y="111" type="line"/>
      <point x="450" y="266" type="line"/>
      <point x="40" y="266" type="line"/>
    </contour>
  </outline>
</glyph>
<glyph name="greater" format="2">
  <advance width="447"/>
  <unicode hex="003E"/>
  <outline>
    <contour>
      <point x="407" y="222" type="line"/>
      <point x="407" y="389" type="line"/>
      <point x="50" y="229" type="line"/>
      <point x="50" y="53" type="line"/>
    </contour>
    <contour>
      <point x="407" y="394" type="line"/>
      <point x="50" y="563" type="line"/>
      <point x="50" y="390" type="line"/>
      <point x="407" y="232" type="line"/>
    </contour>
  </outline>
</glyph>
<glyph name="question" format="2">
  <advance width="511"/>
  <unicode hex="003F"/>
  <outline>
    <contour>
      <point x="226" y="-16" type="curve" smooth="yes"/>
      <point x="283" y="-16"/>
      <point x="331" y="31"/>
      <point x="331" y="88" type="curve" smooth="yes"/>
      <point x="331" y="144"/>
      <point x="283" y="191"/>
      <point x="226" y="191" type="curve" smooth="yes"/>
      <point x="167" y="191"/>
      <point x="120" y="144"/>
      <point x="120" y="88" type="curve" smooth="yes"/>
      <point x="120" y="31"/>
      <point x="167" y="-16"/>
    </contour>
    <contour>
      <point x="309" y="299" type="line"/>
      <point x="414.0" y="330.0"/>
      <point x="489" y="387"/>
      <point x="489.0" y="493" type="curve" smooth="yes"/>
      <point x="489" y="663"/>
      <point x="303" y="731"/>
      <point x="35" y="663" type="curve"/>
      <point x="35" y="494" type="line"/>
      <point x="171" y="548"/>
      <point x="320" y="536"/>
      <point x="320.0" y="474" type="curve" smooth="yes"/>
      <point x="320" y="438"/>
      <point x="267" y="421"/>
      <point x="139" y="410" type="curve"/>
      <point x="143" y="245" type="line"/>
      <point x="308" y="245" type="line"/>
    </contour>
  </outline>
</glyph>
<glyph name="at" format="2">
  <advance width="956"/>
  <unicode hex="0040"/>
  <outline>
    <contour>
      <point x="487" y="179" type="curve" smooth="yes"/>
      <point x="529.0" y="179.0"/>
      <point x="557.0" y="213.0"/>
      <point x="557" y="265" type="curve" smooth="yes"/>
      <point x="557.0" y="317.0"/>
      <point x="529.0" y="350.0"/>
      <point x="487" y="350" type="curve" smooth="yes"/>
      <point x="445" y="350.0"/>
      <point x="418.0" y="318.0"/>
      <point x="418" y="265" type="curve" smooth="yes"/>
      <point x="418.0" y="212.0"/>
      <point x="445" y="179.0"/>
    </contour>
    <contour>
      <point x="611" y="332" type="curve"/>
      <point x="634" y="200" type="line"/>
      <point x="634.0" y="121.0"/>
      <point x="564" y="55.0"/>
      <point x="472" y="55" type="curve" smooth="yes"/>
      <point x="371" y="55.0"/>
      <point x="283.0" y="141.0"/>
      <point x="283" y="265" type="curve" smooth="yes"/>
      <point x="283.0" y="391.0"/>
      <point x="371" y="474.0"/>
      <point x="471" y="474" type="curve" smooth="yes"/>
      <point x="551" y="474.0"/>
      <point x="611.0" y="412.0"/>
    </contour>
    <contour>
      <point x="674" y="-132" type="line"/>
      <point x="330" y="-236"/>
      <point x="47.0" y="-58.0"/>
      <point x="47" y="258" type="curve" smooth="yes"/>
      <point x="47.0" y="510.0"/>
      <point x="243" y="696"/>
      <point x="505" y="696" type="curve" smooth="yes"/>
      <point x="753" y="696"/>
      <point x="923.0" y="538.0"/>
      <point x="923" y="315" type="curve" smooth="yes"/>
      <point x="923.0" y="154"/>
      <point x="822.0" y="63.0"/>
      <point x="706" y="63" type="curve" smooth="yes"/>
      <point x="632.0" y="63.0"/>
      <point x="587" y="106"/>
      <point x="570" y="178" type="curve"/>
      <point x="588" y="279" type="line"/>
      <point x="564" y="334" type="line"/>
      <point x="564" y="464" type="line"/>
      <point x="694" y="464" type="line"/>
      <point x="694" y="217" type="line" smooth="yes"/>
      <point x="694" y="194"/>
      <point x="705.0" y="182.0"/>
      <point x="727" y="182" type="curve" smooth="yes"/>
      <point x="763.0" y="182.0"/>
      <point x="797.0" y="227"/>
      <point x="797" y="308" type="curve" smooth="yes"/>
      <point x="797.0" y="465.0"/>
      <point x="680" y="576.0"/>
      <point x="502" y="576" type="curve" smooth="yes"/>
      <point x="313" y="576"/>
      <point x="176.0" y="442.0"/>
      <point x="176" y="261" type="curve" smooth="yes"/>
      <point x="176.0" y="20.0"/>
      <point x="408" y="-108"/>
      <point x="674" y="-4" type="curve"/>
    </contour>
  </outline>
</glyph>
<glyph name="A" format="2">
  <advance width="691"/>
  <unicode hex="0041"/>
  <outline>
    <contour>
      <point x="12" y="0" type="line"/>
      <point x="190" y="0" type="line"/>
      <point x="402" y="680" type="line"/>
      <point x="239" y="680" type="line"/>
    </contour>
    <contour>
      <point x="501" y="0" type="line"/>
      <point x="679" y="0" type="line"/>
      <point x="452" y="680" type="line"/>
      <point x="289" y="680" type="line"/>
    </contour>
    <contour>
      <point x="153" y="124" type="line"/>
      <point x="516" y="124" type="line"/>
      <point x="516" y="287" type="line"/>
      <point x="153" y="287" type="line"/>
    </contour>
  </outline>
</glyph>
<glyph name="B" format="2">
  <advance width="577"/>
  <unicode hex="0042"/>
  <outline>
    <contour>
      <point x="65" y="0" type="line"/>
      <point x="239" y="0" type="line"/>
      <point x="239" y="680" type="line"/>
      <point x="65" y="680" type="line"/>
    </contour>
    <contour>
      <point x="361" y="473" type="curve" smooth="yes"/>
      <point x="361.0" y="442.5740740740741"/>
      <point x="339.0" y="420"/>
      <point x="304" y="420" type="curve" smooth="yes"/>
      <point x="190" y="420" type="line"/>
      <point x="190" y="310" type="line"/>
      <point x="302" y="310" type="line" smooth="yes"/>
      <point x="450" y="310"/>
      <point x="532.0" y="380"/>
      <point x="532" y="485" type="curve" smooth="yes"/>
      <point x="532.0" y="601.5979381443299"/>
      <point x="439.0" y="680"/>
      <point x="301" y="680" type="curve" smooth="yes"/>
      <point x="190" y="680" type="line"/>
      <point x="190" y="526" type="line"/>
      <point x="304" y="526" type="line" smooth="yes"/>
      <point x="339" y="526"/>
      <point x="361.0" y="503"/>
    </contour>
    <contour>
      <point x="385.0" y="215.0" type="curve" smooth="yes"/>
      <point x="385.0" y="179"/>
      <point x="359" y="154"/>
      <point x="317.0" y="154.0" type="curve" smooth="yes"/>
      <point x="190.0" y="154.0" type="line"/>
      <point x="190.0" y="0.0" type="line"/>
      <point x="314.0" y="0.0" type="line" smooth="yes"/>
      <point x="459.0" y="0.0"/>
      <point x="557.0" y="81.59803921568627"/>
      <point x="557.0" y="203.0" type="curve" smooth="yes"/>
      <point x="557.0" y="315"/>
      <point x="470" y="393"/>
      <point x="315.0" y="393.0" type="curve" smooth="yes"/>
      <point x="190.0" y="393.0" type="line"/>
      <point x="190.0" y="276.0" type="line"/>
      <point x="317.0" y="276.0" type="line" smooth="yes"/>
      <point x="359.0" y="276.0"/>
      <point x="385.0" y="249.43548387096774"/>
    </contour>
  </outline>
</glyph>
<glyph name="C" format="2">
  <advance width="608"/>
  <unicode hex="0043"/>
  <outline>
    <contour>
      <point x="563" y="204" type="line"/>
      <point x="371" y="95"/>
      <point x="209" y="162"/>
      <point x="209" y="340" type="curve" smooth="yes"/>
      <point x="209" y="517"/>
      <point x="372" y="581"/>
      <point x="563" y="476" type="curve"/>
      <point x="563" y="654" type="line"/>
      <point x="280" y="761"/>
      <point x="32" y="611"/>
      <point x="32" y="339" type="curve" smooth="yes"/>
      <point x="32" y="67"/>
      <point x="275" y="-87"/>
      <point x="563" y="26" type="curve"/>
    </contour>
  </outline>
</glyph>
<glyph name="D" format="2">
  <advance width="689"/>
  <unicode hex="0044"/>
  <outline>
    <contour>
      <point x="65" y="0" type="line"/>
      <point x="240" y="0" type="line"/>
      <point x="240" y="680" type="line"/>
      <point x="65" y="680" type="line"/>
    </contour>
    <contour>
      <point x="317.0" y="0.0" type="line" smooth="yes"/>
      <point x="513.0" y="0.0"/>
      <point x="657.0" y="146"/>
      <point x="657.0" y="341" type="curve" smooth="yes"/>
      <point x="657.0" y="535"/>
      <point x="513.0" y="680.0"/>
      <point x="317.0" y="680.0" type="curve" smooth="yes"/>
      <point x="150.0" y="680.0" type="line"/>
      <point x="150.0" y="518.0" type="line"/>
      <point x="317.0" y="518.0" type="line" smooth="yes"/>
      <point x="417.0" y="518.0"/>
      <point x="482.0" y="444"/>
      <point x="482.0" y="341" type="curve" smooth="yes"/>
      <point x="482.0" y="237"/>
      <point x="417.0" y="162.0"/>
      <point x="317.0" y="162.0" type="curve" smooth="yes"/>
      <point x="150.0" y="162.0" type="line"/>
      <point x="150.0" y="0.0" type="line"/>
    </contour>
  </outline>
</glyph>
<glyph name="E" format="2">
  <advance width="528"/>
  <unicode hex="0045"/>
  <anchor x="473" y="0" name="ogonek"/>
  <anchor x="0" y="0" name="bottom"/>
  <anchor x="269" y="0" name="center"/>
  <anchor x="0" y="680.0" name="top"/>
  <outline>
    <contour>
      <point x="65" y="0" type="line"/>
      <point x="240" y="0" type="line"/>
      <point x="240" y="680" type="line"/>
      <point x="65" y="680" type="line"/>
    </contour>
    <contour>
      <point x="150" y="274" type="line"/>
      <point x="453" y="274" type="line"/>
      <point x="453" y="425" type="line"/>
      <point x="150" y="425" type="line"/>
    </contour>
    <contour>
      <point x="150" y="524" type="line"/>
      <point x="473" y="524" type="line"/>
      <point x="473" y="680" type="line"/>
      <point x="150" y="680" type="line"/>
    </contour>
    <contour>
      <point x="150" y="0" type="line"/>
      <point x="473" y="0" type="line"/>
      <point x="473" y="156" type="line"/>
      <point x="150" y="156" type="line"/>
    </contour>
  </outline>
</glyph>
<glyph name="F" format="2">
  <advance width="518"/>
  <unicode hex="0046"/>
  <outline>
    <contour>
      <point x="65" y="0" type="line"/>
      <point x="240" y="0" type="line"/>
      <point x="240" y="680" type="line"/>
      <point x="65" y="680" type="line"/>
    </contour>
    <contour>
      <point x="150" y="252" type="line"/>
      <point x="453" y="252" type="line"/>
      <point x="453" y="406" type="line"/>
      <point x="150" y="406" type="line"/>
    </contour>
    <contour>
      <point x="150" y="520" type="line"/>
      <point x="473" y="520" type="line"/>
      <point x="473" y="680" type="line"/>
      <point x="150" y="680" type="line"/>
    </contour>
  </outline>
</glyph>
<glyph name="G" format="2">
  <advance width="667"/>
  <unicode hex="0047"/>
  <outline>
    <contour>
      <point x="614" y="45" type="line"/>
      <point x="267" y="-116"/>
      <point x="32" y="73"/>
      <point x="32" y="334" type="curve" smooth="yes"/>
      <point x="32" y="590"/>
      <point x="258" y="779"/>
      <point x="597" y="651" type="curve"/>
      <point x="597" y="473" type="line"/>
      <point x="371" y="589"/>
      <point x="206" y="511"/>
      <point x="206" y="341" type="curve" smooth="yes"/>
      <point x="206" y="229"/>
      <point x="279" y="149"/>
      <point x="380" y="149" type="curve" smooth="yes"/>
      <point x="441" y="149"/>
      <point x="506" y="176"/>
      <point x="536" y="210" type="curve"/>
      <point x="445" y="90" type="line"/>
      <point x="445" y="328" type="line"/>
      <point x="475" y="259" type="line"/>
      <point x="334" y="259" type="line"/>
      <point x="334" y="410" type="line"/>
      <point x="614" y="410" type="line"/>
    </contour>
  </outline>
</glyph>
<glyph name="H" format="2">
  <advance width="693"/>
  <unicode hex="0048"/>
  <anchor x="346.0" y="0" name="below"/>
  <anchor x="346.0" y="680.0" name="above"/>
  <outline>
    <contour>
      <point x="628" y="0" type="line"/>
      <point x="628" y="680" type="line"/>
      <point x="453" y="680" type="line"/>
      <point x="453" y="0" type="line"/>
    </contour>
    <contour>
      <point x="240" y="0" type="line"/>
      <point x="240" y="680" type="line"/>
      <point x="65" y="680" type="line"/>
      <point x="65" y="0" type="line"/>
    </contour>
    <contour>
      <point x="543" y="274" type="line"/>
      <point x="543" y="435" type="line"/>
      <point x="180" y="435" type="line"/>
      <point x="180" y="274" type="line"/>
    </contour>
  </outline>
</glyph>
<glyph name="I" format="2">
  <advance width="315"/>
  <unicode hex="0049"/>
  <anchor x="158.0" y="0" name="below"/>
  <anchor x="158.0" y="680.0" name="above"/>
  <outline>
    <contour>
      <point x="70" y="0" type="line"/>
      <point x="245" y="0" type="line"/>
      <point x="245" y="680" type="line"/>
      <point x="70" y="680" type="line"/>
    </contour>
  </outline>
</glyph>
<glyph name="J" format="2">
  <advance width="459"/>
  <unicode hex="004A"/>
  <outline>
    <contour>
      <point x="404" y="235" type="line" smooth="yes"/>
      <point x="404.0" y="51.0"/>
      <point x="255" y="-65"/>
      <point x="15" y="15" type="curve"/>
      <point x="15" y="184" type="line"/>
      <point x="146" y="127"/>
      <point x="229.0" y="140.0"/>
      <point x="229" y="228" type="curve" smooth="yes"/>
      <point x="229" y="680" type="line"/>
      <point x="404" y="680" type="line"/>
    </contour>
  </outline>
</glyph>
<glyph name="K" format="2">
  <advance width="658"/>
  <unicode hex="004B"/>
  <outline>
    <contour>
      <point x="190" y="353" type="line"/>
      <point x="449" y="0.0" type="line"/>
      <point x="653" y="0.0" type="line"/>
      <point x="358" y="402" type="line"/>
      <point x="336" y="288" type="line"/>
      <point x="645" y="680" type="line"/>
      <point x="445" y="680" type="line"/>
    </contour>
    <contour>
      <point x="65" y="0" type="line"/>
      <point x="240" y="0" type="line"/>
      <point x="240" y="680" type="line"/>
      <point x="65" y="680" type="line"/>
    </contour>
  </outline>
</glyph>
<glyph name="L" format="2">
  <advance width="483"/>
  <unicode hex="004C"/>
  <anchor x="0" y="0" name="bottom"/>
  <anchor x="259" y="0" name="center"/>
  <anchor x="0" y="680.0" name="top"/>
  <anchor x="187" y="680" name="center_top"/>
  <outline>
    <contour>
      <point x="65" y="0" type="line"/>
      <point x="240" y="0" type="line"/>
      <point x="240" y="680" type="line"/>
      <point x="65" y="680" type="line"/>
    </contour>
    <contour>
      <point x="150" y="0" type="line"/>
      <point x="453" y="0" type="line"/>
      <point x="453" y="159" type="line"/>
      <point x="150" y="159" type="line"/>
    </contour>
  </outline>
</glyph>
<glyph name="M" format="2">
  <advance width="858"/>
  <unicode hex="004D"/>
  <outline>
    <contour>
      <point x="793" y="0" type="line"/>
      <point x="789" y="680" type="line"/>
      <point x="624" y="680" type="line"/>
      <point x="624" y="0" type="line"/>
    </contour>
    <contour>
      <point x="682" y="680" type="line"/>
      <point x="542" y="680" type="line"/>
      <point x="355" y="0" type="line"/>
      <point x="502" y="0" type="line"/>
    </contour>
    <contour>
      <point x="65" y="0" type="line"/>
      <point x="230" y="0" type="line"/>
      <point x="230" y="680" type="line"/>
      <point x="65" y="680" type="line"/>
    </contour>
    <contour>
      <point x="170" y="680" type="line"/>
      <point x="350" y="0" type="line"/>
      <point x="502" y="0" type="line"/>
      <point x="315" y="680" type="line"/>
    </contour>
  </outline>
</glyph>
<glyph name="N" format="2">
  <advance width="693"/>
  <unicode hex="004E"/>
  <outline>
    <contour>
      <point x="65" y="0" type="line"/>
      <point x="237" y="0" type="line"/>
      <point x="237" y="680" type="line"/>
      <point x="65" y="680" type="line"/>
    </contour>
    <contour>
      <point x="456" y="0" type="line"/>
      <point x="628" y="0" type="line"/>
      <point x="628" y="680" type="line"/>
      <point x="456" y="680" type="line"/>
    </contour>
    <contour>
      <point x="72" y="680" type="line"/>
      <point x="449" y="0" type="line"/>
      <point x="621" y="0" type="line"/>
      <point x="244" y="680" type="line"/>
    </contour>
  </outline>
</glyph>
<glyph name="O" format="2">
  <advance width="750"/>
  <unicode hex="004F"/>
  <outline>
    <contour>
      <point x="375" y="149" type="curve" smooth="yes"/>
      <point x="475" y="149"/>
      <point x="543" y="226"/>
      <point x="543" y="341" type="curve" smooth="yes"/>
      <point x="543" y="455"/>
      <point x="475" y="531"/>
      <point x="375" y="531" type="curve" smooth="yes"/>
      <point x="275" y="531"/>
      <point x="207" y="456"/>
      <point x="207" y="341" type="curve" smooth="yes"/>
      <point x="207" y="226"/>
      <point x="275" y="149"/>
    </contour>
    <contour>
      <point x="375" y="-16" type="curve" smooth="yes"/>
      <point x="178" y="-16"/>
      <point x="32" y="137"/>
      <point x="32" y="341" type="curve" smooth="yes"/>
      <point x="32" y="544"/>
      <point x="178" y="696"/>
      <point x="375" y="696" type="curve" smooth="yes"/>
      <point x="571" y="696"/>
      <point x="718" y="544"/>
      <point x="718" y="341" type="curve" smooth="yes"/>
      <point x="718" y="137"/>
      <point x="571" y="-16"/>
    </contour>
  </outline>
</glyph>
<glyph name="P" format="2">
  <advance width="593"/>
  <unicode hex="0050"/>
  <outline>
    <contour>
      <point x="65" y="0" type="line"/>
      <point x="240" y="0" type="line"/>
      <point x="240" y="680" type="line"/>
      <point x="65" y="680" type="line"/>
    </contour>
    <contour>
      <point x="190" y="210" type="line"/>
      <point x="327" y="210" type="line" smooth="yes"/>
      <point x="465" y="210"/>
      <point x="568" y="303"/>
      <point x="568" y="444" type="curve" smooth="yes"/>
      <point x="568" y="585"/>
      <point x="466.0" y="680.0"/>
      <point x="313" y="680" type="curve" smooth="yes"/>
      <point x="190" y="680" type="line"/>
      <point x="190" y="521" type="line"/>
      <point x="315" y="521" type="line" smooth="yes"/>
      <point x="365" y="521"/>
      <point x="395" y="487"/>
      <point x="395" y="442" type="curve" smooth="yes"/>
      <point x="395" y="397"/>
      <point x="366" y="364"/>
      <point x="325" y="364" type="curve" smooth="yes"/>
      <point x="190" y="364" type="line"/>
    </contour>
  </outline>
</glyph>
<glyph name="Q" format="2">
  <advance width="753"/>
  <unicode hex="0051"/>
  <outline>
    <contour>
      <point x="534.0" y="-106.0" type="line"/>
      <point x="318" y="248" type="line"/>
      <point x="455" y="330" type="line"/>
      <point x="671" y="-24" type="line"/>
    </contour>
    <contour>
      <point x="385" y="147" type="curve" smooth="yes"/>
      <point x="482" y="147.0"/>
      <point x="543.0" y="226.0"/>
      <point x="543" y="341" type="curve" smooth="yes"/>
      <point x="543.0" y="455.0"/>
      <point x="482" y="532.0"/>
      <point x="385" y="532" type="curve" smooth="yes"/>
      <point x="288" y="532.0"/>
      <point x="227.0" y="456.0"/>
      <point x="227" y="341" type="curve" smooth="yes"/>
      <point x="227.0" y="226.0"/>
      <point x="288" y="147.0"/>
    </contour>
    <contour>
      <point x="385" y="-16" type="curve" smooth="yes"/>
      <point x="189" y="-16"/>
      <point x="48.0" y="135"/>
      <point x="48" y="341" type="curve" smooth="yes"/>
      <point x="48.0" y="546.0"/>
      <point x="189" y="696"/>
      <point x="385" y="696" type="curve" smooth="yes"/>
      <point x="580" y="696"/>
      <point x="722.0" y="546.0"/>
      <point x="722" y="341" type="curve" smooth="yes"/>
      <point x="722.0" y="135"/>
      <point x="580" y="-16"/>
    </contour>
  </outline>
</glyph>
<glyph name="R" format="2">
  <advance width="621"/>
  <unicode hex="0052"/>
  <outline>
    <contour>
      <point x="65" y="0" type="line"/>
      <point x="240" y="0" type="line"/>
      <point x="240" y="680" type="line"/>
      <point x="65" y="680" type="line"/>
    </contour>
    <contour>
      <point x="434" y="0" type="line"/>
      <point x="631" y="0" type="line"/>
      <point x="428" y="340" type="line"/>
      <point x="238" y="358" type="line"/>
    </contour>
    <contour>
      <point x="190" y="229" type="line"/>
      <point x="317" y="229" type="line" smooth="yes"/>
      <point x="452" y="229"/>
      <point x="553.0" y="319"/>
      <point x="553" y="454" type="curve" smooth="yes"/>
      <point x="553.0" y="589"/>
      <point x="453.0" y="680.0"/>
      <point x="303" y="680" type="curve" smooth="yes"/>
      <point x="190" y="680" type="line"/>
      <point x="190" y="518" type="line"/>
      <point x="305" y="518" type="line" smooth="yes"/>
      <point x="352" y="518"/>
      <point x="380.0" y="490"/>
      <point x="380" y="451" type="curve" smooth="yes"/>
      <point x="380.0" y="412"/>
      <point x="353" y="384"/>
      <point x="315" y="384" type="curve" smooth="yes"/>
      <point x="190" y="384" type="line"/>
    </contour>
  </outline>
</glyph>
<glyph name="S" format="2">
  <advance width="542"/>
  <unicode hex="0053"/>
  <outline>
    <contour>
      <point x="512" y="203" type="curve" smooth="yes"/>
      <point x="512" y="-15"/>
      <point x="280" y="-51"/>
      <point x="49" y="17" type="curve"/>
      <point x="49" y="201" type="line"/>
      <point x="178" y="133"/>
      <point x="333" y="131"/>
      <point x="333" y="198" type="curve" smooth="yes"/>
      <point x="333" y="280"/>
      <point x="45" y="253"/>
      <point x="45" y="474" type="curve" smooth="yes"/>
      <point x="45" y="671"/>
      <point x="248" y="733"/>
      <point x="483" y="662" type="curve"/>
      <point x="483" y="478" type="line"/>
      <point x="365" y="550"/>
      <point x="223" y="542"/>
      <point x="223" y="481" type="curve" smooth="yes"/>
      <point x="223" y="399"/>
      <point x="512" y="429"/>
    </contour>
  </outline>
</glyph>
<glyph name="T" format="2">
  <advance width="522"/>
  <unicode hex="0054"/>
  <outline>
    <contour>
      <point x="174" y="0" type="line"/>
      <point x="349" y="0" type="line"/>
      <point x="349" y="680" type="line"/>
      <point x="174" y="680" type="line"/>
    </contour>
    <contour>
      <point x="20" y="517" type="line"/>
      <point x="502" y="517" type="line"/>
      <point x="502" y="680" type="line"/>
      <point x="20" y="680" type="line"/>
    </contour>
  </outline>
</glyph>
<glyph name="U" format="2">
  <advance width="673"/>
  <unicode hex="0055"/>
  <outline>
    <contour>
      <point x="618" y="257" type="line" smooth="yes"/>
      <point x="618" y="90"/>
      <point x="497" y="-16"/>
      <point x="337" y="-16" type="curve" smooth="yes"/>
      <point x="175" y="-16"/>
      <point x="55" y="90"/>
      <point x="55" y="257" type="curve" smooth="yes"/>
      <point x="55" y="680" type="line"/>
      <point x="230" y="680" type="line"/>
      <point x="230" y="269" type="line" smooth="yes"/>
      <point x="230" y="197"/>
      <point x="274" y="149"/>
      <point x="337" y="149" type="curve" smooth="yes"/>
      <point x="399" y="149"/>
      <point x="443" y="197"/>
      <point x="443" y="269" type="curve" smooth="yes"/>
      <point x="443" y="680" type="line"/>
      <point x="618" y="680" type="line"/>
    </contour>
  </outline>
</glyph>
<glyph name="V" format="2">
  <advance width="681"/>
  <unicode hex="0056"/>
  <outline>
    <contour>
      <point x="669" y="680" type="line"/>
      <point x="491" y="680" type="line"/>
      <point x="284" y="0" type="line"/>
      <point x="447" y="0" type="line"/>
    </contour>
    <contour>
      <point x="190" y="680" type="line"/>
      <point x="12" y="680" type="line"/>
      <point x="234" y="0" type="line"/>
      <point x="397" y="0" type="line"/>
    </contour>
  </outline>
</glyph>
<glyph name="W" format="2">
  <advance width="935"/>
  <unicode hex="0057"/>
  <outline>
    <contour>
      <point x="533" y="680" type="line"/>
      <point x="390" y="680" type="line"/>
      <point x="250" y="0" type="line"/>
      <point x="384" y="0" type="line"/>
    </contour>
    <contour>
      <point x="194" y="680" type="line"/>
      <point x="17" y="680" type="line"/>
      <point x="200" y="0" type="line"/>
      <point x="365" y="0" type="line"/>
    </contour>
    <contour>
      <point x="396" y="680" type="line"/>
      <point x="545" y="0" type="line"/>
      <point x="691" y="0" type="line"/>
      <point x="551" y="680" type="line"/>
    </contour>
    <contour>
      <point x="747" y="680" type="line"/>
      <point x="580" y="0" type="line"/>
      <point x="735" y="0" type="line"/>
      <point x="918" y="680" type="line"/>
    </contour>
  </outline>
</glyph>
<glyph name="X" format="2">
  <advance width="665"/>
  <unicode hex="0058"/>
  <outline>
    <contour>
      <point x="28" y="680" type="line"/>
      <point x="264" y="288" type="line"/>
      <point x="302" y="271" type="line"/>
      <point x="456" y="0" type="line"/>
      <point x="653" y="0" type="line"/>
      <point x="413" y="403" type="line"/>
      <point x="373" y="423" type="line"/>
      <point x="225" y="680" type="line"/>
    </contour>
    <contour>
      <point x="643" y="680" type="line"/>
      <point x="449" y="680" type="line"/>
      <point x="300" y="423" type="line"/>
      <point x="260" y="403" type="line"/>
      <point x="15" y="0" type="line"/>
      <point x="209" y="0" type="line"/>
      <point x="366" y="271" type="line"/>
      <point x="404" y="288" type="line"/>
    </contour>
  </outline>
</glyph>
<glyph name="Y" format="2">
  <advance width="617"/>
  <unicode hex="0059"/>
  <outline>
    <contour>
      <point x="612" y="680" type="line"/>
      <point x="428" y="680" type="line"/>
      <point x="231" y="273" type="line"/>
      <point x="393" y="240" type="line"/>
    </contour>
    <contour>
      <point x="191" y="680" type="line"/>
      <point x="5" y="680" type="line"/>
      <point x="224" y="240" type="line"/>
      <point x="388" y="273" type="line"/>
    </contour>
    <contour>
      <point x="221" y="0" type="line"/>
      <point x="396" y="0" type="line"/>
      <point x="396" y="380" type="line"/>
      <point x="221" y="380" type="line"/>
    </contour>
  </outline>
</glyph>
<glyph name="Z" format="2">
  <advance width="585"/>
  <unicode hex="005A"/>
  <anchor x="0" y="0" name="bottom"/>
  <anchor x="292" y="0" name="center"/>
  <anchor x="0" y="680.0" name="top"/>
  <outline>
    <contour>
      <point x="50" y="526" type="line"/>
      <point x="535" y="526" type="line"/>
      <point x="535" y="680" type="line"/>
      <point x="50" y="680" type="line"/>
    </contour>
    <contour>
      <point x="50" y="0" type="line"/>
      <point x="535" y="0" type="line"/>
      <point x="535" y="154" type="line"/>
      <point x="50" y="154" type="line"/>
    </contour>
    <contour>
      <point x="255" y="154" type="line"/>
      <point x="535" y="526" type="line"/>
      <point x="330" y="526" type="line"/>
      <point x="50" y="154" type="line"/>
    </contour>
  </outline>
</glyph>
<glyph name="backslash" format="2">
  <advance width="510"/>
  <unicode hex="005C"/>
  <outline>
    <contour>
      <point x="480" y="-160" type="line"/>
      <point x="180" y="770" type="line"/>
      <point x="15" y="770" type="line"/>
      <point x="315" y="-160" type="line"/>
    </contour>
  </outline>
</glyph>
<glyph name="underscore" format="2">
  <advance width="615"/>
  <unicode hex="005F"/>
  <outline>
    <contour>
      <point x="-5" y="-155" type="line"/>
      <point x="620" y="-155" type="line"/>
      <point x="620" y="0" type="line"/>
      <point x="-5" y="0" type="line"/>
    </contour>
  </outline>
</glyph>
<glyph name="grave" format="2">
  <advance width="408"/>
  <unicode hex="0060"/>
  <anchor x="0" y="517" name="top"/>
  <anchor x="254" y="517" name="center"/>
  <outline>
    <contour>
      <point x="338" y="584" type="line"/>
      <point x="184" y="584" type="line"/>
      <point x="50" y="780" type="line"/>
      <point x="229" y="780" type="line"/>
    </contour>
  </outline>
</glyph>
<glyph name="a" format="2">
  <advance width="630"/>
  <unicode hex="0061"/>
  <outline>
    <contour>
      <point x="412" y="0" type="line"/>
      <point x="412" y="131" type="line"/>
      <point x="460" y="271" type="line"/>
      <point x="412" y="381" type="line"/>
      <point x="412" y="537" type="line"/>
      <point x="577" y="537" type="line"/>
      <point x="577" y="0" type="line"/>
    </contour>
    <contour>
      <point x="305" y="134" type="curve" smooth="yes"/>
      <point x="373" y="134"/>
      <point x="420" y="190"/>
      <point x="420" y="269" type="curve" smooth="yes"/>
      <point x="420" y="348"/>
      <point x="373" y="403"/>
      <point x="305" y="403" type="curve" smooth="yes"/>
      <point x="237" y="403"/>
      <point x="192" y="348"/>
      <point x="192" y="269" type="curve" smooth="yes"/>
      <point x="192" y="190"/>
      <point x="237" y="134"/>
    </contour>
    <contour>
      <point x="483" y="367" type="curve"/>
      <point x="483" y="173" type="line"/>
      <point x="483.0" y="70.0"/>
      <point x="395.78680203045684" y="-14.0"/>
      <point x="276" y="-14" type="curve" smooth="yes"/>
      <point x="135" y="-14"/>
      <point x="27" y="107"/>
      <point x="27" y="269" type="curve" smooth="yes"/>
      <point x="27" y="433"/>
      <point x="135" y="551"/>
      <point x="275" y="551" type="curve" smooth="yes"/>
      <point x="395.80808080808083" y="551.0"/>
      <point x="483.0" y="470.0"/>
    </contour>
  </outline>
</glyph>
<glyph name="b" format="2">
  <advance width="621"/>
  <unicode hex="0062"/>
  <outline>
    <contour>
      <point x="221.0" y="0.0" type="line"/>
      <point x="56.0" y="0.0" type="line"/>
      <point x="56.0" y="730.0" type="line"/>
      <point x="221.0" y="730.0" type="line"/>
      <point x="221.0" y="361.0" type="line"/>
      <point x="173.0" y="261.0" type="line"/>
      <point x="221.0" y="131.0" type="line"/>
    </contour>
    <contour>
      <point x="321.0" y="132.0" type="curve" smooth="yes"/>
      <point x="386.0" y="132.0"/>
      <point x="429.0" y="184.0"/>
      <point x="429.0" y="259.0" type="curve" smooth="yes"/>
      <point x="429.0" y="334.0"/>
      <point x="386.0" y="385.0"/>
      <point x="321.0" y="385.0" type="curve" smooth="yes"/>
      <point x="257.0" y="385.0"/>
      <point x="213.0" y="333.0"/>
      <point x="213.0" y="259.0" type="curve" smooth="yes"/>
      <point x="213.0" y="185.0"/>
      <point x="257.0" y="132.0"/>
    </contour>
    <contour>
      <point x="150.0" y="347.0" type="line"/>
      <point x="150.0" y="450.0"/>
      <point x="235.0" y="531.0"/>
      <point x="350.0" y="531.0" type="curve" smooth="yes"/>
      <point x="479.0" y="531.0"/>
      <point x="594.0" y="419.0"/>
      <point x="594.0" y="259.0" type="curve" smooth="yes"/>
      <point x="594.0" y="101.0"/>
      <point x="479.0" y="-14.0"/>
      <point x="349.0" y="-14.0" type="curve" smooth="yes"/>
      <point x="235.0" y="-14.0"/>
      <point x="150.0" y="70.0"/>
      <point x="150.0" y="173.0" type="curve"/>
    </contour>
  </outline>
</glyph>
<glyph name="c" format="2">
  <advance width="488"/>
  <unicode hex="0063"/>
  <outline>
    <contour>
      <point x="194" y="268" type="curve" smooth="yes"/>
      <point x="194" y="145"/>
      <point x="317" y="102"/>
      <point x="453" y="169" type="curve"/>
      <point x="453" y="15" type="line"/>
      <point x="226" y="-69"/>
      <point x="27" y="54"/>
      <point x="27" y="268" type="curve" smooth="yes"/>
      <point x="27" y="482"/>
      <point x="226" y="605"/>
      <point x="453" y="521" type="curve"/>
      <point x="453" y="367" type="line"/>
      <point x="317" y="434"/>
      <point x="194" y="391"/>
    </contour>
  </outline>
</glyph>
<glyph name="d" format="2">
  <advance width="631"/>
  <unicode hex="0064"/>
  <outline>
    <contour>
      <point x="413" y="0" type="line"/>
      <point x="413" y="131" type="line"/>
      <point x="461" y="271" type="line"/>
      <point x="413" y="381" type="line"/>
      <point x="413" y="750" type="line"/>
      <point x="578" y="750" type="line"/>
      <point x="578" y="0" type="line"/>
    </contour>
    <contour>
      <point x="306" y="134" type="curve" smooth="yes"/>
      <point x="374" y="134"/>
      <point x="421" y="190"/>
      <point x="421" y="269" type="curve" smooth="yes"/>
      <point x="421" y="348"/>
      <point x="374" y="403"/>
      <point x="306" y="403" type="curve" smooth="yes"/>
      <point x="238" y="403"/>
      <point x="191" y="348"/>
      <point x="191" y="269" type="curve" smooth="yes"/>
      <point x="191" y="190"/>
      <point x="238" y="134"/>
    </contour>
    <contour>
      <point x="474" y="364" type="curve"/>
      <point x="474" y="173" type="line"/>
      <point x="474" y="70"/>
      <point x="391" y="-14"/>
      <point x="277" y="-14" type="curve" smooth="yes"/>
      <point x="136" y="-14"/>
      <point x="28" y="107"/>
      <point x="28" y="269" type="curve" smooth="yes"/>
      <point x="28" y="433"/>
      <point x="136" y="551"/>
      <point x="276" y="551" type="curve" smooth="yes"/>
      <point x="391" y="551"/>
      <point x="474" y="467"/>
    </contour>
  </outline>
</glyph>
<glyph name="e" format="2">
  <advance width="571"/>
  <unicode hex="0065"/>
  <outline>
    <contour>
      <point x="390.0" y="260.0" type="line"/>
      <point x="390.0" y="344.0"/>
      <point x="348" y="388"/>
      <point x="290.0" y="388.0" type="curve" smooth="yes"/>
      <point x="233" y="388"/>
      <point x="187.0" y="344.0"/>
      <point x="187" y="260" type="curve" smooth="yes"/>
      <point x="187" y="120"/>
      <point x="351" y="98"/>
      <point x="510" y="183" type="curve"/>
      <point x="510" y="36" type="line"/>
      <point x="260" y="-92"/>
      <point x="27.0" y="31.438596491228083"/>
      <point x="27" y="259" type="curve" smooth="yes"/>
      <point x="27.0" y="415.0"/>
      <point x="141" y="533.0"/>
      <point x="296" y="533" type="curve" smooth="yes"/>
      <point x="468" y="533.0"/>
      <point x="567" y="389"/>
      <point x="532" y="204" type="curve"/>
      <point x="129" y="204" type="line"/>
      <point x="129" y="318" type="line"/>
      <point x="450" y="318" type="line"/>
    </contour>
  </outline>
</glyph>
<glyph name="f" format="2">
  <advance width="414"/>
  <unicode hex="0066"/>
  <outline>
    <contour>
      <point x="22" y="395" type="line"/>
      <point x="392" y="395" type="line"/>
      <point x="392" y="540" type="line"/>
      <point x="22" y="540" type="line"/>
    </contour>
    <contour>
      <point x="269" y="554" type="line" smooth="yes"/>
      <point x="269" y="607"/>
      <point x="321" y="625"/>
      <point x="416" y="596" type="curve"/>
      <point x="416" y="750" type="line"/>
      <point x="243" y="803"/>
      <point x="103" y="725.0"/>
      <point x="103" y="547" type="curve" smooth="yes"/>
      <point x="103" y="0" type="line"/>
      <point x="268" y="0" type="line"/>
    </contour>
  </outline>
</glyph>
<glyph name="g" format="2">
  <advance width="598"/>
  <unicode hex="0067"/>
  <outline>
    <contour>
      <point x="288" y="194" type="curve" smooth="yes"/>
      <point x="350" y="194"/>
      <point x="388" y="235"/>
      <point x="388" y="298" type="curve" smooth="yes"/>
      <point x="388" y="359"/>
      <point x="350" y="402"/>
      <point x="288" y="402" type="curve" smooth="yes"/>
      <point x="226" y="402"/>
      <point x="188" y="359"/>
      <point x="188" y="298" type="curve" smooth="yes"/>
      <point x="188" y="235"/>
      <point x="226" y="194"/>
    </contour>
    <contour>
      <point x="428" y="269" type="line"/>
      <point x="380" y="378" type="line"/>
      <point x="380" y="537" type="line"/>
      <point x="545" y="537" type="line"/>
      <point x="545" y="88" type="line" smooth="yes"/>
      <point x="545" y="-140"/>
      <point x="324" y="-217"/>
      <point x="82" y="-147" type="curve"/>
      <point x="82" y="20" type="line"/>
      <point x="248" y="-63"/>
      <point x="378" y="-26"/>
      <point x="378" y="85" type="curve"/>
      <point x="378" y="152" type="line"/>
    </contour>
    <contour>
      <point x="452" y="243" type="line"/>
      <point x="452" y="141"/>
      <point x="370" y="54"/>
      <point x="255" y="54" type="curve" smooth="yes"/>
      <point x="120" y="54"/>
      <point x="25" y="146"/>
      <point x="25" y="295" type="curve" smooth="yes"/>
      <point x="25" y="440"/>
      <point x="124" y="548"/>
      <point x="258" y="548" type="curve" smooth="yes"/>
      <point x="373" y="548"/>
      <point x="451" y="464"/>
      <point x="451" y="361" type="curve"/>
    </contour>
  </outline>
</glyph>
<glyph name="h" format="2">
  <advance width="593"/>
  <unicode hex="0068"/>
  <outline>
    <contour>
      <point x="56" y="0" type="line"/>
      <point x="221" y="0" type="line"/>
      <point x="221" y="730" type="line"/>
      <point x="56" y="730" type="line"/>
    </contour>
    <contour>
      <point x="152" y="344" type="curve"/>
      <point x="221" y="293" type="line"/>
      <point x="221" y="350"/>
      <point x="251" y="380"/>
      <point x="306" y="380" type="curve" smooth="yes"/>
      <point x="360" y="380"/>
      <point x="382" y="346"/>
      <point x="382" y="293" type="curve" smooth="yes"/>
      <point x="382" y="0" type="line"/>
      <point x="547" y="0" type="line"/>
      <point x="547" y="314" type="line"/>
      <point x="547" y="449"/>
      <point x="468" y="531"/>
      <point x="354" y="531" type="curve" smooth="yes"/>
      <point x="241" y="531"/>
      <point x="152" y="447"/>
    </contour>
  </outline>
</glyph>
<glyph name="i" format="2">
  <advance width="279"/>
  <unicode hex="0069"/>
  <outline>
    <contour>
      <point x="57" y="0" type="line"/>
      <point x="222" y="0" type="line"/>
      <point x="222" y="537" type="line"/>
      <point x="57" y="537" type="line"/>
    </contour>
    <contour>
      <point x="140" y="596" type="curve" smooth="yes"/>
      <point x="196" y="596"/>
      <point x="243" y="642"/>
      <point x="243" y="698" type="curve" smooth="yes"/>
      <point x="243" y="753"/>
      <point x="196" y="799"/>
      <point x="140" y="799" type="curve" smooth="yes"/>
      <point x="82" y="799"/>
      <point x="36" y="753"/>
      <point x="36" y="698" type="curve" smooth="yes"/>
      <point x="36" y="642"/>
      <point x="82" y="596"/>
    </contour>
  </outline>
</glyph>
<glyph name="j" format="2">
  <advance width="292"/>
  <unicode hex="006A"/>
  <outline>
    <contour>
      <point x="69" y="13" type="line" smooth="yes"/>
      <point x="69" y="-40"/>
      <point x="32" y="-61"/>
      <point x="-48" y="-33" type="curve"/>
      <point x="-48" y="-188" type="line"/>
      <point x="95" y="-220"/>
      <point x="235" y="-169"/>
      <point x="235" y="9" type="curve" smooth="yes"/>
      <point x="235" y="537" type="line"/>
      <point x="70" y="537" type="line"/>
    </contour>
    <contour>
      <point x="153" y="596" type="curve" smooth="yes"/>
      <point x="209" y="596"/>
      <point x="256" y="642"/>
      <point x="256" y="698" type="curve" smooth="yes"/>
      <point x="256" y="753"/>
      <point x="209" y="799"/>
      <point x="153" y="799" type="curve" smooth="yes"/>
      <point x="95" y="799"/>
      <point x="49" y="753"/>
      <point x="49" y="698" type="curve" smooth="yes"/>
      <point x="49" y="642"/>
      <point x="95" y="596"/>
    </contour>
  </outline>
</glyph>
<glyph name="k" format="2">
  <advance width="586"/>
  <unicode hex="006B"/>
  <outline>
    <contour>
      <point x="55" y="0" type="line"/>
      <point x="220" y="0" type="line"/>
      <point x="220" y="750" type="line"/>
      <point x="55" y="750" type="line"/>
    </contour>
    <contour>
      <point x="182.0" y="288.0" type="line"/>
      <point x="395.0" y="0.0" type="line"/>
      <point x="586.0" y="0.0" type="line"/>
      <point x="344.0" y="327.0" type="line"/>
      <point x="327.0" y="236.0" type="line"/>
      <point x="577.0" y="540.0" type="line"/>
      <point x="389.0" y="540.0" type="line"/>
    </contour>
  </outline>
</glyph>
<glyph name="l" format="2">
  <advance width="275"/>
  <unicode hex="006C"/>
  <outline>
    <contour>
      <point x="55" y="0" type="line"/>
      <point x="220" y="0" type="line"/>
      <point x="220" y="750" type="line"/>
      <point x="55" y="750" type="line"/>
    </contour>
  </outline>
</glyph>
<glyph name="m" format="2">
  <advance width="867"/>
  <unicode hex="006D"/>
  <outline>
    <contour>
      <point x="55" y="0" type="line"/>
      <point x="220" y="0" type="line"/>
      <point x="220" y="517" type="line"/>
      <point x="55" y="517" type="line"/>
    </contour>
    <contour>
      <point x="520" y="320" type="line"/>
      <point x="520.0" y="451.37735849056605"/>
      <point x="450.0" y="531.0"/>
      <point x="344" y="531" type="curve" smooth="yes"/>
      <point x="239" y="531"/>
      <point x="151" y="447"/>
      <point x="151" y="344" type="curve"/>
      <point x="220" y="307" type="line"/>
      <point x="220" y="356"/>
      <point x="246" y="381"/>
      <point x="292" y="381" type="curve" smooth="yes"/>
      <point x="337" y="381"/>
      <point x="355.0" y="352.0"/>
      <point x="355" y="307" type="curve" smooth="yes"/>
      <point x="355" y="0" type="line"/>
      <point x="520" y="0" type="line"/>
    </contour>
    <contour>
      <point x="437" y="344" type="curve"/>
      <point x="520" y="307" type="line"/>
      <point x="520" y="356"/>
      <point x="546" y="381"/>
      <point x="592" y="381" type="curve" smooth="yes"/>
      <point x="637" y="381"/>
      <point x="655.0" y="352.0"/>
      <point x="655" y="307" type="curve" smooth="yes"/>
      <point x="655" y="0" type="line"/>
      <point x="820" y="0" type="line"/>
      <point x="820" y="324" type="line"/>
      <point x="820" y="453"/>
      <point x="749" y="531"/>
      <point x="639" y="531" type="curve" smooth="yes"/>
      <point x="530" y="531"/>
      <point x="437" y="447"/>
    </contour>
  </outline>
</glyph>
<glyph name="n" format="2">
  <advance width="610"/>
  <unicode hex="006E"/>
  <outline>
    <contour>
      <point x="53" y="0" type="line"/>
      <point x="218" y="0" type="line"/>
      <point x="218" y="537" type="line"/>
      <point x="53" y="537" type="line"/>
    </contour>
    <contour>
      <point x="149" y="364" type="curve"/>
      <point x="218" y="313" type="line"/>
      <point x="218" y="370"/>
      <point x="251" y="400"/>
      <point x="312" y="400.0" type="curve" smooth="yes"/>
      <point x="374" y="400"/>
      <point x="399" y="366"/>
      <point x="399" y="313" type="curve" smooth="yes"/>
      <point x="399" y="0" type="line"/>
      <point x="564" y="0" type="line"/>
      <point x="564" y="334" type="line" smooth="yes"/>
      <point x="564" y="469"/>
      <point x="481" y="551"/>
      <point x="361" y="551" type="curve" smooth="yes"/>
      <point x="242" y="551"/>
      <point x="149" y="467"/>
    </contour>
  </outline>
</glyph>
<glyph name="o" format="2">
  <advance width="620"/>
  <unicode hex="006F"/>
  <outline>
    <contour>
      <point x="310" y="134" type="curve" smooth="yes"/>
      <point x="381" y="134"/>
      <point x="430" y="190"/>
      <point x="430" y="269" type="curve" smooth="yes"/>
      <point x="430" y="348"/>
      <point x="381" y="403"/>
      <point x="310" y="403" type="curve" smooth="yes"/>
      <point x="239" y="403"/>
      <point x="190" y="348"/>
      <point x="190" y="269" type="curve" smooth="yes"/>
      <point x="190" y="190"/>
      <point x="239" y="134"/>
    </contour>
    <contour>
      <point x="310" y="-16" type="curve" smooth="yes"/>
      <point x="149" y="-16"/>
      <point x="27" y="106"/>
      <point x="27" y="269" type="curve" smooth="yes"/>
      <point x="27" y="433"/>
      <point x="149" y="553"/>
      <point x="310" y="553" type="curve" smooth="yes"/>
      <point x="472" y="553"/>
      <point x="593" y="433"/>
      <point x="593" y="269" type="curve" smooth="yes"/>
      <point x="593" y="106"/>
      <point x="472" y="-16"/>
    </contour>
  </outline>
</glyph>
<glyph name="p" format="2">
  <advance width="620"/>
  <unicode hex="0070"/>
  <outline>
    <contour>
      <point x="220.0" y="-160.0" type="line"/>
      <point x="55.0" y="-160.0" type="line"/>
      <point x="55.0" y="517.0" type="line"/>
      <point x="220.0" y="517.0" type="line"/>
      <point x="220.0" y="361.0" type="line"/>
      <point x="172.0" y="261.0" type="line"/>
      <point x="220.0" y="131.0" type="line"/>
    </contour>
    <contour>
      <point x="320.0" y="132.0" type="curve" smooth="yes"/>
      <point x="385.0" y="132.0"/>
      <point x="428.0" y="184.0"/>
      <point x="428.0" y="259.0" type="curve" smooth="yes"/>
      <point x="428.0" y="334.0"/>
      <point x="385.0" y="385.0"/>
      <point x="320.0" y="385.0" type="curve" smooth="yes"/>
      <point x="256.0" y="385.0"/>
      <point x="212.0" y="333.0"/>
      <point x="212.0" y="259.0" type="curve" smooth="yes"/>
      <point x="212.0" y="185.0"/>
      <point x="256.0" y="132.0"/>
    </contour>
    <contour>
      <point x="149.0" y="347.0" type="line"/>
      <point x="149.0" y="450.0"/>
      <point x="234.0" y="531.0"/>
      <point x="349.0" y="531.0" type="curve" smooth="yes"/>
      <point x="478.0" y="531.0"/>
      <point x="593.0" y="419.0"/>
      <point x="593.0" y="259.0" type="curve" smooth="yes"/>
      <point x="593.0" y="101.0"/>
      <point x="478.0" y="-14.0"/>
      <point x="348.0" y="-14.0" type="curve" smooth="yes"/>
      <point x="234.0" y="-14.0"/>
      <point x="149.0" y="70.0"/>
      <point x="149.0" y="173.0" type="curve"/>
    </contour>
  </outline>
</glyph>
<glyph name="q" format="2">
  <advance width="620"/>
  <unicode hex="0071"/>
  <outline>
    <contour>
      <point x="400" y="-160" type="line"/>
      <point x="400" y="131" type="line"/>
      <point x="448" y="261" type="line"/>
      <point x="400" y="361" type="line"/>
      <point x="400" y="517" type="line"/>
      <point x="565" y="517" type="line"/>
      <point x="565" y="-160" type="line"/>
    </contour>
    <contour>
      <point x="300" y="132" type="curve" smooth="yes"/>
      <point x="364" y="132"/>
      <point x="408" y="185"/>
      <point x="408" y="259" type="curve" smooth="yes"/>
      <point x="408" y="333"/>
      <point x="364" y="385"/>
      <point x="300" y="385" type="curve" smooth="yes"/>
      <point x="235" y="385"/>
      <point x="192" y="334"/>
      <point x="192" y="259" type="curve" smooth="yes"/>
      <point x="192" y="184"/>
      <point x="235" y="132"/>
    </contour>
    <contour>
      <point x="471" y="347" type="curve"/>
      <point x="471" y="173" type="line"/>
      <point x="471" y="70"/>
      <point x="386" y="-14"/>
      <point x="272" y="-14" type="curve" smooth="yes"/>
      <point x="142" y="-14"/>
      <point x="27" y="101"/>
      <point x="27" y="259" type="curve" smooth="yes"/>
      <point x="27" y="419"/>
      <point x="142" y="531"/>
      <point x="271" y="531" type="curve" smooth="yes"/>
      <point x="386" y="531"/>
      <point x="471" y="450"/>
    </contour>
  </outline>
</glyph>
<glyph name="r" format="2">
  <advance width="415"/>
  <unicode hex="0072"/>
  <outline>
    <contour>
      <point x="55" y="0" type="line"/>
      <point x="220" y="0" type="line"/>
      <point x="220" y="517" type="line"/>
      <point x="55" y="517" type="line"/>
    </contour>
    <contour>
      <point x="220" y="279" type="line"/>
      <point x="220" y="368"/>
      <point x="300" y="392"/>
      <point x="395" y="350" type="curve"/>
      <point x="395" y="521" type="line"/>
      <point x="261" y="554"/>
      <point x="151" y="449"/>
      <point x="151" y="336" type="curve"/>
    </contour>
  </outline>
</glyph>
<glyph name="s" format="2">
  <advance width="495"/>
  <unicode hex="0073"/>
  <outline>
    <contour>
      <point x="470" y="163" type="curve" smooth="yes"/>
      <point x="470" y="-3"/>
      <point x="271" y="-52"/>
      <point x="48" y="15" type="curve"/>
      <point x="48" y="185" type="line"/>
      <point x="145" y="111"/>
      <point x="309" y="107"/>
      <point x="309" y="161" type="curve" smooth="yes"/>
      <point x="309" y="223"/>
      <point x="39" y="181"/>
      <point x="39" y="374" type="curve" smooth="yes"/>
      <point x="39" y="524"/>
      <point x="218" y="591"/>
      <point x="441" y="524" type="curve"/>
      <point x="441" y="354" type="line"/>
      <point x="343" y="432"/>
      <point x="202" y="426"/>
      <point x="202" y="379" type="curve" smooth="yes"/>
      <point x="202" y="317"/>
      <point x="470" y="361"/>
    </contour>
  </outline>
</glyph>
<glyph name="t" format="2">
  <advance width="393"/>
  <unicode hex="0074"/>
  <anchor x="0" y="657" name="top"/>
  <anchor x="198" y="0" name="center"/>
  <anchor x="0" y="0" name="bottom"/>
  <anchor x="0" y="617" name="top_caron"/>
  <anchor x="274" y="517" name="right"/>
  <outline>
    <contour>
      <point x="109" y="0" type="line"/>
      <point x="274" y="0" type="line"/>
      <point x="274" y="655.0" type="line"/>
      <point x="109" y="655.0" type="line"/>
    </contour>
    <contour>
      <point x="28" y="369" type="line"/>
      <point x="368" y="369" type="line"/>
      <point x="368" y="517" type="line"/>
      <point x="28" y="517" type="line"/>
    </contour>
  </outline>
</glyph>
<glyph name="u" format="2">
  <advance width="608"/>
  <unicode hex="0075"/>
  <outline>
    <contour>
      <point x="555" y="540" type="line"/>
      <point x="390" y="540" type="line"/>
      <point x="390" y="0" type="line"/>
      <point x="555" y="0" type="line"/>
    </contour>
    <contour>
      <point x="439" y="176" type="curve"/>
      <point x="390" y="227" type="line"/>
      <point x="390" y="170"/>
      <point x="357" y="140"/>
      <point x="295" y="140" type="curve" smooth="yes"/>
      <point x="234" y="140"/>
      <point x="209" y="174"/>
      <point x="209" y="227" type="curve" smooth="yes"/>
      <point x="209" y="540" type="line"/>
      <point x="44" y="540" type="line"/>
      <point x="44" y="206" type="line" smooth="yes"/>
      <point x="44" y="71"/>
      <point x="117" y="-11"/>
      <point x="246" y="-11" type="curve" smooth="yes"/>
      <point x="356" y="-11"/>
      <point x="439" y="73"/>
    </contour>
  </outline>
</glyph>
<glyph name="v" format="2">
  <advance width="560"/>
  <unicode hex="0076"/>
  <outline>
    <contour>
      <point x="184" y="0" type="line"/>
      <point x="337" y="0" type="line"/>
      <point x="171" y="540" type="line"/>
      <point x="-5" y="540" type="line"/>
    </contour>
    <contour>
      <point x="376" y="0" type="line"/>
      <point x="565" y="540" type="line"/>
      <point x="392" y="540" type="line"/>
      <point x="228" y="0" type="line"/>
    </contour>
  </outline>
</glyph>
<glyph name="w" format="2">
  <advance width="831"/>
  <unicode hex="0077"/>
  <outline>
    <contour>
      <point x="183" y="0" type="line"/>
      <point x="335" y="0" type="line"/>
      <point x="177" y="537" type="line"/>
      <point x="7" y="537" type="line"/>
    </contour>
    <contour>
      <point x="345" y="0" type="line"/>
      <point x="488" y="537" type="line"/>
      <point x="345" y="537" type="line"/>
      <point x="214" y="0" type="line"/>
    </contour>
    <contour>
      <point x="648" y="0" type="line"/>
      <point x="824" y="537" type="line"/>
      <point x="657" y="537" type="line"/>
      <point x="499" y="0" type="line"/>
    </contour>
    <contour>
      <point x="486" y="0" type="line"/>
      <point x="620" y="0" type="line"/>
      <point x="489" y="537" type="line"/>
      <point x="345" y="537" type="line"/>
    </contour>
  </outline>
</glyph>
<glyph name="x" format="2">
  <advance width="560"/>
  <unicode hex="0078"/>
  <outline>
    <contour>
      <point x="13" y="540" type="line"/>
      <point x="213" y="229" type="line"/>
      <point x="239" y="215" type="line"/>
      <point x="371" y="0" type="line"/>
      <point x="555" y="0" type="line"/>
      <point x="354" y="320" type="line"/>
      <point x="327" y="336" type="line"/>
      <point x="197" y="540" type="line"/>
    </contour>
    <contour>
      <point x="549" y="540" type="line"/>
      <point x="367" y="540" type="line"/>
      <point x="237" y="336" type="line"/>
      <point x="209" y="320" type="line"/>
      <point x="5" y="0" type="line"/>
      <point x="187" y="0" type="line"/>
      <point x="321" y="215" type="line"/>
      <point x="347" y="229" type="line"/>
    </contour>
  </outline>
</glyph>
<glyph name="y" format="2">
  <advance width="570"/>
  <unicode hex="0079"/>
  <outline>
    <contour>
      <point x="118" y="-160" type="line"/>
      <point x="291" y="-160" type="line"/>
      <point x="570" y="540" type="line"/>
      <point x="396" y="540" type="line"/>
      <point x="254" y="140" type="line"/>
      <point x="223" y="108" type="line"/>
    </contour>
    <contour>
      <point x="358" y="81" type="line"/>
      <point x="176" y="540" type="line"/>
      <point x="0" y="540" type="line"/>
      <point x="227" y="0" type="line"/>
    </contour>
  </outline>
</glyph>
<glyph name="z" format="2">
  <advance width="500"/>
  <unicode hex="007A"/>
  <outline>
    <contour>
      <point x="35" y="395" type="line"/>
      <point x="465" y="395" type="line"/>
      <point x="465" y="540" type="line"/>
      <point x="35" y="540" type="line"/>
    </contour>
    <contour>
      <point x="35" y="0" type="line"/>
      <point x="465" y="0" type="line"/>
      <point x="465" y="145" type="line"/>
      <point x="35" y="145" type="line"/>
    </contour>
    <contour>
      <point x="465" y="395" type="line"/>
      <point x="263" y="395" type="line"/>
      <point x="35" y="145" type="line"/>
      <point x="237" y="145" type="line"/>
    </contour>
  </outline>
</glyph>
<glyph name="bar" format="2">
  <advance width="315"/>
  <unicode hex="007C"/>
  <outline>
    <contour>
      <point x="240" y="-160" type="line"/>
      <point x="240" y="770" type="line"/>
      <point x="75" y="770" type="line"/>
      <point x="75" y="-160" type="line"/>
    </contour>
  </outline>
</glyph>
<glyph name="asciitilde" format="2">
  <advance width="525"/>
  <unicode hex="007E"/>
  <outline>
    <contour>
      <point x="520.0" y="455" type="line"/>
      <point x="453.0" y="389"/>
      <point x="420.0" y="370"/>
      <point x="380.0" y="370" type="curve" smooth="yes"/>
      <point x="308.0" y="370"/>
      <point x="284.0" y="449"/>
      <point x="186.0" y="449" type="curve" smooth="yes"/>
      <point x="130.0" y="449"/>
      <point x="86.0" y="412"/>
      <point x="45.0" y="363" type="curve"/>
      <point x="45.0" y="188.0" type="line"/>
      <point x="112.0" y="254.0"/>
      <point x="145.0" y="273.0"/>
      <point x="185.0" y="273.0" type="curve" smooth="yes"/>
      <point x="257.0" y="273.0"/>
      <point x="281.0" y="194.0"/>
      <point x="379.0" y="194.0" type="curve" smooth="yes"/>
      <point x="435.0" y="194.0"/>
      <point x="479.0" y="231.0"/>
      <point x="520.0" y="280.0" type="curve"/>
    </contour>
  </outline>
</glyph>
<glyph name="exclamdown" format="2">
  <advance width="291"/>
  <unicode hex="00A1"/>
  <outline>
    <contour>
      <point x="145.0" y="596.0" type="curve" smooth="yes"/>
      <point x="88.0" y="596.0"/>
      <point x="40.0" y="549.0"/>
      <point x="40.0" y="492.0" type="curve" smooth="yes"/>
      <point x="40.0" y="436.0"/>
      <point x="88.0" y="389.0"/>
      <point x="145.0" y="389.0" type="curve" smooth="yes"/>
      <point x="204.0" y="389.0"/>
      <point x="251.0" y="436.0"/>
      <point x="251.0" y="492.0" type="curve" smooth="yes"/>
      <point x="251.0" y="549.0"/>
      <point x="204.0" y="596.0"/>
    </contour>
    <contour>
      <point x="228.0" y="335.0" type="line"/>
      <point x="63.0" y="335.0" type="line"/>
      <point x="58.0" y="-100.0" type="line"/>
      <point x="233.0" y="-100.0" type="line"/>
    </contour>
  </outline>
</glyph>
<glyph name="cent" format="2">
  <advance width="475"/>
  <unicode hex="00A2"/>
  <outline>
    <contour>
      <point x="199" y="500.0" type="line"/>
      <point x="210" y="680.0" type="line"/>
      <point x="355" y="680.0" type="line"/>
      <point x="344" y="500.0" type="line"/>
    </contour>
    <contour>
      <point x="168" y="-50.0" type="line"/>
      <point x="177" y="100.0" type="line"/>
      <point x="322" y="100.0" type="line"/>
      <point x="313" y="-50.0" type="line"/>
    </contour>
    <contour>
      <point x="27" y="314" type="curve" smooth="yes"/>
      <point x="27" y="506"/>
      <point x="206" y="617"/>
      <point x="428" y="550" type="curve"/>
      <point x="428" y="396" type="line"/>
      <point x="312" y="451"/>
      <point x="196" y="424"/>
      <point x="196" y="314" type="curve" smooth="yes"/>
      <point x="196" y="204"/>
      <point x="312" y="177"/>
      <point x="428" y="232" type="curve"/>
      <point x="428" y="78" type="line"/>
      <point x="206" y="11"/>
      <point x="27" y="122"/>
    </contour>
  </outline>
</glyph>
<glyph name="dieresis" format="2">
  <advance width="577"/>
  <unicode hex="00A8"/>
  <anchor x="0" y="517" name="top"/>
  <anchor x="288" y="517" name="center"/>
  <outline>
    <contour>
      <point x="164" y="576" type="curve" smooth="yes"/>
      <point x="220" y="576"/>
      <point x="267" y="622"/>
      <point x="267" y="678" type="curve" smooth="yes"/>
      <point x="267" y="733"/>
      <point x="220" y="779"/>
      <point x="164" y="779" type="curve" smooth="yes"/>
      <point x="106" y="779"/>
      <point x="60" y="733"/>
      <point x="60" y="678" type="curve" smooth="yes"/>
      <point x="60" y="622"/>
      <point x="106" y="576"/>
    </contour>
    <contour>
      <point x="414" y="576" type="curve" smooth="yes"/>
      <point x="470" y="576"/>
      <point x="517" y="622"/>
      <point x="517" y="678" type="curve" smooth="yes"/>
      <point x="517" y="733"/>
      <point x="470" y="779"/>
      <point x="414" y="779" type="curve" smooth="yes"/>
      <point x="356" y="779"/>
      <point x="310" y="733"/>
      <point x="310" y="678" type="curve" smooth="yes"/>
      <point x="310" y="622"/>
      <point x="356" y="576"/>
    </contour>
  </outline>
</glyph>
<glyph name="ordfeminine" format="2">
  <advance width="535"/>
  <unicode hex="00AA"/>
  <outline>
    <contour>
      <point x="350" y="245" type="line"/>
      <point x="350" y="356" type="line"/>
      <point x="391" y="465" type="line"/>
      <point x="350" y="549" type="line"/>
      <point x="350" y="680" type="line"/>
      <point x="489" y="680" type="line"/>
      <point x="489" y="245" type="line"/>
    </contour>
    <contour>
      <point x="264" y="360" type="curve" smooth="yes"/>
      <point x="318" y="360"/>
      <point x="354" y="401"/>
      <point x="354" y="463" type="curve" smooth="yes"/>
      <point x="354" y="525"/>
      <point x="318" y="565"/>
      <point x="264" y="565" type="curve" smooth="yes"/>
      <point x="210" y="565"/>
      <point x="175" y="526"/>
      <point x="175" y="463" type="curve" smooth="yes"/>
      <point x="175" y="401"/>
      <point x="210" y="360"/>
    </contour>
    <contour>
      <point x="407" y="537" type="curve"/>
      <point x="407" y="391" type="line"/>
      <point x="407" y="304"/>
      <point x="337" y="234"/>
      <point x="246" y="234" type="curve" smooth="yes"/>
      <point x="132" y="234"/>
      <point x="36" y="327"/>
      <point x="36" y="463" type="curve" smooth="yes"/>
      <point x="36" y="601"/>
      <point x="132" y="692"/>
      <point x="245" y="692" type="curve" smooth="yes"/>
      <point x="337" y="692"/>
      <point x="407" y="624"/>
    </contour>
  </outline>
</glyph>
<glyph name="logicalnot" format="2">
  <advance width="490"/>
  <unicode hex="00AC"/>
  <outline>
    <contour>
      <point x="40" y="311" type="line"/>
      <point x="450" y="311" type="line"/>
      <point x="450" y="466" type="line"/>
      <point x="40" y="466" type="line"/>
    </contour>
    <contour>
      <point x="450.0" y="154.0" type="line"/>
      <point x="450.0" y="466.0" type="line"/>
      <point x="291.0" y="466.0" type="line"/>
      <point x="291.0" y="154.0" type="line"/>
    </contour>
  </outline>
</glyph>
<glyph name="registered" format="2">
  <advance width="614"/>
  <unicode hex="00AE"/>
  <outline>
    <contour>
      <point x="209" y="322" type="line"/>
      <point x="287" y="322" type="line"/>
      <point x="287" y="574" type="line"/>
      <point x="209" y="574" type="line"/>
    </contour>
    <contour>
      <point x="354" y="322" type="line"/>
      <point x="442" y="322" type="line"/>
      <point x="371" y="430" type="line"/>
      <point x="283" y="435" type="line"/>
    </contour>
    <contour>
      <point x="271" y="386" type="line"/>
      <point x="313" y="386" type="line" smooth="yes"/>
      <point x="371.7608695652174" y="386"/>
      <point x="415.0" y="423.0"/>
      <point x="415" y="479" type="curve" smooth="yes"/>
      <point x="415.0" y="535.0"/>
      <point x="372.0204081632653" y="574"/>
      <point x="307" y="574" type="curve" smooth="yes"/>
      <point x="271" y="574" type="line"/>
      <point x="271" y="505" type="line"/>
      <point x="309" y="505" type="line" smooth="yes"/>
      <point x="326.0" y="505"/>
      <point x="337.0" y="493.12"/>
      <point x="337" y="478" type="curve" smooth="yes"/>
      <point x="337.0" y="463.9166666666667"/>
      <point x="327.0" y="452"/>
      <point x="313" y="452" type="curve" smooth="yes"/>
      <point x="271" y="452" type="line"/>
    </contour>
    <contour>
      <point x="307" y="238" type="curve" smooth="yes"/>
      <point x="423.78125" y="238.0"/>
      <point x="509.0" y="325.0"/>
      <point x="509" y="443" type="curve" smooth="yes"/>
      <point x="509.0" y="561.0"/>
      <point x="423.78125" y="648.0"/>
      <point x="307" y="648" type="curve" smooth="yes"/>
      <point x="189.16666666666666" y="648.0"/>
      <point x="105.0" y="561.0"/>
      <point x="105" y="443" type="curve" smooth="yes"/>
      <point x="105.0" y="325.2564102564103"/>
      <point x="189.0" y="238.0"/>
    </contour>
    <contour>
      <point x="307" y="186" type="curve" smooth="yes"/>
      <point x="158" y="186"/>
      <point x="50" y="294"/>
      <point x="50" y="443" type="curve" smooth="yes"/>
      <point x="50" y="592"/>
      <point x="158" y="700"/>
      <point x="307" y="700" type="curve" smooth="yes"/>
      <point x="456" y="700"/>
      <point x="564" y="592"/>
      <point x="564" y="443" type="curve" smooth="yes"/>
      <point x="564" y="294"/>
      <point x="456" y="186"/>
    </contour>
  </outline>
</glyph>
<glyph name="macron" format="2">
  <advance width="490"/>
  <unicode hex="00AF"/>
  <outline>
    <contour>
      <point x="60" y="595" type="line"/>
      <point x="430" y="595" type="line"/>
      <point x="430" y="740" type="line"/>
      <point x="60" y="740" type="line"/>
    </contour>
  </outline>
</glyph>
<glyph name="threesuperior" format="2">
  <advance width="419"/>
  <unicode hex="00B3"/>
  <outline>
    <contour>
      <point x="72" y="573" type="line"/>
      <point x="354" y="573" type="line"/>
      <point x="354" y="680" type="line"/>
      <point x="72" y="680" type="line"/>
    </contour>
    <contour>
      <point x="167" y="460" type="line"/>
      <point x="354" y="573" type="line"/>
      <point x="344" y="669" type="line"/>
      <point x="96" y="511" type="line"/>
    </contour>
    <contour>
      <point x="96" y="511" type="curve"/>
      <point x="96" y="440" type="line"/>
      <point x="212" y="444"/>
      <point x="248" y="434"/>
      <point x="248" y="406" type="curve" smooth="yes"/>
      <point x="248" y="376"/>
      <point x="201" y="365"/>
      <point x="70" y="396" type="curve"/>
      <point x="70" y="284" type="line"/>
      <point x="221" y="243"/>
      <point x="374" y="275"/>
      <point x="374" y="397" type="curve" smooth="yes"/>
      <point x="374" y="507"/>
      <point x="264" y="551"/>
    </contour>
  </outline>
</glyph>
<glyph name="acute" format="2">
  <advance width="408"/>
  <unicode hex="00B4"/>
  <outline>
    <contour>
      <point x="60" y="584" type="line"/>
      <point x="169" y="790" type="line"/>
      <point x="348" y="790" type="line"/>
      <point x="214" y="584" type="line"/>
    </contour>
  </outline>
</glyph>
<glyph name="cedilla" format="2">
  <advance width="416"/>
  <unicode hex="00B8"/>
  <anchor x="0" y="0" name="bottom"/>
  <anchor x="208" y="0" name="center"/>
  <outline>
    <contour>
      <point x="239" y="-23" type="curve"/>
      <point x="238" y="38" type="line"/>
      <point x="131" y="38" type="line"/>
      <point x="128" y="-101" type="line"/>
      <point x="198.80883457078608" y="-96.46097214289833"/>
      <point x="226.0" y="-105.0"/>
      <point x="226" y="-127" type="curve" smooth="yes"/>
      <point x="226.0" y="-155.0"/>
      <point x="167.3572367007311" y="-162.2469084895475"/>
      <point x="70" y="-132" type="curve"/>
      <point x="70" y="-235" type="line"/>
      <point x="234.5194987015375" y="-282.4203260963255"/>
      <point x="346.0" y="-240.0"/>
      <point x="346" y="-136" type="curve" smooth="yes"/>
      <point x="346.0" y="-72.0"/>
      <point x="301.62703884203955" y="-40.498731441158114"/>
    </contour>
  </outline>
</glyph>
<glyph name="onesuperior" format="2">
  <advance width="338"/>
  <unicode hex="00B9"/>
  <outline>
    <contour>
      <point x="122" y="636" type="line"/>
      <point x="122" y="271" type="line"/>
      <point x="257" y="271" type="line"/>
      <point x="257" y="693" type="line"/>
      <point x="40" y="655" type="line"/>
      <point x="40" y="543" type="line"/>
      <point x="257" y="581" type="line"/>
    </contour>
  </outline>
</glyph>
<glyph name="ordmasculine" format="2">
  <advance width="532"/>
  <unicode hex="00BA"/>
  <outline>
    <contour>
      <point x="266" y="361" type="curve" smooth="yes"/>
      <point x="321.0" y="361.0"/>
      <point x="357.0" y="403.33962264150944"/>
      <point x="357" y="463" type="curve" smooth="yes"/>
      <point x="357.0" y="523.622641509434"/>
      <point x="321.0" y="565.0"/>
      <point x="266" y="565" type="curve" smooth="yes"/>
      <point x="211.0" y="565.0"/>
      <point x="175.0" y="523.622641509434"/>
      <point x="175" y="463" type="curve" smooth="yes"/>
      <point x="175.0" y="403.33962264150944"/>
      <point x="211.0" y="361.0"/>
    </contour>
    <contour>
      <point x="266" y="232" type="curve" smooth="yes"/>
      <point x="134" y="232"/>
      <point x="36" y="331"/>
      <point x="36" y="463" type="curve" smooth="yes"/>
      <point x="36" y="596"/>
      <point x="134" y="694.0"/>
      <point x="266" y="694.0" type="curve" smooth="yes"/>
      <point x="397" y="694.0"/>
      <point x="496" y="596"/>
      <point x="496" y="463" type="curve" smooth="yes"/>
      <point x="496" y="331"/>
      <point x="397" y="232"/>
    </contour>
  </outline>
</glyph>
<glyph name="guillemetright" format="2">
  <advance width="727"/>
  <unicode hex="00BB"/>
  <outline>
    <contour>
      <point x="687" y="354" type="line"/>
      <point x="400" y="540" type="line"/>
      <point x="400" y="354" type="line"/>
      <point x="687" y="177" type="line"/>
    </contour>
    <contour>
      <point x="687" y="167" type="line"/>
      <point x="687" y="339" type="line"/>
      <point x="400" y="164" type="line"/>
      <point x="400" y="-19" type="line"/>
    </contour>
    <contour>
      <point x="347" y="354" type="line"/>
      <point x="60" y="540" type="line"/>
      <point x="60" y="354" type="line"/>
      <point x="347" y="177" type="line"/>
    </contour>
    <contour>
      <point x="347" y="167" type="line"/>
      <point x="347" y="339" type="line"/>
      <point x="60" y="164" type="line"/>
      <point x="60" y="-19" type="line"/>
    </contour>
  </outline>
</glyph>
<glyph name="questiondown" format="2">
  <advance width="511"/>
  <unicode hex="00BF"/>
  <outline>
    <contour>
      <point x="285" y="596" type="curve" smooth="yes"/>
      <point x="228" y="596"/>
      <point x="180" y="549"/>
      <point x="180" y="492" type="curve" smooth="yes"/>
      <point x="180" y="436"/>
      <point x="228" y="389"/>
      <point x="285" y="389" type="curve" smooth="yes"/>
      <point x="344" y="389"/>
      <point x="391" y="436"/>
      <point x="391" y="492" type="curve" smooth="yes"/>
      <point x="391" y="549"/>
      <point x="344" y="596"/>
    </contour>
    <contour>
      <point x="202" y="281" type="line"/>
      <point x="97" y="250"/>
      <point x="22" y="193"/>
      <point x="22" y="87" type="curve" smooth="yes"/>
      <point x="22" y="-83"/>
      <point x="208" y="-151"/>
      <point x="476" y="-83" type="curve"/>
      <point x="476" y="86" type="line"/>
      <point x="340" y="32"/>
      <point x="191" y="44"/>
      <point x="191" y="106" type="curve" smooth="yes"/>
      <point x="191" y="142"/>
      <point x="244" y="159"/>
      <point x="372" y="170" type="curve"/>
      <point x="368" y="335" type="line"/>
      <point x="203" y="335" type="line"/>
    </contour>
  </outline>
</glyph>
<glyph name="AE" format="2">
  <advance width="883"/>
  <unicode hex="00C6"/>
  <anchor x="504.0" y="0" name="below"/>
  <anchor x="504.0" y="680.0" name="above"/>
  <outline>
    <contour>
      <point x="0" y="0" type="line"/>
      <point x="180" y="0" type="line"/>
      <point x="491" y="680" type="line"/>
      <point x="319" y="680" type="line"/>
    </contour>
    <contour>
      <point x="156" y="129" type="line"/>
      <point x="519" y="129" type="line"/>
      <point x="519" y="278" type="line"/>
      <point x="156" y="278" type="line"/>
    </contour>
    <contour>
      <point x="420" y="0" type="line"/>
      <point x="595" y="0" type="line"/>
      <point x="595" y="680" type="line"/>
      <point x="420" y="680" type="line"/>
    </contour>
    <contour>
      <point x="505" y="274" type="line"/>
      <point x="808" y="274" type="line"/>
      <point x="808" y="425" type="line"/>
      <point x="505" y="425" type="line"/>
    </contour>
    <contour>
      <point x="525" y="524" type="line"/>
      <point x="828" y="524" type="line"/>
      <point x="828" y="680" type="line"/>
      <point x="525" y="680" type="line"/>
    </contour>
    <contour>
      <point x="505" y="0" type="line"/>
      <point x="828" y="0" type="line"/>
      <point x="828" y="156" type="line"/>
      <point x="505" y="156" type="line"/>
    </contour>
  </outline>
</glyph>
<glyph name="multiply" format="2">
  <advance width="535"/>
  <unicode hex="00D7"/>
  <outline>
    <contour>
      <point x="150" y="81" type="line"/>
      <point x="495" y="426" type="line"/>
      <point x="385" y="536" type="line"/>
      <point x="40" y="191" type="line"/>
    </contour>
    <contour>
      <point x="385" y="81" type="line"/>
      <point x="495" y="191" type="line"/>
      <point x="150" y="536" type="line"/>
      <point x="40" y="426" type="line"/>
    </contour>
  </outline>
</glyph>
<glyph name="Oslash" format="2">
  <advance width="736"/>
  <unicode hex="00D8"/>
  <outline>
    <contour>
      <point x="368" y="145" type="curve" smooth="yes"/>
      <point x="465.0" y="145.0"/>
      <point x="526.0" y="225.0"/>
      <point x="526" y="341" type="curve" smooth="yes"/>
      <point x="526.0" y="457.0"/>
      <point x="465.0" y="534.0"/>
      <point x="368" y="534" type="curve" smooth="yes"/>
      <point x="271.0" y="534.0"/>
      <point x="210.0" y="456.0"/>
      <point x="210" y="341" type="curve" smooth="yes"/>
      <point x="210.0" y="225.0"/>
      <point x="271.0" y="145.0"/>
    </contour>
    <contour>
      <point x="368" y="696" type="curve" smooth="yes"/>
      <point x="563" y="696"/>
      <point x="705" y="545"/>
      <point x="705" y="339" type="curve" smooth="yes"/>
      <point x="705" y="134"/>
      <point x="563" y="-16"/>
      <point x="368" y="-16" type="curve" smooth="yes"/>
      <point x="172" y="-16"/>
      <point x="31" y="134"/>
      <point x="31" y="339" type="curve" smooth="yes"/>
      <point x="31" y="545"/>
      <point x="172" y="696"/>
    </contour>
    <contour>
      <point x="79" y="-24" type="line"/>
      <point x="166" y="136" type="line"/>
      <point x="184" y="162" type="line"/>
      <point x="427" y="608" type="line"/>
      <point x="433" y="627" type="line"/>
      <point x="517" y="781" type="line"/>
      <point x="657" y="704" type="line"/>
      <point x="558" y="522" type="line"/>
      <point x="547" y="509" type="line"/>
      <point x="319" y="90" type="line"/>
      <point x="313" y="72" type="line"/>
      <point x="219" y="-101" type="line"/>
    </contour>
  </outline>
</glyph>
<glyph name="germandbls" format="2">
  <advance width="594"/>
  <unicode hex="00DF"/>
  <outline>
    <contour>
      <point x="270.0" y="425.0" type="line"/>
      <point x="462.0" y="464"/>
      <point x="574.0" y="363.50961538461536"/>
      <point x="574.0" y="217.0721153846154" type="curve" smooth="yes"/>
      <point x="574.0" y="74.7307692307692"/>
      <point x="479.0" y="-25.624999999999996"/>
      <point x="270.0" y="1.0" type="curve"/>
      <point x="270" y="156" type="line"/>
      <point x="366" y="140"/>
      <point x="408" y="175"/>
      <point x="408.0" y="222" type="curve" smooth="yes"/>
      <point x="408" y="271"/>
      <point x="363" y="299"/>
      <point x="270" y="304" type="curve"/>
      <point x="270" y="444" type="line"/>
      <point x="327" y="454"/>
      <point x="356.0" y="480.0"/>
      <point x="356.0" y="523" type="curve" smooth="yes"/>
      <point x="356.0" y="566.0"/>
      <point x="328" y="593.0"/>
      <point x="288" y="593" type="curve" smooth="yes"/>
      <point x="248" y="593.0"/>
      <point x="220.0" y="564.0"/>
      <point x="220" y="513" type="curve" smooth="yes"/>
      <point x="220" y="0" type="line"/>
      <point x="55" y="0" type="line"/>
      <point x="55" y="515" type="line" smooth="yes"/>
      <point x="55" y="651.0"/>
      <point x="146" y="742.0"/>
      <point x="294" y="742.0" type="curve" smooth="yes"/>
      <point x="427" y="742.0"/>
      <point x="519.0" y="658.0"/>
      <point x="519" y="540" type="curve" smooth="yes"/>
      <point x="519.0" y="423.0"/>
      <point x="422" y="343.0"/>
      <point x="288" y="343" type="curve"/>
    </contour>
  </outline>
</glyph>
<glyph name="ae" format="2">
  <advance width="956"/>
  <unicode hex="00E6"/>
  <outline>
    <contour>
      <point x="400" y="0" type="line"/>
      <point x="400" y="131" type="line"/>
      <point x="448" y="261" type="line"/>
      <point x="400" y="361" type="line"/>
      <point x="400" y="517" type="line"/>
      <point x="565" y="517" type="line"/>
      <point x="565" y="0" type="line"/>
    </contour>
    <contour>
      <point x="298" y="132" type="curve" smooth="yes"/>
      <point x="362" y="132"/>
      <point x="404" y="183"/>
      <point x="404" y="259" type="curve" smooth="yes"/>
      <point x="404" y="335"/>
      <point x="362" y="385"/>
      <point x="298" y="385" type="curve" smooth="yes"/>
      <point x="233" y="385"/>
      <point x="192" y="336"/>
      <point x="192" y="259" type="curve" smooth="yes"/>
      <point x="192" y="182"/>
      <point x="233" y="132"/>
    </contour>
    <contour>
      <point x="468" y="347" type="curve"/>
      <point x="468" y="173" type="line"/>
      <point x="468" y="70"/>
      <point x="384" y="-14"/>
      <point x="276" y="-14" type="curve" smooth="yes"/>
      <point x="141" y="-14"/>
      <point x="27" y="97"/>
      <point x="27" y="259" type="curve" smooth="yes"/>
      <point x="27" y="423"/>
      <point x="141" y="531"/>
      <point x="275" y="531" type="curve" smooth="yes"/>
      <point x="384" y="531"/>
      <point x="468" y="450"/>
    </contour>
    <contour>
      <point x="714" y="-14" type="curve" smooth="yes"/>
      <point x="585" y="-14"/>
      <point x="494" y="70"/>
      <point x="494" y="173" type="curve"/>
      <point x="494" y="347" type="line"/>
      <point x="494" y="450"/>
      <point x="578" y="531"/>
      <point x="687" y="531" type="curve" smooth="yes"/>
      <point x="859.0" y="531.0"/>
      <point x="957" y="383"/>
      <point x="922" y="198" type="curve"/>
      <point x="522" y="198" type="line"/>
      <point x="522" y="320" type="line"/>
      <point x="843" y="320" type="line"/>
      <point x="782" y="256" type="line"/>
      <point x="782" y="346"/>
      <point x="740" y="385"/>
      <point x="683" y="385" type="curve" smooth="yes"/>
      <point x="627" y="385"/>
      <point x="581" y="342"/>
      <point x="581" y="252" type="curve" smooth="yes"/>
      <point x="581" y="128"/>
      <point x="724" y="102"/>
      <point x="893" y="166" type="curve"/>
      <point x="893" y="24" type="line"/>
      <point x="833" y="-2"/>
      <point x="771" y="-14"/>
    </contour>
  </outline>
</glyph>
<glyph name="eth" format="2">
  <advance width="575"/>
  <unicode hex="00F0"/>
  <outline>
    <contour>
      <point x="288" y="133" type="curve" smooth="yes"/>
      <point x="231.0" y="133.0"/>
      <point x="192.0" y="177.4466019417476"/>
      <point x="192" y="242" type="curve" smooth="yes"/>
      <point x="192.0" y="307.196261682243"/>
      <point x="231.0" y="351.0"/>
      <point x="288" y="351" type="curve" smooth="yes"/>
      <point x="344.0" y="351.0"/>
      <point x="382.0" y="308.1923076923077"/>
      <point x="382" y="245" type="curve" smooth="yes"/>
      <point x="382.0" y="178.43396226415095"/>
      <point x="344.0" y="133.0"/>
    </contour>
    <contour>
      <point x="149.0" y="506.0" type="line"/>
      <point x="501.0" y="615.0" type="line"/>
      <point x="468.0" y="727.0" type="line"/>
      <point x="116.0" y="618.0" type="line"/>
    </contour>
    <contour>
      <point x="136" y="730" type="line"/>
      <point x="207.57890941047134" y="665.284821628889"/>
      <point x="318.17251306950936" y="529.5783013856438"/>
      <point x="345" y="464" type="curve"/>
      <point x="243.78236133256507" y="520.1206709443204"/>
      <point x="27.0" y="466.01826484018267"/>
      <point x="27" y="243" type="curve" smooth="yes"/>
      <point x="27.0" y="93.53754940711462"/>
      <point x="126.0" y="-16.0"/>
      <point x="276" y="-16" type="curve" smooth="yes"/>
      <point x="431.0" y="-16.0"/>
      <point x="548.0" y="90.0"/>
      <point x="548" y="289" type="curve" smooth="yes"/>
      <point x="548.0" y="469.0"/>
      <point x="444.21836261110656" y="613.8238880585634"/>
      <point x="334" y="730" type="curve"/>
    </contour>
  </outline>
</glyph>
<glyph name="divide" format="2">
  <advance width="540"/>
  <unicode hex="00F7"/>
  <outline>
    <contour>
      <point x="40" y="231" type="line"/>
      <point x="500" y="231" type="line"/>
      <point x="500" y="386" type="line"/>
      <point x="40" y="386" type="line"/>
    </contour>
    <contour>
      <point x="271.0" y="405.0" type="curve" smooth="yes"/>
      <point x="324" y="405.0"/>
      <point x="369" y="449"/>
      <point x="369" y="502" type="curve" smooth="yes"/>
      <point x="369" y="554"/>
      <point x="324" y="598"/>
      <point x="271.0" y="598" type="curve" smooth="yes"/>
      <point x="216" y="598"/>
      <point x="172" y="554"/>
      <point x="172" y="502" type="curve" smooth="yes"/>
      <point x="172" y="449"/>
      <point x="216" y="405.0"/>
    </contour>
    <contour>
      <point x="271.0" y="212.0" type="curve" smooth="yes"/>
      <point x="216" y="212.0"/>
      <point x="172" y="168"/>
      <point x="172" y="115" type="curve" smooth="yes"/>
      <point x="172" y="63"/>
      <point x="216" y="19"/>
      <point x="271.0" y="19" type="curve" smooth="yes"/>
      <point x="324" y="19"/>
      <point x="369" y="63"/>
      <point x="369" y="115" type="curve" smooth="yes"/>
      <point x="369" y="168"/>
      <point x="324" y="212.0"/>
    </contour>
  </outline>
</glyph>
<glyph name="oslash" format="2">
  <advance width="600"/>
  <unicode hex="00F8"/>
  <outline>
    <contour>
      <point x="66" y="-20" type="line"/>
      <point x="136" y="102" type="line"/>
      <point x="151" y="122" type="line"/>
      <point x="348" y="463" type="line"/>
      <point x="353" y="478" type="line"/>
      <point x="421" y="595" type="line"/>
      <point x="534" y="537" type="line"/>
      <point x="454" y="397" type="line"/>
      <point x="445" y="387" type="line"/>
      <point x="260" y="67" type="line"/>
      <point x="256" y="53" type="line"/>
      <point x="179" y="-79" type="line"/>
    </contour>
    <contour>
      <point x="300" y="133" type="curve" smooth="yes"/>
      <point x="365" y="133"/>
      <point x="408" y="185"/>
      <point x="408" y="259" type="curve" smooth="yes"/>
      <point x="408" y="333"/>
      <point x="365" y="384"/>
      <point x="300" y="384" type="curve" smooth="yes"/>
      <point x="235" y="384"/>
      <point x="192" y="333"/>
      <point x="192" y="259" type="curve" smooth="yes"/>
      <point x="192" y="185"/>
      <point x="235" y="133"/>
    </contour>
    <contour>
      <point x="300" y="-16" type="curve" smooth="yes"/>
      <point x="144" y="-16"/>
      <point x="27" y="102"/>
      <point x="27" y="259" type="curve" smooth="yes"/>
      <point x="27" y="417"/>
      <point x="144" y="533"/>
      <point x="300" y="533" type="curve" smooth="yes"/>
      <point x="456" y="533"/>
      <point x="573" y="417"/>
      <point x="573" y="259" type="curve" smooth="yes"/>
      <point x="573" y="102"/>
      <point x="456" y="-16"/>
    </contour>
  </outline>
</glyph>
<glyph name="dcroat" format="2">
  <advance width="625"/>
  <unicode hex="0111"/>
  <anchor x="306.0" y="517" name="above"/>
  <anchor x="306.0" y="0" name="below"/>
  <outline>
    <contour>
      <point x="635" y="547" type="line"/>
      <point x="295" y="547" type="line"/>
      <point x="295" y="680" type="line"/>
      <point x="635" y="680" type="line"/>
    </contour>
    <contour>
      <point x="400" y="0" type="line"/>
      <point x="400" y="131" type="line"/>
      <point x="448" y="254" type="line"/>
      <point x="400" y="367" type="line"/>
      <point x="400" y="730" type="line"/>
      <point x="565" y="730" type="line"/>
      <point x="565" y="0" type="line"/>
    </contour>
    <contour>
      <point x="298" y="132" type="curve" smooth="yes"/>
      <point x="362.0" y="132.0"/>
      <point x="404.0" y="180.2051282051282"/>
      <point x="404" y="252" type="curve" smooth="yes"/>
      <point x="404.0" y="323.8103448275862"/>
      <point x="362.0" y="371.0"/>
      <point x="298" y="371" type="curve" smooth="yes"/>
      <point x="233.0" y="371.0"/>
      <point x="192.0" y="324.83620689655174"/>
      <point x="192" y="252" type="curve" smooth="yes"/>
      <point x="192.0" y="179.17948717948718"/>
      <point x="233.0" y="132.0"/>
    </contour>
    <contour>
      <point x="468" y="333" type="curve"/>
      <point x="468" y="173" type="line"/>
      <point x="468" y="70"/>
      <point x="384" y="-14"/>
      <point x="276" y="-14" type="curve" smooth="yes"/>
      <point x="141.0" y="-14.0"/>
      <point x="27.0" y="96.24334600760457"/>
      <point x="27" y="252" type="curve" smooth="yes"/>
      <point x="27.0" y="409.7862595419847"/>
      <point x="141.0" y="517.0"/>
      <point x="275" y="517" type="curve" smooth="yes"/>
      <point x="384.0" y="517.0"/>
      <point x="468.0" y="436.0"/>
    </contour>
  </outline>
</glyph>
<glyph name="eogonek" format="2">
  <advance width="567"/>
  <unicode hex="0119"/>
  <outline>
    <contour>
      <point x="475" y="98" type="line"/>
      <point x="297" y="54"/>
      <point x="251" y="-3"/>
      <point x="251" y="-74" type="curve" smooth="yes"/>
      <point x="251" y="-162"/>
      <point x="338" y="-232"/>
      <point x="500" y="-176" type="curve"/>
      <point x="500" y="-50" type="line"/>
      <point x="437" y="-70"/>
      <point x="393" y="-67"/>
      <point x="393" y="-37" type="curve" smooth="yes"/>
      <point x="393" y="-12"/>
      <point x="427" y="2"/>
      <point x="500" y="24" type="curve"/>
      <point x="500" y="166" type="line"/>
      <point x="331" y="102"/>
      <point x="188" y="128"/>
      <point x="188" y="252" type="curve" smooth="yes"/>
      <point x="188" y="342"/>
      <point x="234" y="385"/>
      <point x="290" y="385" type="curve" smooth="yes"/>
      <point x="347" y="385"/>
      <point x="389" y="346"/>
      <point x="389" y="256" type="curve"/>
      <point x="450" y="320" type="line"/>
      <point x="129" y="320" type="line"/>
      <point x="129" y="198" type="line"/>
      <point x="529" y="198" type="line"/>
      <point x="564" y="383"/>
      <point x="466" y="533"/>
      <point x="294" y="533" type="curve" smooth="yes"/>
      <point x="139" y="533"/>
      <point x="27" y="415"/>
      <point x="27" y="259" type="curve" smooth="yes"/>
      <point x="27" y="83"/>
      <point x="159" y="-14"/>
      <point x="321" y="-14" type="curve"/>
    </contour>
  </outline>
</glyph>
<glyph name="Hbar" format="2">
  <advance width="743"/>
  <unicode hex="0126"/>
  <outline>
    <contour>
      <point x="653" y="0" type="line"/>
      <point x="653" y="680" type="line"/>
      <point x="478" y="680" type="line"/>
      <point x="478" y="0" type="line"/>
    </contour>
    <contour>
      <point x="265" y="0" type="line"/>
      <point x="265" y="680" type="line"/>
      <point x="90" y="680" type="line"/>
      <point x="90" y="0" type="line"/>
    </contour>
    <contour>
      <point x="568" y="214" type="line"/>
      <point x="568" y="375" type="line"/>
      <point x="205" y="375" type="line"/>
      <point x="205" y="214" type="line"/>
    </contour>
    <contour>
      <point x="20" y="433" type="line"/>
      <point x="723" y="433" type="line"/>
      <point x="723" y="588" type="line"/>
      <point x="20" y="588" type="line"/>
    </contour>
  </outline>
</glyph>
<glyph name="Iogonek" format="2">
  <advance width="315"/>
  <unicode hex="012E"/>
  <anchor x="158.0" y="0" name="below"/>
  <anchor x="158.0" y="680.0" name="above"/>
  <outline>
    <contour>
      <point x="220" y="74" type="line"/>
      <point x="62" y="30"/>
      <point x="18" y="-27"/>
      <point x="18" y="-98" type="curve" smooth="yes"/>
      <point x="18" y="-186"/>
      <point x="105" y="-256"/>
      <point x="267" y="-200" type="curve"/>
      <point x="267" y="-74" type="line"/>
      <point x="204" y="-94"/>
      <point x="160" y="-91"/>
      <point x="160" y="-61" type="curve" smooth="yes"/>
      <point x="160" y="-36"/>
      <point x="192" y="-22"/>
      <point x="245" y="0" type="curve"/>
    </contour>
    <component base="I"/>
  </outline>
</glyph>
<glyph name="iogonek" format="2">
  <advance width="285"/>
  <unicode hex="012F"/>
  <anchor x="142.0" y="517" name="above"/>
  <anchor x="142.0" y="0" name="below"/>
  <outline>
    <contour>
      <point x="200" y="74" type="line"/>
      <point x="42" y="30"/>
      <point x="3" y="-27"/>
      <point x="3" y="-98" type="curve" smooth="yes"/>
      <point x="3" y="-186"/>
      <point x="90" y="-256"/>
      <point x="252" y="-200" type="curve"/>
      <point x="252" y="-74" type="line"/>
      <point x="189" y="-94"/>
      <point x="145" y="-91"/>
      <point x="145" y="-61" type="curve" smooth="yes"/>
      <point x="145" y="-36"/>
      <point x="172" y="-22"/>
      <point x="225" y="0" type="curve"/>
    </contour>
    <component base="i"/>
  </outline>
</glyph>
<glyph name="dotlessi" format="2">
  <advance width="281"/>
  <unicode hex="0131"/>
  <outline>
    <contour>
      <point x="58" y="0" type="line"/>
      <point x="223" y="0" type="line"/>
      <point x="223" y="517" type="line"/>
      <point x="58" y="517" type="line"/>
    </contour>
  </outline>
</glyph>
<glyph name="kra" format="2">
  <advance width="571"/>
  <unicode hex="0138"/>
  <outline>
    <contour>
      <point x="60" y="0" type="line"/>
      <point x="225" y="0" type="line"/>
      <point x="225.0" y="517.0" type="line"/>
      <point x="60.0" y="517.0" type="line"/>
    </contour>
    <contour>
      <point x="182" y="277" type="line"/>
      <point x="375" y="0" type="line"/>
      <point x="571" y="0" type="line"/>
      <point x="344" y="316" type="line"/>
      <point x="327" y="225" type="line"/>
      <point x="562" y="517" type="line"/>
      <point x="369" y="517" type="line"/>
    </contour>
  </outline>
</glyph>
<glyph name="Eng" format="2">
  <advance width="693"/>
  <unicode hex="014A"/>
  <outline>
    <contour>
      <point x="65" y="0" type="line"/>
      <point x="237" y="0" type="line"/>
      <point x="237" y="680" type="line"/>
      <point x="65" y="680" type="line"/>
    </contour>
    <contour>
      <point x="71" y="680" type="line"/>
      <point x="458" y="25" type="line"/>
      <point x="628" y="25" type="line"/>
      <point x="241" y="680" type="line"/>
    </contour>
    <contour>
      <point x="456" y="37" type="line" smooth="yes"/>
      <point x="456" y="-18"/>
      <point x="432" y="-32"/>
      <point x="368" y="-18" type="curve"/>
      <point x="368" y="-166" type="line"/>
      <point x="521" y="-191"/>
      <point x="628" y="-149"/>
      <point x="628" y="19" type="curve" smooth="yes"/>
      <point x="628.0" y="680.0" type="line"/>
      <point x="456.0" y="680.0" type="line"/>
    </contour>
  </outline>
</glyph>
<glyph name="eng" format="2">
  <advance width="593"/>
  <unicode hex="014B"/>
  <outline>
    <contour>
      <point x="55" y="0" type="line"/>
      <point x="220" y="0" type="line"/>
      <point x="220" y="517" type="line"/>
      <point x="55" y="517" type="line"/>
    </contour>
    <contour>
      <point x="546" y="314" type="line" smooth="yes"/>
      <point x="546.0" y="449.0"/>
      <point x="467" y="531"/>
      <point x="353" y="531" type="curve" smooth="yes"/>
      <point x="230" y="531"/>
      <point x="141" y="447"/>
      <point x="141" y="344" type="curve"/>
      <point x="220" y="292" type="line"/>
      <point x="220" y="349"/>
      <point x="251" y="381"/>
      <point x="304" y="381" type="curve" smooth="yes"/>
      <point x="357" y="381"/>
      <point x="381.0" y="345.0"/>
      <point x="381" y="292" type="curve" smooth="yes"/>
      <point x="381" y="32" type="line" smooth="yes"/>
      <point x="381" y="-23"/>
      <point x="357" y="-37"/>
      <point x="293" y="-23" type="curve"/>
      <point x="293" y="-166" type="line"/>
      <point x="446" y="-191"/>
      <point x="546" y="-149"/>
      <point x="546" y="19" type="curve" smooth="yes"/>
    </contour>
  </outline>
</glyph>
<glyph name="uogonek" format="2">
  <advance width="593"/>
  <unicode hex="0173"/>
  <anchor x="373" y="517" name="horn"/>
  <anchor x="292.0" y="517" name="above"/>
  <anchor x="292.0" y="0" name="below"/>
  <outline>
    <contour>
      <point x="513" y="74" type="line"/>
      <point x="341" y="2"/>
      <point x="299" y="-47"/>
      <point x="299" y="-110" type="curve" smooth="yes"/>
      <point x="299" y="-197"/>
      <point x="385" y="-253"/>
      <point x="538" y="-200" type="curve"/>
      <point x="538" y="-74" type="line"/>
      <point x="475" y="-94"/>
      <point x="431" y="-94"/>
      <point x="431" y="-64" type="curve" smooth="yes"/>
      <point x="431" y="-39"/>
      <point x="465" y="-22"/>
      <point x="538" y="0" type="curve"/>
    </contour>
    <contour>
      <point x="538" y="517" type="line"/>
      <point x="373" y="517" type="line"/>
      <point x="373" y="0" type="line"/>
      <point x="538" y="0" type="line"/>
    </contour>
    <contour>
      <point x="432" y="183" type="curve"/>
      <point x="373" y="225" type="line"/>
      <point x="373" y="168"/>
      <point x="342" y="136"/>
      <point x="289" y="136" type="curve" smooth="yes"/>
      <point x="236" y="136"/>
      <point x="212" y="172"/>
      <point x="212" y="225" type="curve" smooth="yes"/>
      <point x="212" y="517" type="line"/>
      <point x="47" y="517" type="line"/>
      <point x="47" y="203" type="line" smooth="yes"/>
      <point x="47" y="68"/>
      <point x="126" y="-14"/>
      <point x="240" y="-14" type="curve" smooth="yes"/>
      <point x="363" y="-14"/>
      <point x="432" y="80"/>
    </contour>
  </outline>
</glyph>
<glyph name="Schwa" format="2">
  <advance width="685"/>
  <unicode hex="018F"/>
  <outline>
    <contour>
      <point x="195" y="348" type="line"/>
      <point x="195.0" y="206.0"/>
      <point x="253.0" y="146.0"/>
      <point x="333" y="146" type="curve" smooth="yes"/>
      <point x="417.0" y="146.0"/>
      <point x="484.0" y="207.0"/>
      <point x="484" y="344" type="curve" smooth="yes"/>
      <point x="484.0" y="545.0"/>
      <point x="316" y="578"/>
      <point x="79" y="490" type="curve"/>
      <point x="79" y="644" type="line"/>
      <point x="384" y="775"/>
      <point x="660.0" y="648.0"/>
      <point x="660.0" y="341.0" type="curve" smooth="yes"/>
      <point x="660.0" y="138.0"/>
      <point x="525.0" y="-16.0"/>
      <point x="334" y="-16" type="curve" smooth="yes"/>
      <point x="116.0" y="-16.0"/>
      <point x="-5" y="184"/>
      <point x="41" y="425" type="curve"/>
      <point x="528" y="425" type="line"/>
      <point x="528" y="274" type="line"/>
      <point x="144" y="274" type="line"/>
    </contour>
  </outline>
</glyph>
<glyph name="fhook" format="2">
  <advance width="492"/>
  <unicode hex="0192"/>
  <outline>
    <contour>
      <point x="60" y="369" type="line"/>
      <point x="430" y="369" type="line"/>
      <point x="443" y="517" type="line"/>
      <point x="73" y="517" type="line"/>
    </contour>
    <contour>
      <point x="113" y="42" type="line" smooth="yes"/>
      <point x="108" y="-11"/>
      <point x="63" y="-29"/>
      <point x="-34" y="-2" type="curve"/>
      <point x="-48" y="-155" type="line"/>
      <point x="121" y="-202"/>
      <point x="262" y="-137"/>
      <point x="278" y="41" type="curve" smooth="yes"/>
      <point x="321" y="533" type="line" smooth="yes"/>
      <point x="326" y="586"/>
      <point x="371" y="604"/>
      <point x="468" y="577" type="curve"/>
      <point x="482" y="730" type="line"/>
      <point x="313" y="777"/>
      <point x="172" y="712"/>
      <point x="156" y="534" type="curve" smooth="yes"/>
    </contour>
  </outline>
</glyph>
<glyph name="schwa" format="2">
  <advance width="567"/>
  <unicode hex="0259"/>
  <outline>
    <contour>
      <point x="178" y="261" type="line"/>
      <point x="178" y="171"/>
      <point x="220" y="132"/>
      <point x="277" y="132" type="curve" smooth="yes"/>
      <point x="333" y="132"/>
      <point x="379" y="175"/>
      <point x="379" y="265" type="curve" smooth="yes"/>
      <point x="379" y="389"/>
      <point x="236" y="415"/>
      <point x="67" y="351" type="curve"/>
      <point x="67" y="493" type="line"/>
      <point x="297" y="591"/>
      <point x="540" y="496"/>
      <point x="540" y="258" type="curve" smooth="yes"/>
      <point x="540" y="102"/>
      <point x="428" y="-16"/>
      <point x="273" y="-16" type="curve" smooth="yes"/>
      <point x="101" y="-16"/>
      <point x="3" y="134"/>
      <point x="38" y="319" type="curve"/>
      <point x="438" y="319" type="line"/>
      <point x="438" y="197" type="line"/>
      <point x="117" y="197" type="line"/>
    </contour>
  </outline>
</glyph>
<glyph name="ringhalfrightmod" format="2">
  <advance width="300"/>
  <unicode hex="02BE"/>
  <outline>
    <contour>
      <point x="214" y="632" type="line"/>
      <point x="185.0" y="632.0"/>
      <point x="167.0" y="650"/>
      <point x="167" y="678" type="curve" smooth="yes"/>
      <point x="167.0" y="705.0"/>
      <point x="185.0" y="723.0"/>
      <point x="214" y="723" type="curve"/>
      <point x="214" y="796" type="line"/>
      <point x="139.0" y="796.0"/>
      <point x="85.0" y="746"/>
      <point x="85" y="678" type="curve" smooth="yes"/>
      <point x="85.0" y="608"/>
      <point x="139.0" y="558.0"/>
      <point x="214" y="558" type="curve"/>
    </contour>
  </outline>
</glyph>
<glyph name="ringhalfleftmod" format="2">
  <advance width="300"/>
  <unicode hex="02BF"/>
  <outline>
    <contour>
      <point x="85" y="632" type="curve"/>
      <point x="85" y="558" type="line"/>
      <point x="160.0" y="558.0"/>
      <point x="214.0" y="608.0"/>
      <point x="214" y="678" type="curve" smooth="yes"/>
      <point x="214.0" y="746.0"/>
      <point x="160.0" y="796.0"/>
      <point x="85" y="796" type="curve"/>
      <point x="85" y="723" type="line"/>
      <point x="114.0" y="723.0"/>
      <point x="132.0" y="705.0"/>
      <point x="132" y="678" type="curve" smooth="yes"/>
      <point x="132.0" y="650.0"/>
      <point x="114.0" y="632.0"/>
    </contour>
  </outline>
</glyph>
<glyph name="circumflex" format="2">
  <advance width="562"/>
  <unicode hex="02C6"/>
  <outline>
    <contour>
      <point x="348" y="790" type="line"/>
      <point x="229" y="584" type="line"/>
      <point x="60" y="584" type="line"/>
      <point x="194" y="790" type="line"/>
    </contour>
    <contour>
      <point x="214" y="790" type="line"/>
      <point x="368" y="790" type="line"/>
      <point x="502" y="584" type="line"/>
      <point x="333" y="584" type="line"/>
    </contour>
  </outline>
</glyph>
<glyph name="ring" format="2">
  <advance width="420"/>
  <unicode hex="02DA"/>
  <anchor x="0" y="517" name="top"/>
  <anchor x="210" y="517" name="center"/>
  <outline>
    <contour>
      <point x="209" y="625" type="curve" smooth="yes"/>
      <point x="242" y="625.0"/>
      <point x="264.0" y="647.0"/>
      <point x="264" y="681" type="curve" smooth="yes"/>
      <point x="264.0" y="715.0"/>
      <point x="242" y="737.0"/>
      <point x="209" y="737" type="curve" smooth="yes"/>
      <point x="177" y="737.0"/>
      <point x="157.0" y="715.0"/>
      <point x="157" y="681" type="curve" smooth="yes"/>
      <point x="157.0" y="647.0"/>
      <point x="177" y="625.0"/>
    </contour>
    <contour>
      <point x="209" y="542" type="curve" smooth="yes"/>
      <point x="126" y="542.0"/>
      <point x="66.0" y="600.0"/>
      <point x="66" y="681" type="curve" smooth="yes"/>
      <point x="66.0" y="760.0"/>
      <point x="126" y="818.0"/>
      <point x="209" y="818" type="curve" smooth="yes"/>
      <point x="294" y="818.0"/>
      <point x="354.0" y="760.0"/>
      <point x="354" y="681" type="curve" smooth="yes"/>
      <point x="354.0" y="600.0"/>
      <point x="294" y="542.0"/>
    </contour>
  </outline>
</glyph>
<glyph name="tilde" format="2">
  <advance width="565"/>
  <unicode hex="02DC"/>
  <anchor x="0" y="517" name="top"/>
  <anchor x="282" y="517" name="center"/>
  <outline>
    <contour>
      <point x="397" y="774" type="line"/>
      <point x="397" y="725"/>
      <point x="381" y="706"/>
      <point x="357" y="706" type="curve" smooth="yes"/>
      <point x="311" y="706"/>
      <point x="275" y="778"/>
      <point x="194" y="778" type="curve" smooth="yes"/>
      <point x="111" y="778"/>
      <point x="60" y="714"/>
      <point x="60" y="568" type="curve"/>
      <point x="168" y="568" type="line"/>
      <point x="169" y="619"/>
      <point x="184" y="636"/>
      <point x="208" y="636" type="curve" smooth="yes"/>
      <point x="254" y="636"/>
      <point x="291" y="564"/>
      <point x="370" y="564" type="curve" smooth="yes"/>
      <point x="455" y="564"/>
      <point x="505" y="628"/>
      <point x="505" y="774" type="curve"/>
    </contour>
  </outline>
</glyph>
<glyph name="acutecmb" format="2">
  <unicode hex="0301"/>
  <anchor x="0" y="517" name="_above"/>
  <anchor x="0" y="760" name="above"/>
  <anchor x="0" y="517" name="_aboveright"/>
  <outline>
    <contour>
      <point x="-84" y="584" type="line"/>
      <point x="25" y="780" type="line"/>
      <point x="204" y="780" type="line"/>
      <point x="70" y="584" type="line"/>
    </contour>
  </outline>
</glyph>
<glyph name="tildecmb" format="2">
  <unicode hex="0303"/>
  <anchor x="0" y="517" name="_above"/>
  <anchor x="0" y="778" name="above"/>
  <outline>
    <contour>
      <point x="109" y="784" type="line"/>
      <point x="109" y="735"/>
      <point x="93" y="721"/>
      <point x="69" y="721" type="curve" smooth="yes"/>
      <point x="23" y="721"/>
      <point x="7" y="788"/>
      <point x="-74" y="788" type="curve" smooth="yes"/>
      <point x="-157" y="788"/>
      <point x="-208" y="724"/>
      <point x="-208" y="578" type="curve"/>
      <point x="-100" y="578" type="line"/>
      <point x="-99" y="629"/>
      <point x="-84" y="641"/>
      <point x="-60" y="641" type="curve" smooth="yes"/>
      <point x="-14" y="641"/>
      <point x="3" y="574"/>
      <point x="82" y="574" type="curve" smooth="yes"/>
      <point x="167" y="574"/>
      <point x="217" y="638"/>
      <point x="217" y="784" type="curve"/>
    </contour>
  </outline>
</glyph>
<glyph name="macroncmb" format="2">
  <unicode hex="0304"/>
  <anchor x="0" y="517" name="top"/>
  <outline>
    <contour>
      <point x="-185" y="595" type="line"/>
      <point x="185" y="595" type="line"/>
      <point x="185" y="740" type="line"/>
      <point x="-185" y="740" type="line"/>
    </contour>
  </outline>
</glyph>
<glyph name="brevecmb" format="2">
  <unicode hex="0306"/>
  <anchor x="0" y="517" name="_above"/>
  <anchor x="0" y="718" name="above"/>
  <outline>
    <contour>
      <point x="0" y="571" type="curve" smooth="yes"/>
      <point x="-114.0" y="571.0"/>
      <point x="-183.0" y="644"/>
      <point x="-183" y="744" type="curve"/>
      <point x="-65" y="744" type="line"/>
      <point x="-65.0" y="709"/>
      <point x="-42.0" y="686.0"/>
      <point x="0" y="686" type="curve" smooth="yes"/>
      <point x="42.0" y="686.0"/>
      <point x="65.0" y="709"/>
      <point x="65" y="744" type="curve"/>
      <point x="183" y="744" type="line"/>
      <point x="183.0" y="644"/>
      <point x="114.0" y="571.0"/>
    </contour>
  </outline>
</glyph>
<glyph name="dotaccentcmb" format="2">
  <unicode hex="0307"/>
  <anchor x="0" y="517" name="top"/>
  <outline>
    <contour>
      <point x="1" y="576" type="curve" smooth="yes"/>
      <point x="57" y="576"/>
      <point x="104" y="622"/>
      <point x="104" y="678" type="curve" smooth="yes"/>
      <point x="104" y="733"/>
      <point x="57" y="779"/>
      <point x="1" y="779" type="curve" smooth="yes"/>
      <point x="-57" y="779"/>
      <point x="-103" y="733"/>
      <point x="-103" y="678" type="curve" smooth="yes"/>
      <point x="-103" y="622"/>
      <point x="-57" y="576"/>
    </contour>
  </outline>
</glyph>
<glyph name="dieresiscmb" format="2">
  <unicode hex="0308"/>
  <anchor x="0" y="517" name="top"/>
  <outline>
    <contour>
      <point x="-119" y="576" type="curve" smooth="yes"/>
      <point x="-63" y="576"/>
      <point x="-16" y="622"/>
      <point x="-16" y="678" type="curve" smooth="yes"/>
      <point x="-16" y="733"/>
      <point x="-63" y="779"/>
      <point x="-119" y="779" type="curve" smooth="yes"/>
      <point x="-177" y="779"/>
      <point x="-223" y="733"/>
      <point x="-223" y="678" type="curve" smooth="yes"/>
      <point x="-223" y="622"/>
      <point x="-177" y="576"/>
    </contour>
    <contour>
      <point x="121" y="576" type="curve" smooth="yes"/>
      <point x="177" y="576"/>
      <point x="224" y="622"/>
      <point x="224" y="678" type="curve" smooth="yes"/>
      <point x="224" y="733"/>
      <point x="177" y="779"/>
      <point x="121" y="779" type="curve" smooth="yes"/>
      <point x="63" y="779"/>
      <point x="17" y="733"/>
      <point x="17" y="678" type="curve" smooth="yes"/>
      <point x="17" y="622"/>
      <point x="63" y="576"/>
    </contour>
  </outline>
</glyph>
<glyph name="hookabovecmb" format="2">
  <unicode hex="0309"/>
  <anchor x="0" y="517" name="_above"/>
  <anchor x="0" y="825" name="above"/>
  <anchor x="0" y="517" name="_aboveright"/>
  <outline>
    <contour>
      <point x="-81" y="648" type="curve"/>
      <point x="-81" y="558" type="line"/>
      <point x="31.0" y="567"/>
      <point x="122" y="598"/>
      <point x="122.0" y="704" type="curve" smooth="yes"/>
      <point x="122" y="807"/>
      <point x="27" y="849"/>
      <point x="-111" y="816" type="curve"/>
      <point x="-111" y="705" type="line"/>
      <point x="-55" y="722"/>
      <point x="-3" y="719"/>
      <point x="-3" y="684" type="curve" smooth="yes"/>
      <point x="-3" y="662"/>
      <point x="-25" y="654"/>
    </contour>
  </outline>
</glyph>
<glyph name="ringabovecmb" format="2">
  <unicode hex="030A"/>
  <anchor x="0" y="517" name="top"/>
  <outline>
    <contour>
      <point x="-1" y="625" type="curve" smooth="yes"/>
      <point x="32" y="625"/>
      <point x="54" y="647"/>
      <point x="54" y="681" type="curve" smooth="yes"/>
      <point x="54" y="715"/>
      <point x="32" y="737"/>
      <point x="-1" y="737" type="curve" smooth="yes"/>
      <point x="-33" y="737"/>
      <point x="-53" y="715"/>
      <point x="-53" y="681" type="curve" smooth="yes"/>
      <point x="-53" y="647"/>
      <point x="-33" y="625"/>
    </contour>
    <contour>
      <point x="-1" y="542" type="curve" smooth="yes"/>
      <point x="-84" y="542"/>
      <point x="-144" y="600"/>
      <point x="-144" y="681" type="curve" smooth="yes"/>
      <point x="-144" y="760"/>
      <point x="-84" y="818"/>
      <point x="-1" y="818" type="curve" smooth="yes"/>
      <point x="84" y="818"/>
      <point x="144" y="760"/>
      <point x="144" y="681" type="curve" smooth="yes"/>
      <point x="144" y="600"/>
      <point x="84" y="542"/>
    </contour>
  </outline>
</glyph>
<glyph name="hungarumlautcmb" format="2">
  <unicode hex="030B"/>
  <anchor x="0" y="517" name="top"/>
  <anchor x="0" y="0" name="center"/>
  <outline>
    <contour>
      <point x="4" y="584" type="line"/>
      <point x="123" y="780" type="line"/>
      <point x="302" y="780" type="line"/>
      <point x="158" y="584" type="line"/>
    </contour>
    <contour>
      <point x="-194" y="584" type="line"/>
      <point x="-95" y="780" type="line"/>
      <point x="84" y="780" type="line"/>
      <point x="-40" y="584" type="line"/>
    </contour>
  </outline>
</glyph>
<glyph name="caroncmb" format="2">
  <unicode hex="030C"/>
  <anchor x="0" y="517" name="_above"/>
  <anchor x="0" y="728" name="above"/>
  <outline>
    <contour>
      <point x="-60" y="580" type="line"/>
      <point x="47" y="747" type="line"/>
      <point x="199" y="747" type="line"/>
      <point x="88" y="580" type="line"/>
    </contour>
    <contour>
      <point x="60" y="580" type="line"/>
      <point x="-88" y="580" type="line"/>
      <point x="-199" y="747" type="line"/>
      <point x="-47" y="747" type="line"/>
    </contour>
  </outline>
</glyph>
<glyph name="gravedoublecmb" format="2">
  <unicode hex="030F"/>
  <anchor x="0" y="517" name="_above"/>
  <anchor x="0" y="770" name="above"/>
  <outline>
    <contour>
      <point x="-4" y="584" type="line"/>
      <point x="-158" y="584" type="line"/>
      <point x="-302" y="780" type="line"/>
      <point x="-123" y="780" type="line"/>
    </contour>
    <contour>
      <point x="194" y="584" type="line"/>
      <point x="40" y="584" type="line"/>
      <point x="-84" y="780" type="line"/>
      <point x="95" y="780" type="line"/>
    </contour>
  </outline>
</glyph>
<glyph name="invertedbrevecmb" format="2">
  <unicode hex="0311"/>
  <anchor x="0" y="517" name="_above"/>
  <anchor x="0" y="735" name="above"/>
  <outline>
    <contour>
      <point x="0" y="753" type="curve" smooth="yes"/>
      <point x="114.0" y="753.0"/>
      <point x="183.0" y="679"/>
      <point x="183" y="580" type="curve"/>
      <point x="65" y="580" type="line"/>
      <point x="65.0" y="615"/>
      <point x="42.0" y="638.0"/>
      <point x="0" y="638" type="curve" smooth="yes"/>
      <point x="-42.0" y="638.0"/>
      <point x="-65.0" y="615"/>
      <point x="-65" y="580" type="curve"/>
      <point x="-183" y="580" type="line"/>
      <point x="-183.0" y="679"/>
      <point x="-114.0" y="753.0"/>
    </contour>
  </outline>
</glyph>
<glyph name="commaturnedabovecmb" format="2">
  <unicode hex="0312"/>
  <anchor x="0" y="517" name="_above"/>
  <anchor x="0" y="756.0" name="above"/>
  <outline>
    <contour>
      <point x="104.0" y="766.0" type="line"/>
      <point x="65.0" y="584.0" type="line"/>
      <point x="-104.0" y="584.0" type="line"/>
      <point x="-40.0" y="766.0" type="line"/>
    </contour>
  </outline>
</glyph>
<glyph name="dotbelowcmb" format="2">
  <unicode hex="0323"/>
  <anchor x="0" y="0" name="bottom"/>
  <outline>
    <contour>
      <point x="1" y="-272" type="curve" smooth="yes"/>
      <point x="57" y="-272"/>
      <point x="104" y="-226"/>
      <point x="104" y="-170" type="curve" smooth="yes"/>
      <point x="104" y="-115"/>
      <point x="57" y="-69"/>
      <point x="1" y="-69" type="curve" smooth="yes"/>
      <point x="-57" y="-69"/>
      <point x="-103" y="-115"/>
      <point x="-103" y="-170" type="curve" smooth="yes"/>
      <point x="-103" y="-226"/>
      <point x="-57" y="-272"/>
    </contour>
  </outline>
</glyph>
<glyph name="dieresisbelowcmb" format="2">
  <unicode hex="0324"/>
  <anchor x="0" y="0" name="_below"/>
  <anchor x="0" y="-262" name="below"/>
  <outline>
    <contour>
      <point x="-119" y="-262" type="curve" smooth="yes"/>
      <point x="-63" y="-262"/>
      <point x="-16" y="-216"/>
      <point x="-16" y="-160" type="curve" smooth="yes"/>
      <point x="-16" y="-105"/>
      <point x="-63" y="-59"/>
      <point x="-119" y="-59" type="curve" smooth="yes"/>
      <point x="-177" y="-59"/>
      <point x="-223" y="-105"/>
      <point x="-223" y="-160" type="curve" smooth="yes"/>
      <point x="-223" y="-216"/>
      <point x="-177" y="-262"/>
    </contour>
    <contour>
      <point x="121" y="-262" type="curve" smooth="yes"/>
      <point x="177" y="-262"/>
      <point x="224" y="-216"/>
      <point x="224" y="-160" type="curve" smooth="yes"/>
      <point x="224" y="-105"/>
      <point x="177" y="-59"/>
      <point x="121" y="-59" type="curve" smooth="yes"/>
      <point x="63" y="-59"/>
      <point x="17" y="-105"/>
      <point x="17" y="-160" type="curve" smooth="yes"/>
      <point x="17" y="-216"/>
      <point x="63" y="-262"/>
    </contour>
  </outline>
</glyph>
<glyph name="commaaccentbelowcmb" format="2">
  <unicode hex="0326"/>
  <anchor x="0" y="0" name="_below"/>
  <anchor x="0" y="-218" name="below"/>
  <outline>
    <contour>
      <point x="-94" y="-224" type="line"/>
      <point x="-58" y="-61" type="line"/>
      <point x="94" y="-61" type="line"/>
      <point x="36" y="-224" type="line"/>
    </contour>
  </outline>
</glyph>
<glyph name="cedillacmb" format="2">
  <unicode hex="0327"/>
  <anchor x="0" y="0" name="bottom"/>
  <anchor x="0" y="0" name="center"/>
  <outline>
    <contour>
      <point x="-138" y="-235" type="line"/>
      <point x="27" y="-282"/>
      <point x="138" y="-240"/>
      <point x="138" y="-136" type="curve" smooth="yes"/>
      <point x="138" y="-72"/>
      <point x="94" y="-40"/>
      <point x="31" y="-23" type="curve"/>
      <point x="30" y="38" type="line"/>
      <point x="-77" y="38" type="line"/>
      <point x="-80" y="-101" type="line"/>
      <point x="-9" y="-96"/>
      <point x="18" y="-105"/>
      <point x="18" y="-127" type="curve" smooth="yes"/>
      <point x="18" y="-155"/>
      <point x="-41" y="-162"/>
      <point x="-138" y="-132" type="curve"/>
    </contour>
  </outline>
</glyph>
<glyph name="ogonekcmb" format="2">
  <unicode hex="0328"/>
  <anchor x="0" y="0" name="bottom"/>
  <anchor x="125" y="24" name="ogonek"/>
  <outline>
    <contour>
      <point x="100" y="98" type="line"/>
      <point x="-78" y="54"/>
      <point x="-124" y="-3"/>
      <point x="-124" y="-74" type="curve" smooth="yes"/>
      <point x="-124" y="-162"/>
      <point x="-37" y="-232"/>
      <point x="125" y="-176" type="curve"/>
      <point x="125" y="-50" type="line"/>
      <point x="62" y="-70"/>
      <point x="18" y="-67"/>
      <point x="18" y="-37" type="curve" smooth="yes"/>
      <point x="18" y="-12"/>
      <point x="52" y="2"/>
      <point x="125" y="24" type="curve"/>
    </contour>
  </outline>
</glyph>
<glyph name="belowbrevecmb" format="2">
  <unicode hex="032E"/>
  <anchor x="0" y="0" name="_below"/>
  <anchor x="0" y="-267" name="below"/>
  <outline>
    <contour>
      <point x="0" y="-267" type="curve" smooth="yes"/>
      <point x="-127" y="-267"/>
      <point x="-203" y="-181"/>
      <point x="-203" y="-64" type="curve"/>
      <point x="-72" y="-64" type="line"/>
      <point x="-72" y="-109"/>
      <point x="-47" y="-139"/>
      <point x="0" y="-139" type="curve" smooth="yes"/>
      <point x="47" y="-139"/>
      <point x="72" y="-109"/>
      <point x="72" y="-64" type="curve"/>
      <point x="203" y="-64" type="line"/>
      <point x="203" y="-181"/>
      <point x="127" y="-267"/>
    </contour>
  </outline>
</glyph>
<glyph name="macronbelowcmb" format="2">
  <unicode hex="0331"/>
  <anchor x="0" y="0" name="bottom"/>
  <outline>
    <contour>
      <point x="-185" y="-223" type="line"/>
      <point x="185" y="-223" type="line"/>
      <point x="185" y="-78" type="line"/>
      <point x="-185" y="-78" type="line"/>
    </contour>
  </outline>
</glyph>
<glyph name="emdash" format="2">
  <advance width="805"/>
  <unicode hex="2014"/>
  <outline>
    <contour>
      <point x="65" y="231" type="line"/>
      <point x="740" y="231" type="line"/>
      <point x="740" y="386" type="line"/>
      <point x="65" y="386" type="line"/>
    </contour>
  </outline>
</glyph>
<glyph name="quoteleft" format="2">
  <advance width="297"/>
  <unicode hex="2018"/>
  <outline>
    <contour>
      <point x="250" y="468" type="curve"/>
      <point x="69" y="468" type="line"/>
      <point x="47" y="559"/>
      <point x="50" y="647"/>
      <point x="98" y="750" type="curve"/>
      <point x="238" y="750" type="line"/>
      <point x="208" y="641"/>
      <point x="214" y="557"/>
    </contour>
  </outline>
</glyph>
<glyph name="quoteright" format="2">
  <advance width="297"/>
  <unicode hex="2019"/>
  <outline>
    <contour>
      <point x="42.0" y="448.0" type="line"/>
      <point x="86.0" y="544.0"/>
      <point x="89.0" y="640.0"/>
      <point x="61.0" y="730.0" type="curve"/>
      <point x="230.0" y="730.0" type="line"/>
      <point x="253.0" y="640.0"/>
      <point x="245.0" y="544.0"/>
      <point x="196.0" y="448.0" type="curve"/>
    </contour>
  </outline>
</glyph>
<glyph name="quotedblleft" format="2">
  <advance width="518"/>
  <unicode hex="201C"/>
  <outline>
    <contour>
      <point x="232" y="468" type="line"/>
      <point x="207" y="558"/>
      <point x="212" y="654"/>
      <point x="259" y="750" type="curve"/>
      <point x="101" y="750" type="line"/>
      <point x="52" y="654"/>
      <point x="44" y="558"/>
      <point x="67" y="468" type="curve"/>
    </contour>
    <contour>
      <point x="292" y="468" type="line"/>
      <point x="267" y="558"/>
      <point x="272" y="654"/>
      <point x="319" y="750" type="curve"/>
      <point x="476" y="750" type="line"/>
      <point x="432" y="654"/>
      <point x="429" y="558"/>
      <point x="457" y="468" type="curve"/>
    </contour>
  </outline>
</glyph>
<glyph name="quotedblright" format="2">
  <advance width="518"/>
  <unicode hex="201D"/>
  <outline>
    <contour>
      <point x="286" y="750" type="line"/>
      <point x="311" y="660"/>
      <point x="306" y="564"/>
      <point x="259" y="468" type="curve"/>
      <point x="417" y="468" type="line"/>
      <point x="466" y="564"/>
      <point x="474" y="660"/>
      <point x="451" y="750" type="curve"/>
    </contour>
    <contour>
      <point x="226" y="750" type="line"/>
      <point x="251" y="660"/>
      <point x="246" y="564"/>
      <point x="199" y="468" type="curve"/>
      <point x="42" y="468" type="line"/>
      <point x="86" y="564"/>
      <point x="89" y="660"/>
      <point x="61" y="750" type="curve"/>
    </contour>
  </outline>
</glyph>
<glyph name="daggerdbl" format="2">
  <advance width="415"/>
  <unicode hex="2021"/>
  <outline>
    <contour>
      <point x="135" y="195" type="line"/>
      <point x="280" y="195" type="line"/>
      <point x="280" y="730" type="line"/>
      <point x="135" y="730" type="line"/>
    </contour>
    <contour>
      <point x="45" y="494" type="line"/>
      <point x="370" y="494" type="line"/>
      <point x="370" y="622" type="line"/>
      <point x="45" y="622" type="line"/>
    </contour>
    <contour>
      <point x="45" y="431" type="line"/>
      <point x="45" y="303" type="line"/>
      <point x="370" y="303" type="line"/>
      <point x="370" y="431" type="line"/>
    </contour>
  </outline>
</glyph>
<glyph name="ellipsis" format="2">
  <advance width="873"/>
  <unicode hex="2026"/>
  <outline>
    <contour>
      <point x="146.0" y="-16.0" type="curve" smooth="yes"/>
      <point x="203.0" y="-16.0"/>
      <point x="251.0" y="31.0"/>
      <point x="251.0" y="88.0" type="curve" smooth="yes"/>
      <point x="251.0" y="144.0"/>
      <point x="203.0" y="191.0"/>
      <point x="146.0" y="191.0" type="curve" smooth="yes"/>
      <point x="87.0" y="191.0"/>
      <point x="40.0" y="144.0"/>
      <point x="40.0" y="88.0" type="curve" smooth="yes"/>
      <point x="40.0" y="31.0"/>
      <point x="87.0" y="-16.0"/>
    </contour>
    <contour>
      <point x="437.0" y="-16.0" type="curve" smooth="yes"/>
      <point x="494.0" y="-16.0"/>
      <point x="542.0" y="31.0"/>
      <point x="542.0" y="88.0" type="curve" smooth="yes"/>
      <point x="542.0" y="144.0"/>
      <point x="494.0" y="191.0"/>
      <point x="437.0" y="191.0" type="curve" smooth="yes"/>
      <point x="378.0" y="191.0"/>
      <point x="331.0" y="144.0"/>
      <point x="331.0" y="88.0" type="curve" smooth="yes"/>
      <point x="331.0" y="31.0"/>
      <point x="378.0" y="-16.0"/>
    </contour>
    <contour>
      <point x="728.0" y="-16.0" type="curve" smooth="yes"/>
      <point x="785.0" y="-16.0"/>
      <point x="833.0" y="31.0"/>
      <point x="833.0" y="88.0" type="curve" smooth="yes"/>
      <point x="833.0" y="144.0"/>
      <point x="785.0" y="191.0"/>
      <point x="728.0" y="191.0" type="curve" smooth="yes"/>
      <point x="669.0" y="191.0"/>
      <point x="622.0" y="144.0"/>
      <point x="622.0" y="88.0" type="curve" smooth="yes"/>
      <point x="622.0" y="31.0"/>
      <point x="669.0" y="-16.0"/>
    </contour>
  </outline>
</glyph>
<glyph name="perthousand" format="2">
  <advance width="1453"/>
  <unicode hex="2030"/>
  <outline>
    <contour>
      <point x="784" y="117" type="curve" smooth="yes"/>
      <point x="828.0" y="117.0"/>
      <point x="855.0" y="151"/>
      <point x="855" y="204.0" type="curve" smooth="yes"/>
      <point x="855.0" y="257"/>
      <point x="828.0" y="290.0"/>
      <point x="784" y="290" type="curve" smooth="yes"/>
      <point x="740.0" y="290.0"/>
      <point x="715.0" y="257"/>
      <point x="715" y="204.0" type="curve" smooth="yes"/>
      <point x="715.0" y="151"/>
      <point x="740.0" y="117.0"/>
    </contour>
    <contour>
      <point x="784.0" y="-14.0" type="curve" smooth="yes"/>
      <point x="663" y="-14.0"/>
      <point x="580.0" y="80"/>
      <point x="580.0" y="204" type="curve" smooth="yes"/>
      <point x="580.0" y="327"/>
      <point x="663.0" y="420.0"/>
      <point x="784.0" y="420.0" type="curve" smooth="yes"/>
      <point x="905.0" y="420.0"/>
      <point x="988.0" y="327"/>
      <point x="988.0" y="204" type="curve" smooth="yes"/>
      <point x="988.0" y="80"/>
      <point x="905" y="-14.0"/>
    </contour>
    <contour>
      <point x="239.0" y="391.0" type="curve" smooth="yes"/>
      <point x="283.0" y="391.0"/>
      <point x="310.0" y="425"/>
      <point x="310.0" y="478.0" type="curve" smooth="yes"/>
      <point x="310.0" y="531"/>
      <point x="283.0" y="564.0"/>
      <point x="239.0" y="564.0" type="curve" smooth="yes"/>
      <point x="195.0" y="564.0"/>
      <point x="170.0" y="531"/>
      <point x="170.0" y="478.0" type="curve" smooth="yes"/>
      <point x="170.0" y="425"/>
      <point x="195.0" y="391.0"/>
    </contour>
    <contour>
      <point x="239.0" y="260.0" type="curve" smooth="yes"/>
      <point x="118.0" y="260.0"/>
      <point x="35.0" y="354"/>
      <point x="35.0" y="478.0" type="curve" smooth="yes"/>
      <point x="35.0" y="601"/>
      <point x="118.0" y="694.0"/>
      <point x="239.0" y="694.0" type="curve" smooth="yes"/>
      <point x="360" y="694.0"/>
      <point x="443.0" y="601"/>
      <point x="443.0" y="478.0" type="curve" smooth="yes"/>
      <point x="443.0" y="354"/>
      <point x="360.0" y="260.0"/>
    </contour>
    <contour>
      <point x="242.0" y="0.0" type="line"/>
      <point x="384.0" y="0.0" type="line"/>
      <point x="780" y="680" type="line"/>
      <point x="638" y="680" type="line"/>
    </contour>
    <contour>
      <point x="1214" y="117" type="curve" smooth="yes"/>
      <point x="1258.0" y="117.0"/>
      <point x="1285.0" y="151"/>
      <point x="1285" y="204.0" type="curve" smooth="yes"/>
      <point x="1285.0" y="257"/>
      <point x="1258.0" y="290.0"/>
      <point x="1214" y="290" type="curve" smooth="yes"/>
      <point x="1170.0" y="290.0"/>
      <point x="1145.0" y="257"/>
      <point x="1145" y="204.0" type="curve" smooth="yes"/>
      <point x="1145.0" y="151"/>
      <point x="1170.0" y="117.0"/>
    </contour>
    <contour>
      <point x="1214.0" y="-14.0" type="curve" smooth="yes"/>
      <point x="1093" y="-14.0"/>
      <point x="1010.0" y="80"/>
      <point x="1010.0" y="204" type="curve" smooth="yes"/>
      <point x="1010.0" y="327"/>
      <point x="1093.0" y="420.0"/>
      <point x="1214.0" y="420.0" type="curve" smooth="yes"/>
      <point x="1335.0" y="420.0"/>
      <point x="1418.0" y="327"/>
      <point x="1418.0" y="204" type="curve" smooth="yes"/>
      <point x="1418.0" y="80"/>
      <point x="1335" y="-14.0"/>
    </contour>
  </outline>
</glyph>
<glyph name="minute" format="2">
  <advance width="297"/>
  <unicode hex="2032"/>
  <outline>
    <contour>
      <point x="28.0" y="398.0" type="line"/>
      <point x="114.0" y="680.0" type="line"/>
      <point x="283.0" y="680.0" type="line"/>
      <point x="169.0" y="398.0" type="line"/>
    </contour>
  </outline>
</glyph>
<glyph name="second" format="2">
  <advance width="518"/>
  <unicode hex="2033"/>
  <outline>
    <contour>
      <point x="28.0" y="398.0" type="line"/>
      <point x="114.0" y="680.0" type="line"/>
      <point x="283.0" y="680.0" type="line"/>
      <point x="169.0" y="398.0" type="line"/>
    </contour>
    <contour>
      <point x="249.0" y="398.0" type="line"/>
      <point x="335.0" y="680.0" type="line"/>
      <point x="504.0" y="680.0" type="line"/>
      <point x="390.0" y="398.0" type="line"/>
    </contour>
  </outline>
</glyph>
<glyph name="guilsinglleft" format="2">
  <advance width="377"/>
  <unicode hex="2039"/>
  <outline>
    <contour>
      <point x="40" y="167" type="line"/>
      <point x="327" y="-19" type="line"/>
      <point x="327" y="167" type="line"/>
      <point x="40" y="344" type="line"/>
    </contour>
    <contour>
      <point x="40.0" y="354.0" type="line"/>
      <point x="40.0" y="182.0" type="line"/>
      <point x="327.0" y="357.0" type="line"/>
      <point x="327.0" y="540.0" type="line"/>
    </contour>
  </outline>
</glyph>
<glyph name="fraction" format="2">
  <advance width="568"/>
  <unicode hex="2044"/>
  <outline>
    <contour>
      <point x="17" y="0" type="line"/>
      <point x="155" y="0" type="line"/>
      <point x="551" y="680" type="line"/>
      <point x="413" y="680" type="line"/>
    </contour>
  </outline>
</glyph>
<glyph name="commercialminussign" format="2">
  <advance width="544"/>
  <unicode hex="2052"/>
  <outline>
    <contour>
      <point x="5" y="0" type="line"/>
      <point x="143" y="0" type="line"/>
      <point x="539" y="680" type="line"/>
      <point x="401" y="680" type="line"/>
    </contour>
    <contour>
      <point x="404" y="44" type="curve" smooth="yes"/>
      <point x="461" y="44"/>
      <point x="509" y="91"/>
      <point x="509" y="148" type="curve" smooth="yes"/>
      <point x="509" y="204"/>
      <point x="461" y="251"/>
      <point x="404" y="251" type="curve" smooth="yes"/>
      <point x="345" y="251"/>
      <point x="298" y="204"/>
      <point x="298" y="148" type="curve" smooth="yes"/>
      <point x="298" y="91"/>
      <point x="345" y="44"/>
    </contour>
    <contour>
      <point x="140" y="636" type="curve" smooth="yes"/>
      <point x="83" y="636"/>
      <point x="35" y="589"/>
      <point x="35" y="532" type="curve" smooth="yes"/>
      <point x="35" y="476"/>
      <point x="83" y="429"/>
      <point x="140" y="429" type="curve" smooth="yes"/>
      <point x="199" y="429"/>
      <point x="246" y="476"/>
      <point x="246" y="532" type="curve" smooth="yes"/>
      <point x="246" y="589"/>
      <point x="199" y="636"/>
    </contour>
  </outline>
</glyph>
<glyph name="four.superior" format="2">
  <advance width="434"/>
  <unicode hex="2074"/>
  <outline>
    <contour>
      <point x="30" y="457" type="line"/>
      <point x="109" y="357" type="line"/>
      <point x="278" y="680" type="line"/>
      <point x="161" y="680" type="line"/>
    </contour>
    <contour>
      <point x="218" y="271" type="line"/>
      <point x="344" y="271" type="line"/>
      <point x="344" y="680" type="line"/>
      <point x="218" y="680" type="line"/>
    </contour>
    <contour>
      <point x="30" y="350" type="line"/>
      <point x="399" y="350" type="line"/>
      <point x="399" y="457" type="line"/>
      <point x="30" y="457" type="line"/>
    </contour>
  </outline>
</glyph>
<glyph name="naira" format="2">
  <advance width="693"/>
  <unicode hex="20A6"/>
  <outline>
    <contour>
      <point x="125" y="0" type="line"/>
      <point x="297" y="0" type="line"/>
      <point x="297" y="680" type="line"/>
      <point x="125" y="680" type="line"/>
    </contour>
    <contour>
      <point x="456" y="0" type="line"/>
      <point x="628" y="0" type="line"/>
      <point x="628" y="680" type="line"/>
      <point x="456" y="680" type="line"/>
    </contour>
    <contour>
      <point x="151" y="680" type="line"/>
      <point x="452" y="0" type="line"/>
      <point x="602" y="0" type="line"/>
      <point x="301" y="680" type="line"/>
    </contour>
    <contour>
      <point x="317" y="498" type="line"/>
      <point x="65" y="498" type="line"/>
      <point x="65" y="393" type="line"/>
      <point x="317" y="393" type="line"/>
      <point x="357.0" y="403.0" type="line"/>
      <point x="523" y="403" type="line"/>
      <point x="563.0" y="393.0" type="line"/>
      <point x="688" y="393" type="line"/>
      <point x="688" y="498" type="line"/>
      <point x="563.0" y="498.0" type="line"/>
      <point x="523" y="508" type="line"/>
      <point x="357.0" y="508.0" type="line"/>
    </contour>
    <contour>
      <point x="436.0" y="183.0" type="line"/>
      <point x="688.0" y="183.0" type="line"/>
      <point x="688.0" y="288.0" type="line"/>
      <point x="436.0" y="288.0" type="line"/>
      <point x="396.0" y="278.0" type="line"/>
      <point x="230.0" y="278.0" type="line"/>
      <point x="190.0" y="288.0" type="line"/>
      <point x="65.0" y="288.0" type="line"/>
      <point x="65.0" y="183.0" type="line"/>
      <point x="190.0" y="183.0" type="line"/>
      <point x="230.0" y="173.0" type="line"/>
      <point x="396.0" y="173.0" type="line"/>
    </contour>
  </outline>
</glyph>
<glyph name="dong" format="2">
  <advance width="558"/>
  <unicode hex="20AB"/>
  <outline>
    <contour>
      <point x="332" y="140" type="line"/>
      <point x="332" y="251" type="line"/>
      <point x="380" y="321" type="line"/>
      <point x="332" y="361" type="line"/>
      <point x="332" y="680" type="line"/>
      <point x="478" y="680" type="line"/>
      <point x="478" y="140" type="line"/>
    </contour>
    <contour>
      <point x="271" y="253" type="curve" smooth="yes"/>
      <point x="310.42622950819674" y="253.0"/>
      <point x="336.0" y="280.0"/>
      <point x="336" y="319" type="curve" smooth="yes"/>
      <point x="336.0" y="358.0"/>
      <point x="310.42622950819674" y="384.0"/>
      <point x="271" y="384" type="curve" smooth="yes"/>
      <point x="230.50819672131146" y="384.0"/>
      <point x="206.0" y="359.0"/>
      <point x="206" y="319" type="curve" smooth="yes"/>
      <point x="206.0" y="278.5483870967742"/>
      <point x="230.0" y="253.0"/>
    </contour>
    <contour>
      <point x="390" y="377" type="curve"/>
      <point x="390" y="263" type="line"/>
      <point x="390.0" y="193.0"/>
      <point x="323.0" y="136.0"/>
      <point x="239" y="136" type="curve" smooth="yes"/>
      <point x="141.55621301775147" y="136.0"/>
      <point x="60.0" y="204.26943005181346"/>
      <point x="60" y="319" type="curve" smooth="yes"/>
      <point x="60.0" y="435.59375"/>
      <point x="141.58333333333334" y="501.0"/>
      <point x="238" y="501" type="curve" smooth="yes"/>
      <point x="323.0" y="501.0"/>
      <point x="390.0" y="446.0"/>
    </contour>
    <contour>
      <point x="528" y="542" type="line"/>
      <point x="238" y="542" type="line"/>
      <point x="238" y="630" type="line"/>
      <point x="528" y="630" type="line"/>
    </contour>
    <contour>
      <point x="508" y="0" type="line"/>
      <point x="50" y="0" type="line"/>
      <point x="50" y="93" type="line"/>
      <point x="508" y="93" type="line"/>
    </contour>
  </outline>
</glyph>
<glyph name="kip" format="2">
  <advance width="620"/>
  <unicode hex="20AD"/>
  <outline>
    <contour>
      <point x="210" y="353" type="line"/>
      <point x="416" y="0" type="line"/>
      <point x="625" y="0" type="line"/>
      <point x="365" y="402" type="line"/>
      <point x="344" y="288" type="line"/>
      <point x="613" y="680" type="line"/>
      <point x="415" y="680" type="line"/>
    </contour>
    <contour>
      <point x="85" y="0" type="line"/>
      <point x="260" y="0" type="line"/>
      <point x="260" y="680" type="line"/>
      <point x="85" y="680" type="line"/>
    </contour>
    <contour>
      <point x="30" y="290" type="line"/>
      <point x="566" y="290" type="line"/>
      <point x="566" y="415" type="line"/>
      <point x="30" y="415" type="line"/>
    </contour>
  </outline>
</glyph>
<glyph name="guarani" format="2">
  <advance width="558"/>
  <unicode hex="20B2"/>
  <outline>
    <contour>
      <point x="496" y="66" type="line"/>
      <point x="213" y="-49"/>
      <point x="31.0" y="100.0"/>
      <point x="31" y="335" type="curve" smooth="yes"/>
      <point x="31.0" y="565.0"/>
      <point x="200" y="714"/>
      <point x="480" y="627" type="curve"/>
      <point x="480" y="465" type="line"/>
      <point x="318.61467352774014" y="529.3561117834165"/>
      <point x="201.0" y="484.43283582089555"/>
      <point x="201" y="341" type="curve" smooth="yes"/>
      <point x="201.0" y="243.85227272727275"/>
      <point x="248.0" y="180.0"/>
      <point x="315" y="180" type="curve" smooth="yes"/>
      <point x="339" y="180.0"/>
      <point x="366" y="190"/>
      <point x="390" y="199" type="curve"/>
      <point x="335" y="115" type="line"/>
      <point x="335" y="329" type="line"/>
      <point x="371" y="266" type="line"/>
      <point x="275" y="266" type="line"/>
      <point x="275" y="410" type="line"/>
      <point x="496" y="410" type="line"/>
    </contour>
    <contour>
      <point x="224" y="590.0" type="line"/>
      <point x="236" y="770.0" type="line"/>
      <point x="385" y="770.0" type="line"/>
      <point x="373" y="590.0" type="line"/>
    </contour>
    <contour>
      <point x="179" y="-100.0" type="line"/>
      <point x="192" y="79.0" type="line"/>
      <point x="341" y="79.0" type="line"/>
      <point x="328" y="-100.0" type="line"/>
    </contour>
  </outline>
</glyph>
<glyph name="cedi" format="2">
  <advance width="506"/>
  <unicode hex="20B5"/>
  <outline>
    <contour>
      <point x="31" y="340" type="curve" smooth="yes"/>
      <point x="31" y="109"/>
      <point x="211" y="-29"/>
      <point x="456" y="45" type="curve"/>
      <point x="456" y="207" type="line"/>
      <point x="331" y="149"/>
      <point x="203" y="188"/>
      <point x="203" y="340" type="curve" smooth="yes"/>
      <point x="203" y="492"/>
      <point x="331" y="531"/>
      <point x="456" y="473" type="curve"/>
      <point x="456" y="635" type="line"/>
      <point x="211" y="708"/>
      <point x="31" y="570"/>
    </contour>
    <contour>
      <point x="243" y="590" type="line"/>
      <point x="392" y="590" type="line"/>
      <point x="404" y="770" type="line"/>
      <point x="255" y="770" type="line"/>
    </contour>
    <contour>
      <point x="198" y="-100" type="line"/>
      <point x="347" y="-100" type="line"/>
      <point x="360" y="79" type="line"/>
      <point x="211" y="79" type="line"/>
    </contour>
  </outline>
</glyph>
<glyph name="indianrupee" format="2">
  <advance width="586"/>
  <unicode hex="20B9"/>
  <outline>
    <contour>
      <point x="345" y="0" type="line"/>
      <point x="551" y="0" type="line"/>
      <point x="299" y="280" type="line"/>
      <point x="98" y="280" type="line"/>
    </contour>
    <contour>
      <point x="50" y="168" type="line"/>
      <point x="210" y="168" type="line" smooth="yes"/>
      <point x="364" y="168"/>
      <point x="479" y="266"/>
      <point x="479" y="421" type="curve" smooth="yes"/>
      <point x="479" y="576"/>
      <point x="362" y="680"/>
      <point x="186" y="680" type="curve" smooth="yes"/>
      <point x="50" y="680" type="line"/>
      <point x="50" y="532" type="line"/>
      <point x="206" y="532" type="line" smooth="yes"/>
      <point x="268" y="532"/>
      <point x="304" y="477"/>
      <point x="304" y="418" type="curve" smooth="yes"/>
      <point x="304" y="359"/>
      <point x="268" y="304"/>
      <point x="216" y="304" type="curve" smooth="yes"/>
      <point x="50" y="304" type="line"/>
    </contour>
    <contour>
      <point x="50" y="532" type="line"/>
      <point x="542" y="532" type="line"/>
      <point x="542" y="680" type="line"/>
      <point x="50" y="680" type="line"/>
    </contour>
    <contour>
      <point x="50" y="359" type="line"/>
      <point x="542" y="359" type="line"/>
      <point x="542" y="477" type="line"/>
      <point x="50" y="477" type="line"/>
    </contour>
  </outline>
</glyph>
<glyph name="turkishlira" format="2">
  <advance width="578"/>
  <unicode hex="20BA"/>
  <outline>
    <contour>
      <point x="90" y="0" type="line"/>
      <point x="265" y="0" type="line"/>
      <point x="265" y="680" type="line"/>
      <point x="90" y="680" type="line"/>
    </contour>
    <contour>
      <point x="398" y="274" type="line"/>
      <point x="398" y="197"/>
      <point x="361" y="162"/>
      <point x="308" y="162" type="curve" smooth="yes"/>
      <point x="175" y="162" type="line"/>
      <point x="175" y="0" type="line"/>
      <point x="312" y="0" type="line" smooth="yes"/>
      <point x="461" y="0"/>
      <point x="563" y="91"/>
      <point x="563" y="274" type="curve"/>
    </contour>
    <contour>
      <point x="35" y="413" type="line"/>
      <point x="461" y="513" type="line"/>
      <point x="461" y="618" type="line"/>
      <point x="35" y="518" type="line"/>
    </contour>
    <contour>
      <point x="35" y="263" type="line"/>
      <point x="461" y="363" type="line"/>
      <point x="461" y="468" type="line"/>
      <point x="35" y="368" type="line"/>
    </contour>
  </outline>
</glyph>
<glyph name="manat" format="2">
  <advance width="673"/>
  <unicode hex="20BC"/>
  <outline>
    <contour>
      <point x="618" y="384" type="line" smooth="yes"/>
      <point x="618" y="551"/>
      <point x="495" y="658"/>
      <point x="335" y="658" type="curve" smooth="yes"/>
      <point x="173" y="658"/>
      <point x="55" y="553"/>
      <point x="55" y="386" type="curve" smooth="yes"/>
      <point x="55.0" y="0.0" type="line"/>
      <point x="230.0" y="0.0" type="line"/>
      <point x="230" y="376" type="line" smooth="yes"/>
      <point x="230" y="448"/>
      <point x="274" y="496"/>
      <point x="337" y="496" type="curve" smooth="yes"/>
      <point x="399" y="496"/>
      <point x="443" y="448"/>
      <point x="443" y="376" type="curve" smooth="yes"/>
      <point x="443.0" y="0.0" type="line"/>
      <point x="618.0" y="0.0" type="line"/>
    </contour>
    <contour>
      <point x="389.0" y="92.0" type="line"/>
      <point x="389.0" y="750.0" type="line"/>
      <point x="284.0" y="750.0" type="line"/>
      <point x="284.0" y="92.0" type="line"/>
    </contour>
  </outline>
</glyph>
<glyph name="ruble" format="2">
  <advance width="588"/>
  <unicode hex="20BD"/>
  <outline>
    <contour>
      <point x="110" y="0" type="line"/>
      <point x="285" y="0" type="line"/>
      <point x="285" y="680" type="line"/>
      <point x="110" y="680" type="line"/>
    </contour>
    <contour>
      <point x="40" y="275" type="line"/>
      <point x="332" y="275" type="line" smooth="yes"/>
      <point x="458.2857142857143" y="275"/>
      <point x="553.0" y="355.96907216494844"/>
      <point x="553" y="479" type="curve" smooth="yes"/>
      <point x="553.0" y="599.0284360189573"/>
      <point x="459.0" y="680"/>
      <point x="318" y="680" type="curve" smooth="yes"/>
      <point x="235" y="680" type="line"/>
      <point x="235" y="523" type="line"/>
      <point x="318" y="523" type="line" smooth="yes"/>
      <point x="362" y="523"/>
      <point x="388" y="498"/>
      <point x="388" y="467" type="curve" smooth="yes"/>
      <point x="388" y="436"/>
      <point x="363" y="412"/>
      <point x="328" y="412" type="curve" smooth="yes"/>
      <point x="40" y="412" type="line"/>
    </contour>
    <contour>
      <point x="40" y="102" type="line"/>
      <point x="423" y="102" type="line"/>
      <point x="423" y="223" type="line"/>
      <point x="40" y="223" type="line"/>
    </contour>
  </outline>
</glyph>
<glyph name="arrowleft" format="2">
  <advance width="675"/>
  <unicode hex="2190"/>
  <outline>
    <contour>
      <point x="120" y="204" type="line"/>
      <point x="437" y="522" type="line"/>
      <point x="332" y="626" type="line"/>
      <point x="15" y="309" type="line"/>
    </contour>
    <contour>
      <point x="120" y="414" type="line"/>
      <point x="15" y="309" type="line"/>
      <point x="332" y="-8" type="line"/>
      <point x="437" y="96" type="line"/>
    </contour>
    <contour>
      <point x="115" y="231" type="line"/>
      <point x="650" y="231" type="line"/>
      <point x="650" y="386" type="line"/>
      <point x="115" y="386" type="line"/>
    </contour>
  </outline>
</glyph>
<glyph name="arrowup" format="2">
  <advance width="664"/>
  <unicode hex="2191"/>
  <outline>
    <contour>
      <point x="437" y="531" type="line"/>
      <point x="332" y="636" type="line"/>
      <point x="15" y="319" type="line"/>
      <point x="119" y="214" type="line"/>
    </contour>
    <contour>
      <point x="227" y="531" type="line"/>
      <point x="545" y="214" type="line"/>
      <point x="649" y="319" type="line"/>
      <point x="332" y="636" type="line"/>
    </contour>
    <contour>
      <point x="410" y="536" type="line"/>
      <point x="255" y="536" type="line"/>
      <point x="255" y="0" type="line"/>
      <point x="410" y="0" type="line"/>
    </contour>
  </outline>
</glyph>
<glyph name="arrowright" format="2">
  <advance width="675"/>
  <unicode hex="2192"/>
  <outline>
    <contour>
      <point x="555" y="204" type="line"/>
      <point x="660" y="309" type="line"/>
      <point x="343" y="626" type="line"/>
      <point x="238" y="522" type="line"/>
    </contour>
    <contour>
      <point x="555" y="414" type="line"/>
      <point x="238" y="96" type="line"/>
      <point x="343" y="-8" type="line"/>
      <point x="660" y="309" type="line"/>
    </contour>
    <contour>
      <point x="560" y="231" type="line"/>
      <point x="560" y="386" type="line"/>
      <point x="25" y="386" type="line"/>
      <point x="25" y="231" type="line"/>
    </contour>
  </outline>
</glyph>
<glyph name="arrowdown" format="2">
  <advance width="664"/>
  <unicode hex="2193"/>
  <outline>
    <contour>
      <point x="437" y="105" type="line"/>
      <point x="119" y="422" type="line"/>
      <point x="15" y="317" type="line"/>
      <point x="332" y="0" type="line"/>
    </contour>
    <contour>
      <point x="227" y="105" type="line"/>
      <point x="332" y="0" type="line"/>
      <point x="649" y="317" type="line"/>
      <point x="545" y="422" type="line"/>
    </contour>
    <contour>
      <point x="410" y="100" type="line"/>
      <point x="410" y="636" type="line"/>
      <point x="255" y="636" type="line"/>
      <point x="255" y="100" type="line"/>
    </contour>
  </outline>
</glyph>
<glyph name="arrowNW" format="2">
  <advance width="675"/>
  <unicode hex="2196"/>
  <outline>
    <contour>
      <point x="238" y="588" type="line"/>
      <point x="90" y="588" type="line"/>
      <point x="90" y="120" type="line"/>
      <point x="238" y="120" type="line"/>
    </contour>
    <contour>
      <point x="90" y="440" type="line"/>
      <point x="559" y="440" type="line"/>
      <point x="559" y="588" type="line"/>
      <point x="90" y="588" type="line"/>
    </contour>
    <contour>
      <point x="216" y="573" type="line"/>
      <point x="106" y="463" type="line"/>
      <point x="525" y="45" type="line"/>
      <point x="635" y="154" type="line"/>
    </contour>
  </outline>
</glyph>
<glyph name="arrowNE" format="2">
  <advance width="675"/>
  <unicode hex="2197"/>
  <outline>
    <contour>
      <point x="437" y="588" type="line"/>
      <point x="437" y="120" type="line"/>
      <point x="585" y="120" type="line"/>
      <point x="585" y="588" type="line"/>
    </contour>
    <contour>
      <point x="585" y="440" type="line"/>
      <point x="585" y="588" type="line"/>
      <point x="116" y="588" type="line"/>
      <point x="116" y="440" type="line"/>
    </contour>
    <contour>
      <point x="459" y="573" type="line"/>
      <point x="40" y="154" type="line"/>
      <point x="150" y="45" type="line"/>
      <point x="569" y="463" type="line"/>
    </contour>
  </outline>
</glyph>
<glyph name="arrowSE" format="2">
  <advance width="675"/>
  <unicode hex="2198"/>
  <outline>
    <contour>
      <point x="437" y="45" type="line"/>
      <point x="585" y="45" type="line"/>
      <point x="585" y="513" type="line"/>
      <point x="437" y="513" type="line"/>
    </contour>
    <contour>
      <point x="585" y="193" type="line"/>
      <point x="116" y="193" type="line"/>
      <point x="116" y="45" type="line"/>
      <point x="585" y="45" type="line"/>
    </contour>
    <contour>
      <point x="459" y="60" type="line"/>
      <point x="569" y="170" type="line"/>
      <point x="150" y="588" type="line"/>
      <point x="40" y="479" type="line"/>
    </contour>
  </outline>
</glyph>
<glyph name="arrowSW" format="2">
  <advance width="675"/>
  <unicode hex="2199"/>
  <outline>
    <contour>
      <point x="238" y="45" type="line"/>
      <point x="238" y="513" type="line"/>
      <point x="90" y="513" type="line"/>
      <point x="90" y="45" type="line"/>
    </contour>
    <contour>
      <point x="90" y="193" type="line"/>
      <point x="90" y="45" type="line"/>
      <point x="559" y="45" type="line"/>
      <point x="559" y="193" type="line"/>
    </contour>
    <contour>
      <point x="216" y="60" type="line"/>
      <point x="635" y="479" type="line"/>
      <point x="525" y="588" type="line"/>
      <point x="106" y="170" type="line"/>
    </contour>
  </outline>
</glyph>
<glyph name="minus" format="2">
  <advance width="476"/>
  <unicode hex="2212"/>
  <outline>
    <contour>
      <point x="40" y="231" type="line"/>
      <point x="436" y="231" type="line"/>
      <point x="436" y="386" type="line"/>
      <point x="40" y="386" type="line"/>
    </contour>
  </outline>
</glyph>
<glyph name="divisionslash" format="2">
  <advance width="518"/>
  <unicode hex="2215"/>
  <outline>
    <contour>
      <point x="-25" y="-70" type="line"/>
      <point x="147" y="-70" type="line"/>
      <point x="543" y="730" type="line"/>
      <point x="371" y="730" type="line"/>
    </contour>
  </outline>
</glyph>
<glyph name="Germandbls" format="2">
  <advance width="656"/>
  <outline>
    <contour>
      <point x="317" y="524" type="line" smooth="yes"/>
      <point x="272" y="524"/>
      <point x="240.0" y="488.0"/>
      <point x="240" y="434" type="curve"/>
      <point x="240" y="0" type="line"/>
      <point x="65" y="0" type="line"/>
      <point x="65" y="438" type="line" smooth="yes"/>
      <point x="65" y="586.8492063492064"/>
      <point x="170" y="680"/>
      <point x="315" y="680" type="curve" smooth="yes"/>
      <point x="590.0" y="680.0" type="line"/>
      <point x="590.0" y="524.0" type="line"/>
    </contour>
    <contour>
      <point x="444" y="329" type="line"/>
      <point x="590" y="524" type="line"/>
      <point x="395" y="524" type="line"/>
      <point x="300" y="399" type="line"/>
    </contour>
    <contour>
      <point x="631.0" y="196" type="curve" smooth="yes"/>
      <point x="631" y="317"/>
      <point x="548.0" y="383.0"/>
      <point x="428" y="408" type="curve"/>
      <point x="300" y="399" type="line"/>
      <point x="300" y="284" type="line"/>
      <point x="412.0" y="264.0"/>
      <point x="451" y="241"/>
      <point x="451.0" y="199" type="curve" smooth="yes"/>
      <point x="451" y="149"/>
      <point x="385" y="134"/>
      <point x="291" y="158" type="curve"/>
      <point x="291" y="3" type="line"/>
      <point x="497" y="-39"/>
      <point x="631" y="45"/>
    </contour>
  </outline>
</glyph>
<glyph name="K.alt" format="2">
  <advance width="645"/>
  <outline>
    <contour>
      <point x="65" y="0" type="line"/>
      <point x="240" y="0" type="line"/>
      <point x="240" y="680" type="line"/>
      <point x="65" y="680" type="line"/>
    </contour>
    <contour>
      <point x="65" y="271" type="line"/>
      <point x="240" y="239" type="line"/>
      <point x="635" y="680" type="line"/>
      <point x="430" y="680" type="line"/>
    </contour>
    <contour>
      <point x="180" y="436" type="line"/>
      <point x="445.0" y="0.0" type="line"/>
      <point x="645.0" y="0.0" type="line"/>
      <point x="375" y="436" type="line"/>
    </contour>
  </outline>
</glyph>
<glyph name="Lslash" format="2">
  <advance width="508"/>
  <outline>
    <contour>
      <point x="20.0" y="262.0" type="line"/>
      <point x="395.0" y="362.0" type="line"/>
      <point x="395.0" y="517.0" type="line"/>
      <point x="20.0" y="417.0" type="line"/>
    </contour>
    <component base="L" xOffset="25"/>
  </outline>
</glyph>
<glyph name="Oogonek" format="2">
  <advance width="736"/>
  <anchor x="368.0" y="695.0" name="above"/>
  <anchor x="368.0" y="0" name="below"/>
  <outline>
    <contour>
      <point x="368" y="146" type="curve" smooth="yes"/>
      <point x="271" y="146"/>
      <point x="210" y="225"/>
      <point x="210" y="341" type="curve" smooth="yes"/>
      <point x="210" y="457"/>
      <point x="271" y="534"/>
      <point x="368" y="534" type="curve" smooth="yes"/>
      <point x="465" y="534"/>
      <point x="526" y="456"/>
      <point x="526" y="341" type="curve" smooth="yes"/>
      <point x="526" y="225"/>
      <point x="465" y="146"/>
    </contour>
    <contour>
      <point x="463" y="78" type="line"/>
      <point x="285" y="34"/>
      <point x="239" y="-23"/>
      <point x="239" y="-94" type="curve" smooth="yes"/>
      <point x="239" y="-182"/>
      <point x="326" y="-252"/>
      <point x="488" y="-196" type="curve"/>
      <point x="488" y="-70" type="line"/>
      <point x="425" y="-90"/>
      <point x="381" y="-87"/>
      <point x="381" y="-57" type="curve" smooth="yes"/>
      <point x="381" y="-20"/>
      <point x="426.0" y="-18.0"/>
      <point x="498.0" y="13.0" type="curve" smooth="yes" identifier="bO4Ty7FVVS"/>
      <point x="622" y="66"/>
      <point x="705" y="186"/>
      <point x="705" y="341" type="curve" smooth="yes"/>
      <point x="705" y="546"/>
      <point x="563" y="696"/>
      <point x="368" y="696" type="curve" smooth="yes"/>
      <point x="172" y="696"/>
      <point x="31" y="546"/>
      <point x="31" y="341" type="curve" smooth="yes"/>
      <point x="31" y="135"/>
      <point x="172" y="-16"/>
      <point x="368" y="-16" type="curve"/>
    </contour>
  </outline>
</glyph>
<glyph name="R.alt" format="2">
  <advance width="636"/>
  <outline>
    <contour>
      <point x="65" y="0" type="line"/>
      <point x="240" y="0" type="line"/>
      <point x="240" y="680" type="line"/>
      <point x="65" y="680" type="line"/>
    </contour>
    <contour>
      <point x="434" y="0" type="line"/>
      <point x="631" y="0" type="line"/>
      <point x="427" y="340" type="line"/>
      <point x="248" y="340" type="line"/>
    </contour>
    <contour>
      <point x="190" y="209" type="line"/>
      <point x="347" y="209" type="line" smooth="yes"/>
      <point x="485" y="209"/>
      <point x="588.0" y="303"/>
      <point x="588" y="444" type="curve" smooth="yes"/>
      <point x="588.0" y="585"/>
      <point x="486.0" y="680.0"/>
      <point x="333" y="680" type="curve" smooth="yes"/>
      <point x="190" y="680" type="line"/>
      <point x="190" y="518" type="line"/>
      <point x="335" y="518" type="line" smooth="yes"/>
      <point x="385" y="518"/>
      <point x="415.0" y="486"/>
      <point x="415" y="441" type="curve" smooth="yes"/>
      <point x="415.0" y="396"/>
      <point x="386" y="364"/>
      <point x="345" y="364" type="curve" smooth="yes"/>
      <point x="190" y="364" type="line"/>
    </contour>
  </outline>
</glyph>
<glyph name="Uogonek" format="2">
  <advance width="673"/>
  <anchor x="443" y="680" name="horn"/>
  <anchor x="336.0" y="0" name="below"/>
  <anchor x="336.0" y="680.0" name="above"/>
  <outline>
    <contour>
      <point x="432.0" y="78.0" type="line"/>
      <point x="254.0" y="34.0"/>
      <point x="208.0" y="-23.0"/>
      <point x="208.0" y="-94.0" type="curve" smooth="yes"/>
      <point x="208.0" y="-182.0"/>
      <point x="295.0" y="-252.0"/>
      <point x="457.0" y="-196.0" type="curve"/>
      <point x="457.0" y="-70.0" type="line"/>
      <point x="394.0" y="-90.0"/>
      <point x="350.0" y="-87.0"/>
      <point x="350.0" y="-57.0" type="curve" smooth="yes"/>
      <point x="350.0" y="-20.0"/>
      <point x="396" y="-19"/>
      <point x="467.0" y="13.0" type="curve" smooth="yes"/>
      <point x="558" y="54"/>
      <point x="618" y="142"/>
      <point x="618" y="258" type="curve" smooth="yes"/>
      <point x="618" y="680" type="line"/>
      <point x="443" y="680" type="line"/>
      <point x="443" y="266" type="line" smooth="yes"/>
      <point x="443" y="194"/>
      <point x="399" y="146"/>
      <point x="337" y="146" type="curve" smooth="yes"/>
      <point x="274" y="146"/>
      <point x="230" y="194"/>
      <point x="230" y="266" type="curve" smooth="yes"/>
      <point x="230" y="680" type="line"/>
      <point x="55" y="680" type="line"/>
      <point x="55" y="256" type="line" smooth="yes"/>
      <point x="55" y="89"/>
      <point x="173" y="-16"/>
      <point x="335" y="-16" type="curve"/>
    </contour>
  </outline>
</glyph>
<glyph name="Z.flat" format="2">
  <advance width="560"/>
  <outline>
    <contour>
      <point x="35" y="522" type="line"/>
      <point x="525" y="522" type="line"/>
      <point x="525" y="680" type="line"/>
      <point x="35" y="680" type="line"/>
    </contour>
    <contour>
      <point x="35" y="0" type="line"/>
      <point x="525" y="0" type="line"/>
      <point x="525" y="158" type="line"/>
      <point x="35" y="158" type="line"/>
    </contour>
    <contour>
      <point x="240" y="158" type="line"/>
      <point x="525" y="522" type="line"/>
      <point x="320" y="522" type="line"/>
      <point x="35" y="158" type="line"/>
    </contour>
  </outline>
</glyph>
<glyph name="Z.sharp" format="2">
  <advance width="588"/>
  <outline>
    <contour>
      <point x="44.0" y="522.0" type="line"/>
      <point x="446.0" y="522.0" type="line"/>
      <point x="546.0" y="680.0" type="line"/>
      <point x="44.0" y="680.0" type="line"/>
    </contour>
    <contour>
      <point x="32" y="0" type="line"/>
      <point x="544" y="0" type="line"/>
      <point x="544" y="158" type="line"/>
      <point x="132" y="158" type="line"/>
    </contour>
    <contour>
      <point x="573.0" y="680.0" type="line"/>
      <point x="384.0" y="680.0" type="line"/>
      <point x="15" y="0" type="line"/>
      <point x="204" y="0" type="line"/>
    </contour>
  </outline>
</glyph>
<glyph name="a.alt" format="2">
  <advance width="543"/>
  <anchor x="262" y="517" name="center"/>
  <anchor x="0" y="517" name="top"/>
  <anchor x="0" y="0" name="bottom"/>
  <outline>
    <contour>
      <point x="63" y="339" type="curve" name="HOJFQFTZ"/>
      <point x="63" y="500" type="line" name="JHBGRMMR"/>
      <point x="288" y="578" name="YCFFYAGN"/>
      <point x="496.0" y="533.0" name="WIODBZYU"/>
      <point x="496" y="315" type="curve" smooth="yes" name="VQQSUTLZ"/>
      <point x="496" y="0" type="line"/>
      <point x="333" y="0" type="line"/>
      <point x="333" y="117" type="line"/>
      <point x="351" y="201" type="line"/>
      <point x="335" y="242" type="line"/>
      <point x="335" y="310" type="line" smooth="yes"/>
      <point x="335.0" y="389.0"/>
      <point x="194" y="409"/>
    </contour>
    <contour>
      <point x="333" y="207" type="curve"/>
      <point x="236" y="224"/>
      <point x="192" y="206"/>
      <point x="192" y="163" type="curve" smooth="yes"/>
      <point x="192" y="134"/>
      <point x="213" y="118"/>
      <point x="248" y="118" type="curve" smooth="yes"/>
      <point x="298" y="118"/>
      <point x="333" y="156"/>
    </contour>
    <contour>
      <point x="399" y="156" type="line"/>
      <point x="399" y="83"/>
      <point x="323" y="-17"/>
      <point x="201" y="-17" type="curve" smooth="yes"/>
      <point x="108" y="-17"/>
      <point x="29" y="44"/>
      <point x="29" y="149" type="curve" smooth="yes"/>
      <point x="29" y="303"/>
      <point x="198" y="360"/>
      <point x="399" y="303" type="curve"/>
    </contour>
  </outline>
</glyph>
<glyph name="acute.cap" format="2">
  <advance width="408"/>
  <anchor x="0" y="680.0" name="top"/>
  <anchor x="154" y="680.0" name="center"/>
  <outline>
    <contour>
      <point x="70.0" y="747.0" type="line"/>
      <point x="179.0" y="943.0" type="line"/>
      <point x="358.0" y="943.0" type="line"/>
      <point x="224.0" y="747.0" type="line"/>
    </contour>
  </outline>
</glyph>
<glyph name="ae.alt" format="2">
  <advance width="875"/>
  <anchor x="0" y="517" name="top"/>
  <anchor x="410" y="0" name="center"/>
  <anchor x="0" y="0" name="bottom"/>
  <outline>
    <contour>
      <point x="63" y="339" type="curve" name="HOJFQFTZ"/>
      <point x="63" y="500" type="line" name="JHBGRMMR"/>
      <point x="288" y="578" name="YCFFYAGN"/>
      <point x="496" y="533" name="WIODBZYU"/>
      <point x="496" y="315" type="curve" smooth="yes" name="VQQSUTLZ"/>
      <point x="496" y="171" type="line"/>
      <point x="486" y="139" type="line"/>
      <point x="486" y="0" type="line"/>
      <point x="333" y="0" type="line"/>
      <point x="333" y="117" type="line"/>
      <point x="351" y="201" type="line"/>
      <point x="335" y="242" type="line"/>
      <point x="335" y="310" type="line" smooth="yes"/>
      <point x="335" y="389"/>
      <point x="194" y="409"/>
    </contour>
    <contour>
      <point x="333" y="207" type="curve"/>
      <point x="236" y="224"/>
      <point x="192" y="206"/>
      <point x="192" y="163" type="curve" smooth="yes"/>
      <point x="192" y="134"/>
      <point x="213" y="118"/>
      <point x="248" y="118" type="curve" smooth="yes"/>
      <point x="298" y="118"/>
      <point x="333" y="156"/>
    </contour>
    <contour>
      <point x="399" y="156" type="line"/>
      <point x="399" y="83"/>
      <point x="323" y="-17"/>
      <point x="201" y="-17" type="curve" smooth="yes"/>
      <point x="108" y="-17"/>
      <point x="29" y="44"/>
      <point x="29" y="149" type="curve" smooth="yes"/>
      <point x="29" y="303"/>
      <point x="198" y="360"/>
      <point x="399" y="303" type="curve"/>
    </contour>
    <contour>
      <point x="697" y="256" type="line"/>
      <point x="697" y="346"/>
      <point x="655" y="385"/>
      <point x="598" y="385" type="curve" smooth="yes"/>
      <point x="542" y="385"/>
      <point x="496" y="342"/>
      <point x="496" y="252" type="curve" smooth="yes"/>
      <point x="496" y="128"/>
      <point x="639" y="102"/>
      <point x="808" y="166" type="curve"/>
      <point x="808" y="24" type="line"/>
      <point x="578" y="-74"/>
      <point x="365" y="31"/>
      <point x="365" y="269" type="curve" smooth="yes"/>
      <point x="365" y="425"/>
      <point x="447" y="533"/>
      <point x="602" y="533" type="curve" smooth="yes"/>
      <point x="774" y="533"/>
      <point x="872" y="383"/>
      <point x="837" y="198" type="curve"/>
      <point x="437" y="198" type="line"/>
      <point x="437" y="320" type="line"/>
      <point x="758" y="320" type="line"/>
    </contour>
  </outline>
</glyph>
<glyph name="aogonek.alt" format="2">
  <advance width="543"/>
  <anchor x="0" y="517" name="above"/>
  <anchor x="262" y="0" name="center"/>
  <anchor x="0" y="0" name="below"/>
  <anchor x="321.0" y="517" name="above"/>
  <anchor x="321.0" y="0" name="below"/>
  <outline>
    <contour>
      <point x="63" y="339" type="curve" name="HOJFQFTZ"/>
      <point x="63" y="500" type="line" name="JHBGRMMR"/>
      <point x="288" y="578" name="YCFFYAGN"/>
      <point x="496" y="533" name="WIODBZYU"/>
      <point x="496" y="315" type="curve" smooth="yes" name="VQQSUTLZ"/>
      <point x="496" y="0" type="line"/>
      <point x="333" y="0" type="line"/>
      <point x="333" y="117" type="line"/>
      <point x="351" y="201" type="line"/>
      <point x="335" y="242" type="line"/>
      <point x="335" y="310" type="line" smooth="yes"/>
      <point x="335" y="389"/>
      <point x="194" y="409"/>
    </contour>
    <contour>
      <point x="333" y="207" type="curve"/>
      <point x="236" y="224"/>
      <point x="192" y="206"/>
      <point x="192" y="163" type="curve" smooth="yes"/>
      <point x="192" y="134"/>
      <point x="213" y="118"/>
      <point x="248" y="118" type="curve" smooth="yes"/>
      <point x="298" y="118"/>
      <point x="333" y="156"/>
    </contour>
    <contour>
      <point x="399" y="186" type="line"/>
      <point x="399" y="113"/>
      <point x="323" y="-17"/>
      <point x="192" y="-17" type="curve" smooth="yes"/>
      <point x="108" y="-17"/>
      <point x="29" y="44"/>
      <point x="29" y="149" type="curve" smooth="yes"/>
      <point x="29" y="303"/>
      <point x="198" y="360"/>
      <point x="399" y="303" type="curve"/>
    </contour>
    <contour>
      <point x="471" y="74" type="curve"/>
      <point x="496" y="0" type="line"/>
      <point x="423" y="-22"/>
      <point x="389" y="-39"/>
      <point x="389" y="-64" type="curve" smooth="yes"/>
      <point x="389" y="-94"/>
      <point x="433" y="-94"/>
      <point x="496" y="-74" type="curve"/>
      <point x="496" y="-200" type="line"/>
      <point x="343" y="-253"/>
      <point x="257.0" y="-197"/>
      <point x="257.0" y="-110" type="curve" smooth="yes"/>
      <point x="257.0" y="-47"/>
      <point x="299" y="2"/>
    </contour>
  </outline>
</glyph>
<glyph name="aogonek" format="2">
  <advance width="620"/>
  <outline>
    <contour>
      <point x="400" y="0" type="line"/>
      <point x="565" y="0" type="line"/>
      <point x="565" y="517" type="line"/>
      <point x="400" y="517" type="line"/>
      <point x="400" y="361" type="line"/>
      <point x="448" y="261" type="line"/>
      <point x="400" y="131" type="line"/>
    </contour>
    <contour>
      <point x="298" y="132" type="curve" smooth="yes"/>
      <point x="233" y="132"/>
      <point x="192" y="182"/>
      <point x="192" y="259" type="curve" smooth="yes"/>
      <point x="192" y="336"/>
      <point x="233" y="385"/>
      <point x="298" y="385" type="curve" smooth="yes"/>
      <point x="362" y="385"/>
      <point x="404" y="335"/>
      <point x="404" y="259" type="curve" smooth="yes"/>
      <point x="404" y="183"/>
      <point x="362" y="132"/>
    </contour>
    <contour>
      <point x="468" y="347" type="line"/>
      <point x="468" y="450"/>
      <point x="384" y="531"/>
      <point x="275" y="531" type="curve" smooth="yes"/>
      <point x="141" y="531"/>
      <point x="27" y="423"/>
      <point x="27" y="259" type="curve" smooth="yes"/>
      <point x="27.0" y="97.0"/>
      <point x="136" y="-14.0"/>
      <point x="266" y="-14" type="curve" smooth="yes"/>
      <point x="380" y="-14.0"/>
      <point x="458.0" y="80.0"/>
      <point x="458" y="183" type="curve"/>
    </contour>
    <contour>
      <point x="540" y="74" type="line"/>
      <point x="368" y="2"/>
      <point x="326.0" y="-47"/>
      <point x="326.0" y="-110" type="curve" smooth="yes"/>
      <point x="326.0" y="-197"/>
      <point x="412" y="-253"/>
      <point x="565" y="-200" type="curve"/>
      <point x="565" y="-74" type="line"/>
      <point x="502" y="-94"/>
      <point x="458" y="-94"/>
      <point x="458" y="-64" type="curve" smooth="yes"/>
      <point x="458" y="-39"/>
      <point x="492" y="-22"/>
      <point x="565" y="0" type="curve"/>
    </contour>
  </outline>
</glyph>
<glyph name="arrowNE.circle" format="2">
  <advance width="820"/>
  <outline>
    <contour>
      <point x="582" y="512" type="line"/>
      <point x="244" y="512" type="line"/>
      <point x="244" y="402" type="line"/>
      <point x="388" y="402" type="line"/>
      <point x="202" y="217" type="line"/>
      <point x="286" y="133" type="line"/>
      <point x="471" y="319" type="line"/>
      <point x="471" y="174" type="line"/>
      <point x="582" y="174" type="line"/>
    </contour>
    <contour>
      <point x="55" y="341" type="curve" smooth="yes"/>
      <point x="55" y="537"/>
      <point x="215" y="696"/>
      <point x="410" y="696" type="curve" smooth="yes"/>
      <point x="605" y="696"/>
      <point x="765" y="537"/>
      <point x="765" y="341" type="curve" smooth="yes"/>
      <point x="765" y="145"/>
      <point x="605" y="-14"/>
      <point x="410" y="-14" type="curve" smooth="yes"/>
      <point x="215" y="-14"/>
      <point x="55" y="145"/>
    </contour>
  </outline>
</glyph>
<glyph name="arrowNW.circle" format="2">
  <advance width="820"/>
  <outline>
    <contour>
      <point x="238" y="512" type="line"/>
      <point x="238" y="174" type="line"/>
      <point x="349" y="174" type="line"/>
      <point x="349" y="319" type="line"/>
      <point x="534" y="133" type="line"/>
      <point x="618" y="217" type="line"/>
      <point x="432" y="402" type="line"/>
      <point x="576" y="402" type="line"/>
      <point x="576" y="512" type="line"/>
    </contour>
    <contour>
      <point x="765" y="341" type="curve" smooth="yes"/>
      <point x="765" y="145"/>
      <point x="605" y="-14"/>
      <point x="410" y="-14" type="curve" smooth="yes"/>
      <point x="215" y="-14"/>
      <point x="55" y="145"/>
      <point x="55" y="341" type="curve" smooth="yes"/>
      <point x="55" y="537"/>
      <point x="215" y="696"/>
      <point x="410" y="696" type="curve" smooth="yes"/>
      <point x="605" y="696"/>
      <point x="765" y="537"/>
    </contour>
  </outline>
</glyph>
<glyph name="arrowSW.circle" format="2">
  <advance width="820"/>
  <outline>
    <contour>
      <point x="238" y="170" type="line"/>
      <point x="576" y="170" type="line"/>
      <point x="576" y="280" type="line"/>
      <point x="432" y="280" type="line"/>
      <point x="618" y="465" type="line"/>
      <point x="534" y="549" type="line"/>
      <point x="349" y="363" type="line"/>
      <point x="349" y="508" type="line"/>
      <point x="238" y="508" type="line"/>
    </contour>
    <contour>
      <point x="765" y="341" type="curve" smooth="yes"/>
      <point x="765" y="145"/>
      <point x="605" y="-14"/>
      <point x="410" y="-14" type="curve" smooth="yes"/>
      <point x="215" y="-14"/>
      <point x="55" y="145"/>
      <point x="55" y="341" type="curve" smooth="yes"/>
      <point x="55" y="537"/>
      <point x="215" y="696"/>
      <point x="410" y="696" type="curve" smooth="yes"/>
      <point x="605" y="696"/>
      <point x="765" y="537"/>
    </contour>
  </outline>
</glyph>
<glyph name="arrowdown.circle" format="2">
  <advance width="820"/>
  <outline>
    <contour>
      <point x="410.0" y="-14.0" type="curve" smooth="yes"/>
      <point x="214.0" y="-14.0"/>
      <point x="55.0" y="146.0"/>
      <point x="55.0" y="341.0" type="curve" smooth="yes"/>
      <point x="55.0" y="536.0"/>
      <point x="214.0" y="696.0"/>
      <point x="410.0" y="696.0" type="curve" smooth="yes"/>
      <point x="606.0" y="696.0"/>
      <point x="765.0" y="536.0"/>
      <point x="765.0" y="341.0" type="curve" smooth="yes"/>
      <point x="765.0" y="146.0"/>
      <point x="606.0" y="-14.0"/>
    </contour>
    <contour>
      <point x="410.0" y="582.0" type="line"/>
      <point x="171.0" y="344.0" type="line"/>
      <point x="249.0" y="265.0" type="line"/>
      <point x="351.0" y="366.0" type="line"/>
      <point x="351.0" y="105.0" type="line"/>
      <point x="469.0" y="105.0" type="line"/>
      <point x="469.0" y="366.0" type="line"/>
      <point x="571.0" y="265.0" type="line"/>
      <point x="649.0" y="344.0" type="line"/>
    </contour>
  </outline>
</glyph>
<glyph name="arrowleft.circle" format="2">
  <advance width="820"/>
  <outline>
    <contour>
      <point x="765" y="341" type="curve" smooth="yes"/>
      <point x="765" y="145"/>
      <point x="605" y="-14"/>
      <point x="410" y="-14" type="curve" smooth="yes"/>
      <point x="215" y="-14"/>
      <point x="55" y="145"/>
      <point x="55" y="341" type="curve" smooth="yes"/>
      <point x="55" y="537"/>
      <point x="215" y="696"/>
      <point x="410" y="696" type="curve" smooth="yes"/>
      <point x="605" y="696"/>
      <point x="765" y="537"/>
    </contour>
    <contour>
      <point x="169" y="341" type="line"/>
      <point x="407" y="102" type="line"/>
      <point x="486" y="180" type="line"/>
      <point x="385" y="282" type="line"/>
      <point x="646" y="282" type="line"/>
      <point x="646" y="400" type="line"/>
      <point x="385" y="400" type="line"/>
      <point x="486" y="502" type="line"/>
      <point x="407" y="580" type="line"/>
    </contour>
  </outline>
</glyph>
<glyph name="caroncmb.alt" format="2">
  <outline>
    <contour>
      <point x="-99.0" y="498.0" type="line"/>
      <point x="-60.0" y="730.0" type="line"/>
      <point x="99.0" y="730.0" type="line"/>
      <point x="45.0" y="498.0" type="line"/>
    </contour>
  </outline>
</glyph>
<glyph name="circumflex.cap" format="2">
  <advance width="562"/>
  <anchor x="0" y="680.0" name="top"/>
  <anchor x="280" y="680.0" name="center"/>
  <outline>
    <contour>
      <point x="348.0" y="943.0" type="line"/>
      <point x="229.0" y="747.0" type="line"/>
      <point x="60.0" y="747.0" type="line"/>
      <point x="194.0" y="943.0" type="line"/>
    </contour>
    <contour>
      <point x="214.0" y="943.0" type="line"/>
      <point x="368.0" y="943.0" type="line"/>
      <point x="502.0" y="747.0" type="line"/>
      <point x="333.0" y="747.0" type="line"/>
    </contour>
  </outline>
</glyph>
<glyph name="comma.alt" format="2">
  <advance width="297"/>
  <outline>
    <contour>
      <point x="42.0" y="-101.0" type="line"/>
      <point x="86.0" y="-5.0"/>
      <point x="89.0" y="91.0"/>
      <point x="61.0" y="181.0" type="curve"/>
      <point x="230" y="181.0" type="line"/>
      <point x="253" y="91.0"/>
      <point x="245" y="-5.0"/>
      <point x="196.0" y="-101.0" type="curve"/>
    </contour>
  </outline>
</glyph>
<glyph name="dieresis.cap" format="2">
  <advance width="577"/>
  <anchor x="0" y="680.0" name="top"/>
  <anchor x="288" y="680.0" name="center"/>
  <outline>
    <contour>
      <point x="169.0" y="739.0" type="curve" smooth="yes"/>
      <point x="225.0" y="739.0"/>
      <point x="272.0" y="785.0"/>
      <point x="272.0" y="841.0" type="curve" smooth="yes"/>
      <point x="272.0" y="896.0"/>
      <point x="225.0" y="942.0"/>
      <point x="169.0" y="942.0" type="curve" smooth="yes"/>
      <point x="111.0" y="942.0"/>
      <point x="65.0" y="896.0"/>
      <point x="65.0" y="841.0" type="curve" smooth="yes"/>
      <point x="65.0" y="785.0"/>
      <point x="111.0" y="739.0"/>
    </contour>
    <contour>
      <point x="409.0" y="739.0" type="curve" smooth="yes"/>
      <point x="465.0" y="739.0"/>
      <point x="512.0" y="785.0"/>
      <point x="512.0" y="841.0" type="curve" smooth="yes"/>
      <point x="512.0" y="896.0"/>
      <point x="465.0" y="942.0"/>
      <point x="409.0" y="942.0" type="curve" smooth="yes"/>
      <point x="351.0" y="942.0"/>
      <point x="305.0" y="896.0"/>
      <point x="305.0" y="841.0" type="curve" smooth="yes"/>
      <point x="305.0" y="785.0"/>
      <point x="351.0" y="739.0"/>
    </contour>
  </outline>
</glyph>
<glyph name="dotlessj" format="2">
  <advance width="303"/>
  <anchor x="158.0" y="-160" name="below"/>
  <anchor x="158.0" y="517" name="above"/>
  <outline>
    <contour>
      <point x="80.0" y="32.0" type="line" smooth="yes"/>
      <point x="80.0" y="-23"/>
      <point x="56" y="-37"/>
      <point x="-8" y="-23" type="curve"/>
      <point x="-8" y="-166" type="line"/>
      <point x="145" y="-191"/>
      <point x="245.0" y="-149.0"/>
      <point x="245" y="19" type="curve" smooth="yes"/>
      <point x="245" y="517" type="line"/>
      <point x="80" y="517" type="line"/>
    </contour>
  </outline>
</glyph>
<glyph name="four.alt" format="2">
  <advance width="587"/>
  <outline>
    <contour>
      <point x="322" y="0" type="line"/>
      <point x="497" y="0" type="line"/>
      <point x="497" y="680" type="line"/>
      <point x="322" y="680" type="line"/>
    </contour>
    <contour>
      <point x="582" y="337" type="line"/>
      <point x="213" y="337" type="line"/>
      <point x="258" y="680" type="line"/>
      <point x="89" y="680" type="line"/>
      <point x="25" y="185" type="line"/>
      <point x="582" y="185" type="line"/>
    </contour>
  </outline>
</glyph>
<glyph name="grave.cap" format="2">
  <advance width="408"/>
  <anchor x="0" y="680.0" name="top"/>
  <anchor x="254" y="680.0" name="center"/>
  <outline>
    <contour>
      <point x="338.0" y="747.0" type="line"/>
      <point x="184.0" y="747.0" type="line"/>
      <point x="50.0" y="943.0" type="line"/>
      <point x="229.0" y="943.0" type="line"/>
    </contour>
  </outline>
</glyph>
<glyph name="hbar" format="2">
  <advance width="599"/>
  <outline>
    <contour>
      <point x="60" y="0" type="line"/>
      <point x="225" y="0" type="line"/>
      <point x="225" y="730" type="line"/>
      <point x="60" y="730" type="line"/>
    </contour>
    <contour>
      <point x="146" y="330" type="curve"/>
      <point x="225" y="278" type="line"/>
      <point x="225" y="335"/>
      <point x="256" y="367"/>
      <point x="309" y="367" type="curve" smooth="yes"/>
      <point x="362" y="367"/>
      <point x="386.0" y="331.0"/>
      <point x="386" y="278" type="curve" smooth="yes"/>
      <point x="386" y="0" type="line"/>
      <point x="551" y="0" type="line"/>
      <point x="551" y="300" type="line" smooth="yes"/>
      <point x="551.0" y="435.0"/>
      <point x="472" y="517"/>
      <point x="358" y="517" type="curve" smooth="yes"/>
      <point x="235" y="517"/>
      <point x="146" y="433"/>
    </contour>
    <contour>
      <point x="-10" y="537" type="line"/>
      <point x="330" y="537" type="line"/>
      <point x="330" y="680" type="line"/>
      <point x="-10" y="680" type="line"/>
    </contour>
  </outline>
</glyph>
<glyph name="lslash" format="2">
  <advance width="345"/>
  <anchor x="142.0" y="730" name="above"/>
  <anchor x="142.0" y="0" name="below"/>
  <outline>
    <contour>
      <point x="325.0" y="362.0" type="line"/>
      <point x="325.0" y="517.0" type="line"/>
      <point x="20.0" y="436.0" type="line"/>
      <point x="20.0" y="281.0" type="line"/>
    </contour>
    <component base="l" xOffset="30"/>
  </outline>
</glyph>
<glyph name="macron.cap" format="2">
  <advance width="490"/>
  <anchor x="0" y="680.0" name="top"/>
  <anchor x="245" y="680.0" name="center"/>
  <outline>
    <contour>
      <point x="60.0" y="758.0" type="line"/>
      <point x="430.0" y="758.0" type="line"/>
      <point x="430.0" y="903.0" type="line"/>
      <point x="60.0" y="903.0" type="line"/>
    </contour>
  </outline>
</glyph>
<glyph name="oogonek" format="2">
  <advance width="600"/>
  <anchor x="299.0" y="527.0" name="above"/>
  <anchor x="300.0" y="0" name="below"/>
  <outline>
    <contour>
      <point x="300" y="133" type="curve" smooth="yes"/>
      <point x="235" y="133"/>
      <point x="192" y="185"/>
      <point x="192" y="259" type="curve" smooth="yes"/>
      <point x="192" y="333"/>
      <point x="235" y="384"/>
      <point x="300" y="384" type="curve" smooth="yes"/>
      <point x="365" y="384"/>
      <point x="408" y="333"/>
      <point x="408" y="259" type="curve" smooth="yes"/>
      <point x="408" y="185"/>
      <point x="365" y="133"/>
    </contour>
    <contour>
      <point x="403" y="7" type="curve" smooth="yes"/>
      <point x="505" y="56"/>
      <point x="573" y="139"/>
      <point x="573" y="259" type="curve" smooth="yes"/>
      <point x="573" y="417"/>
      <point x="456" y="533"/>
      <point x="300" y="533" type="curve" smooth="yes"/>
      <point x="144" y="533"/>
      <point x="27" y="417"/>
      <point x="27" y="259" type="curve" smooth="yes"/>
      <point x="27" y="102"/>
      <point x="144" y="-16"/>
      <point x="300" y="-16" type="curve"/>
      <point x="397" y="78" type="line"/>
      <point x="219" y="34"/>
      <point x="173" y="-23"/>
      <point x="173" y="-94" type="curve" smooth="yes"/>
      <point x="173" y="-182"/>
      <point x="260" y="-252"/>
      <point x="422" y="-196" type="curve"/>
      <point x="422" y="-70" type="line"/>
      <point x="359" y="-90"/>
      <point x="315" y="-87"/>
      <point x="315" y="-57" type="curve" smooth="yes"/>
      <point x="315" y="-25"/>
      <point x="347" y="-20"/>
    </contour>
  </outline>
</glyph>
<glyph name="ring.cap" format="2">
  <advance width="420"/>
  <anchor x="0" y="680.0" name="top"/>
  <anchor x="210" y="680.0" name="center"/>
  <outline>
    <contour>
      <point x="209.0" y="788.0" type="curve" smooth="yes"/>
      <point x="242.0" y="788.0"/>
      <point x="264.0" y="810.0"/>
      <point x="264.0" y="844.0" type="curve" smooth="yes"/>
      <point x="264.0" y="878.0"/>
      <point x="242.0" y="900.0"/>
      <point x="209.0" y="900.0" type="curve" smooth="yes"/>
      <point x="177.0" y="900.0"/>
      <point x="157.0" y="878.0"/>
      <point x="157.0" y="844.0" type="curve" smooth="yes"/>
      <point x="157.0" y="810.0"/>
      <point x="177.0" y="788.0"/>
    </contour>
    <contour>
      <point x="209.0" y="705.0" type="curve" smooth="yes"/>
      <point x="126.0" y="705.0"/>
      <point x="66.0" y="763.0"/>
      <point x="66.0" y="844.0" type="curve" smooth="yes"/>
      <point x="66.0" y="923.0"/>
      <point x="126.0" y="981.0"/>
      <point x="209.0" y="981.0" type="curve" smooth="yes"/>
      <point x="294.0" y="981.0"/>
      <point x="354.0" y="923.0"/>
      <point x="354.0" y="844.0" type="curve" smooth="yes"/>
      <point x="354.0" y="763.0"/>
      <point x="294.0" y="705.0"/>
    </contour>
  </outline>
</glyph>
